<svg width="144" height="167" viewBox="0 0 144 167" fill="none" xmlns="http://www.w3.org/2000/svg">
<g clip-path="url(#clip0_1687_1717)">
<path d="M139.018 25.3819C140.784 25.5988 141.973 27.1799 141.675 28.9155L120.045 155.194C119.748 156.926 118.078 158.156 116.312 157.939L19.2784 146.02C17.5128 145.803 16.3239 144.222 16.6206 142.491L38.2513 16.2118C38.5486 14.476 40.2191 13.2462 41.9847 13.4632L139.018 25.3819Z" fill="#DBBEFF"/>
<path d="M116.715 158.046C116.578 158.046 116.44 158.037 116.302 158.02L19.2682 146.102C18.3852 145.993 17.615 145.552 17.0994 144.858C16.5922 144.176 16.3933 143.33 16.5395 142.477L38.1704 16.1979C38.4743 14.4233 40.1901 13.1601 41.9944 13.3817L139.028 25.3004C139.911 25.4089 140.681 25.8503 141.196 26.5433C141.704 27.2264 141.903 28.0738 141.756 28.9293L120.125 155.208C119.845 156.845 118.361 158.046 116.715 158.046ZM41.5815 13.5204C40.0128 13.5204 38.5992 14.6654 38.3319 16.2256L16.7011 142.504C16.5627 143.313 16.7508 144.114 17.2311 144.76C17.7195 145.417 18.4502 145.836 19.2882 145.939L116.322 157.858C118.04 158.068 119.675 156.868 119.964 155.18L141.595 28.9017C141.733 28.0908 141.545 27.2881 141.064 26.6413C140.576 25.9846 139.846 25.5662 139.008 25.4633L41.9744 13.5445C41.844 13.5284 41.7128 13.5204 41.5815 13.5204Z" fill="black"/>
<path d="M43.7009 18.2839L22.541 141.813L114.594 153.12L135.754 29.591L43.7009 18.2839Z" fill="white"/>
<path d="M114.594 153.203C114.591 153.203 114.588 153.203 114.584 153.202L22.531 141.895C22.52 141.894 22.5093 141.89 22.4998 141.885C22.4902 141.879 22.4818 141.871 22.4752 141.863C22.4686 141.854 22.4638 141.844 22.4613 141.833C22.4587 141.822 22.4583 141.811 22.4601 141.8L43.6201 18.2704C43.6235 18.2496 43.6348 18.2308 43.6518 18.2182C43.6687 18.2056 43.6899 18.2001 43.7108 18.2028L135.764 29.5098C135.775 29.5112 135.786 29.5148 135.795 29.5204C135.805 29.526 135.813 29.5335 135.82 29.5424C135.827 29.5513 135.831 29.5614 135.834 29.5722C135.837 29.583 135.837 29.5942 135.835 29.6051L114.675 153.135C114.672 153.154 114.662 153.171 114.647 153.183C114.633 153.196 114.614 153.203 114.595 153.203L114.594 153.203ZM22.6363 141.743L114.527 153.03L135.659 29.6622L43.7684 18.3752L22.6363 141.743Z" fill="black"/>
<path d="M142.684 29.2035L141.309 26.8623C141.657 27.4545 141.803 28.1706 141.675 28.9152L120.045 155.194C119.748 156.926 118.078 158.156 116.312 157.939L19.2783 146.02C18.2696 145.896 17.4491 145.327 16.9863 144.539L18.3608 146.88C18.8236 147.668 19.6441 148.237 20.6528 148.361L117.686 160.28C119.452 160.497 121.122 159.267 121.419 157.535L143.05 31.2564C143.177 30.5118 143.032 29.7957 142.684 29.2035Z" fill="url(#paint0_linear_1687_1717)"/>
<path d="M118.089 160.387C117.952 160.387 117.815 160.378 117.676 160.361L20.6428 148.443C19.6432 148.32 18.7856 147.765 18.2902 146.921L16.9156 144.58C16.9046 144.561 16.9015 144.539 16.9069 144.518C16.9124 144.497 16.926 144.479 16.9448 144.468C16.9635 144.457 16.9859 144.454 17.0069 144.459C17.028 144.465 17.046 144.478 17.057 144.497L17.0613 144.505C17.5315 145.3 18.3426 145.822 19.2883 145.938L116.322 157.857C118.04 158.068 119.675 156.867 119.964 155.18L141.595 28.9013C141.715 28.1967 141.592 27.5059 141.239 26.9038C141.233 26.8945 141.229 26.8841 141.227 26.8734C141.226 26.8626 141.226 26.8516 141.229 26.841C141.232 26.8304 141.236 26.8204 141.243 26.8117C141.249 26.803 141.257 26.7956 141.267 26.7901C141.276 26.7846 141.287 26.781 141.298 26.7795C141.308 26.7781 141.319 26.7788 141.33 26.7816C141.34 26.7845 141.35 26.7894 141.359 26.7961C141.367 26.8028 141.375 26.8112 141.38 26.8207L142.754 29.1619C143.123 29.7889 143.256 30.5377 143.131 31.2702L121.5 157.549C121.22 159.185 119.736 160.387 118.089 160.387L118.089 160.387ZM17.5604 145.355L18.4315 146.838C18.901 147.638 19.7142 148.163 20.6628 148.28L117.696 160.198C119.416 160.41 121.049 159.209 121.338 157.521L142.969 31.2425C143.09 30.5381 142.967 29.8473 142.613 29.245L141.737 27.7534C141.817 28.1407 141.823 28.5394 141.756 28.929L120.125 155.208C119.822 156.98 118.107 158.241 116.302 158.02L19.2683 146.101C18.619 146.022 18.0296 145.76 17.5605 145.355L17.5604 145.355ZM96.2455 10.2738V10.2741C96.2455 10.2734 96.2453 10.2728 96.2451 10.272C95.8918 8.26769 95.4525 7.32214 95.2649 6.91826C94.8776 6.10704 94.0834 5.50806 93.0826 5.38636C91.4874 5.19233 89.9752 6.29016 89.7031 7.8401C89.6012 8.42055 89.6877 8.98222 89.9196 9.46778L89.9217 9.47246C90.0358 9.7202 90.1324 10.0366 90.2098 10.3415C90.2796 10.6187 90.3476 10.9398 90.4133 11.3044C90.3644 11.027 90.3709 10.7349 90.4408 10.4381C90.7634 9.06636 92.3165 8.11286 93.9119 8.30689C95.1649 8.45934 96.069 9.27121 96.2459 10.2757L96.2456 10.2738H96.2455Z" fill="black"/>
<path d="M90.4133 11.3863C90.3941 11.3863 90.3755 11.3795 90.3608 11.3672C90.3461 11.3548 90.3361 11.3377 90.3327 11.3188C90.2679 10.959 90.1999 10.6369 90.1304 10.3614C90.0402 10.0061 89.945 9.7185 89.8474 9.5066C89.5982 8.98429 89.521 8.40434 89.6225 7.82577C89.9015 6.23688 91.4577 5.10592 93.0927 5.30479C94.0851 5.4255 94.9249 6.01538 95.339 6.88277C95.5285 7.29043 95.971 8.24294 96.326 10.2577C96.326 10.2582 96.3262 10.2588 96.3263 10.2593L96.3273 10.2655C96.33 10.2867 96.3242 10.3082 96.3113 10.3252C96.2984 10.3423 96.2793 10.3536 96.2581 10.3568C96.237 10.3601 96.2154 10.3549 96.198 10.3424C96.1806 10.3299 96.1688 10.311 96.1652 10.2899C95.9901 9.29584 95.0808 8.53169 93.9021 8.38826C92.3516 8.19924 90.8334 9.12739 90.5208 10.4568C90.455 10.7361 90.446 11.0163 90.4942 11.2898V11.2901C90.4962 11.3019 90.4957 11.314 90.4926 11.3256C90.4895 11.3372 90.4839 11.3479 90.4762 11.3571C90.4685 11.3663 90.4589 11.3737 90.448 11.3787C90.4371 11.3838 90.4253 11.3863 90.4133 11.3863ZM92.7177 5.44609C91.304 5.44609 90.0278 6.46519 89.784 7.85415C89.6883 8.39892 89.7609 8.9446 89.9937 9.4323C90.098 9.65897 90.1967 9.95608 90.2893 10.3212C90.3059 10.3868 90.3222 10.4549 90.3386 10.5255C90.3453 10.4901 90.3528 10.4546 90.3611 10.4192C90.6923 9.01086 92.2897 8.02686 93.9219 8.2254C94.822 8.33488 95.5749 8.78936 95.9962 9.43279C95.6838 8.01423 95.3482 7.29158 95.1908 6.95289C94.8013 6.137 94.0094 5.58156 93.0729 5.46765C92.9551 5.45332 92.8364 5.44612 92.7177 5.44609ZM102.878 10.3319C102.777 9.76443 102.639 9.06695 102.436 8.3006C102.426 8.26583 102.417 8.23146 102.408 8.19686C102.391 8.13552 102.374 8.07417 102.357 8.01201C102.34 7.95108 102.322 7.89081 102.305 7.83061C102.292 7.78813 102.28 7.7459 102.267 7.70309C102.249 7.64044 102.229 7.57844 102.21 7.51652C102.195 7.4683 102.181 7.42041 102.165 7.37186C102.156 7.34423 102.147 7.31684 102.138 7.28936C101.938 6.67406 101.695 6.03416 101.393 5.39418C101.386 5.3795 101.38 5.36441 101.373 5.34981C101.379 5.36359 101.385 5.3772 101.392 5.39098C101.383 5.37146 101.374 5.35202 101.365 5.33251C102.147 6.96986 102.438 8.86284 102.095 10.8199L100.937 17.416C101.127 17.8136 101.286 18.3763 101.412 19.0897L102.785 13.2522C103.021 12.2517 103.042 11.2673 102.878 10.332V10.3319Z" fill="black"/>
<path d="M101.412 19.172H101.409C101.39 19.1715 101.372 19.1645 101.358 19.1521C101.344 19.1398 101.334 19.1229 101.331 19.1043C101.207 18.3986 101.049 17.8426 100.863 17.4517C100.855 17.4363 100.853 17.419 100.856 17.4022L102.014 10.8062C102.331 8.99811 102.111 7.18673 101.377 5.55364C101.357 5.51206 101.338 5.47073 101.319 5.42964L101.318 5.428L101.317 5.42644L101.291 5.36822C101.281 5.34859 101.28 5.32604 101.287 5.30553C101.295 5.28502 101.31 5.26824 101.329 5.25886C101.349 5.24949 101.371 5.24829 101.392 5.25555C101.412 5.2628 101.429 5.2779 101.439 5.29753L101.446 5.31393L101.447 5.31499L101.447 5.31541V5.31557L101.447 5.31582C101.474 5.3724 101.5 5.42907 101.526 5.48614C101.782 6.04322 102.014 6.64073 102.216 7.26447L102.243 7.34722C102.254 7.38199 102.265 7.41627 102.275 7.45063L102.288 7.49262C102.319 7.5907 102.349 7.68914 102.377 7.78793L102.383 7.80818C102.401 7.86854 102.418 7.92914 102.436 7.9904C102.453 8.05273 102.47 8.11431 102.487 8.17582L102.515 8.28021C102.683 8.91421 102.824 9.56174 102.958 10.3179V10.3181C103.129 11.2881 103.098 12.2817 102.865 13.2713L101.492 19.1088C101.487 19.1268 101.477 19.1428 101.463 19.1543C101.448 19.1658 101.43 19.172 101.412 19.172H101.412ZM101.022 17.4048C101.175 17.7329 101.308 18.1665 101.42 18.6978L102.705 13.2338C102.933 12.2659 102.964 11.2946 102.797 10.3466C102.663 9.59512 102.523 8.95185 102.356 8.32212L102.328 8.21871C102.295 8.09678 102.261 7.97524 102.226 7.85411L102.22 7.83369C102.218 7.82606 102.215 7.81843 102.213 7.81089C102.365 8.79916 102.354 9.81736 102.175 10.8346L101.022 17.4048Z" fill="black"/>
<path d="M82.5829 8.4468C83.5016 3.21383 88.6142 -0.498229 94.0005 0.15701C99.3901 0.812658 103.013 5.58729 102.094 10.8203L100.936 17.4163L102.11 17.559C110.384 18.5654 115.948 25.8957 114.537 33.9367L62.7144 27.6327C64.1259 19.5917 71.9779 13.8936 80.2513 14.9L81.425 15.0427L82.5829 8.4468ZM95.4805 8.54324C95.7526 6.9933 94.6812 5.58114 93.0825 5.3867C91.4872 5.19267 89.9751 6.2905 89.703 7.84044C89.431 9.39038 90.5019 10.8057 92.0971 10.9998C93.6958 11.1942 95.2085 10.0932 95.4805 8.54324Z" fill="url(#paint1_linear_1687_1717)"/>
<path d="M114.537 34.0184C114.534 34.0184 114.53 34.0183 114.527 34.0179L62.7044 27.7139C62.6934 27.7125 62.6827 27.7089 62.6731 27.7033C62.6635 27.6977 62.6551 27.6902 62.6485 27.6813C62.6418 27.6724 62.6371 27.6622 62.6345 27.6513C62.632 27.6405 62.6316 27.6292 62.6335 27.6183C64.0498 19.5502 71.9559 13.8081 80.2611 14.8183L81.3576 14.9517L82.5021 8.43232C83.4269 3.16475 88.5888 -0.584383 94.0105 0.0752841C96.6795 0.399951 98.9987 1.7247 100.541 3.80547C102.036 5.82318 102.617 8.31931 102.175 10.8341L101.032 17.345L102.12 17.4773C106.206 17.9743 109.756 20.002 112.116 23.187C114.405 26.2761 115.294 30.0988 114.618 33.9506C114.614 33.9696 114.604 33.9868 114.59 33.9992C114.575 34.0116 114.556 34.0184 114.537 34.0184H114.537ZM62.8103 27.5615L114.469 33.8456C115.113 30.0645 114.231 26.3168 111.984 23.2847C109.651 20.1362 106.141 18.1317 102.1 17.6402L100.927 17.4974C100.916 17.496 100.905 17.4924 100.895 17.4868C100.886 17.4812 100.877 17.4737 100.871 17.4648C100.864 17.4558 100.859 17.4456 100.857 17.4348C100.854 17.424 100.854 17.4128 100.856 17.4018L102.014 10.8058C102.447 8.33572 101.877 5.88435 100.409 3.90314C98.8941 1.85894 96.6146 0.557323 93.9906 0.238151C88.6551 -0.411101 83.5736 3.27767 82.6638 8.46069L81.5059 15.0567C81.5023 15.0774 81.4909 15.096 81.474 15.1085C81.4571 15.121 81.436 15.1265 81.4152 15.124L80.2415 14.9812C72.0518 13.985 64.2522 19.6227 62.8104 27.5616L62.8103 27.5615ZM92.4619 11.1035C92.3366 11.1034 92.2115 11.0959 92.0872 11.0807C91.2826 10.9829 90.5828 10.583 90.1172 9.95462C89.6643 9.34359 89.4885 8.58756 89.6222 7.82588C89.9013 6.23698 91.4574 5.10602 93.0924 5.30489C93.9001 5.40313 94.6016 5.80358 95.0677 6.43241C95.5195 7.04205 95.6947 7.7966 95.5613 8.55697C95.3035 10.0256 93.9551 11.1035 92.4619 11.1035ZM92.7175 5.44619C91.3037 5.44619 90.0275 6.46537 89.7837 7.85425C89.6579 8.57116 89.823 9.28241 90.2489 9.85695C90.6875 10.4487 91.3474 10.8256 92.1071 10.918C93.657 11.1066 95.1353 10.0349 95.3997 8.52868C95.5254 7.813 95.3606 7.10323 94.936 6.53016C94.497 5.93782 93.8352 5.56051 93.0726 5.46776C92.9548 5.45342 92.8361 5.44622 92.7175 5.44619Z" fill="black"/>
</g>
<g clip-path="url(#clip1_1687_1717)">
<path d="M62.0641 44.4055L52.2049 43.1957C51.4631 43.1047 50.7556 43.6216 50.6299 44.3541L48.9703 54.0332C48.8448 54.7657 49.3495 55.4315 50.0914 55.5225L59.9506 56.7323C60.6924 56.8234 61.3998 56.3063 61.5254 55.5738L63.1849 45.8948C63.3105 45.1623 62.806 44.4965 62.0641 44.4055Z" fill="#DBBEFF"/>
<path d="M60.1201 56.8246C60.0607 56.8246 60.0009 56.821 59.9407 56.8137L50.0815 55.6038C49.6967 55.5566 49.3607 55.3637 49.1352 55.0608C48.9133 54.7624 48.8261 54.3928 48.8901 54.0198L50.5497 44.3409C50.6821 43.5687 51.4291 43.019 52.215 43.1153L62.0742 44.3252C62.4589 44.3724 62.7949 44.5652 63.0202 44.868C63.2423 45.1664 63.3294 45.5361 63.2654 45.9091L61.6059 55.588C61.4836 56.3011 60.8371 56.8246 60.1201 56.8246ZM52.0349 43.2672C51.3955 43.2672 50.8193 43.7332 50.7104 44.3683L49.0508 54.0473C48.9945 54.3758 49.0709 54.7011 49.2661 54.9635C49.4647 55.2303 49.7613 55.4003 50.1015 55.442L59.9607 56.6519C60.6612 56.738 61.3272 56.2482 61.4451 55.5604L63.1046 45.8814C63.1609 45.5528 63.0845 45.2274 62.8894 44.9652C62.6909 44.6984 62.3943 44.5285 62.0543 44.4867L52.195 43.277C52.1419 43.2704 52.0884 43.2672 52.0349 43.2672Z" fill="black"/>
<path d="M61.055 47.1327C60.9603 47.1215 60.8643 47.1301 60.7732 47.158C60.682 47.1859 60.5977 47.2325 60.5256 47.2947L55.0384 51.9776L52.7705 49.3346C52.6661 49.2131 52.5231 49.1423 52.3716 49.1237C52.2782 49.1127 52.1836 49.1209 52.0936 49.1477C52.0035 49.1746 51.9199 49.2196 51.8479 49.2799C51.5657 49.5141 51.5204 49.9175 51.7486 50.1831L54.4371 53.3101C54.5406 53.4287 54.6845 53.5046 54.8408 53.5232L54.8836 53.5284C55.0603 53.5383 55.2333 53.4777 55.3681 53.362L61.3664 48.243C61.6453 48.0046 61.6829 47.6004 61.4501 47.338C61.3455 47.22 61.2042 47.151 61.055 47.1327Z" fill="#701AFF"/>
<path d="M58.3636 65.9884L48.5044 64.7785C47.7625 64.6875 47.0544 65.2084 46.9287 65.9407L45.2692 75.6196C45.1436 76.3522 45.6483 77.0179 46.3902 77.109L56.2494 78.3188C56.9913 78.4099 57.6986 77.8928 57.8242 77.1604L59.4837 67.4813C59.6093 66.749 59.1054 66.0794 58.3636 65.9884Z" fill="#DBBEFF"/>
<path d="M56.4191 78.4103C56.3596 78.4103 56.2997 78.4067 56.2395 78.3993L46.3803 77.1895C45.9955 77.1422 45.6595 76.9493 45.4341 76.6464C45.212 76.348 45.1249 75.9784 45.1889 75.6055L46.8485 65.9265C46.9812 65.1522 47.7283 64.6009 48.5145 64.6972L58.3737 65.907C58.7571 65.9541 59.0924 66.1468 59.3178 66.4498C59.5409 66.7495 59.6284 67.1205 59.5643 67.4947L57.9047 77.1736C57.7824 77.8868 57.136 78.4103 56.4191 78.4103ZM48.3348 64.8492C47.6951 64.8492 47.1184 65.3169 47.0092 65.9541L45.3496 75.633C45.2933 75.9615 45.3698 76.2869 45.5649 76.5492C45.7635 76.816 46.0601 76.986 46.4003 77.0277L56.2595 78.2376C56.96 78.3234 57.626 77.8339 57.744 77.1462L59.4035 67.4672C59.46 67.1375 59.3831 66.8107 59.1869 66.5471C58.9884 66.2803 58.6926 66.1105 58.3538 66.0689L48.4945 64.859C48.4415 64.8525 48.3882 64.8492 48.3348 64.8492Z" fill="black"/>
<path d="M57.3538 68.7184C57.2591 68.7072 57.1632 68.7158 57.072 68.7437C56.9809 68.7716 56.8965 68.8182 56.8244 68.8804L51.338 73.5594L49.0693 70.9205C48.9644 70.7981 48.8207 70.7266 48.6685 70.708C48.4898 70.686 48.2994 70.737 48.1467 70.8656C47.8645 71.0998 47.8193 71.5032 48.0474 71.7689L50.7358 74.8957C50.8393 75.0144 50.9832 75.0903 51.1395 75.1089L51.1823 75.1141C51.359 75.1241 51.5321 75.0636 51.6668 74.9476L57.665 69.829C57.9439 69.5903 57.9817 69.1861 57.7488 68.9237C57.6444 68.8056 57.5031 68.7367 57.3538 68.7184Z" fill="#701AFF"/>
<path d="M54.6627 87.5744L44.8035 86.3645C44.0616 86.2734 43.3534 86.7943 43.2285 87.5229L41.5683 97.2059C41.4434 97.9345 41.9475 98.6042 42.6893 98.6952L52.5486 99.9051C53.2904 99.9961 53.9984 99.4752 54.1233 98.7465L55.7836 89.0636C55.9084 88.335 55.4046 87.6654 54.6627 87.5744Z" fill="#DBBEFF"/>
<path d="M52.7182 99.9968C52.6582 99.9968 52.5983 99.9931 52.5388 99.9858L42.6795 98.7761C42.2957 98.729 41.9599 98.5359 41.7343 98.2326C41.5118 97.9335 41.4243 97.564 41.4881 97.1921L43.1483 87.5091C43.2808 86.7369 44.0278 86.1865 44.8136 86.2836L54.6728 87.4935C55.0565 87.5405 55.3921 87.7334 55.6178 88.0368C55.8403 88.3358 55.9277 88.7054 55.864 89.0773L54.2038 98.7602C54.0815 99.4734 53.4352 99.9968 52.7182 99.9968ZM44.6335 86.4355C43.9941 86.4355 43.4179 86.9016 43.3091 87.5367L41.6488 97.2196C41.5926 97.5472 41.6694 97.8724 41.865 98.1353C42.0639 98.4025 42.3601 98.5726 42.6993 98.6143L52.5585 99.8242C53.2591 99.9095 53.9251 99.4205 54.0429 98.7327L55.7032 89.0498C55.7593 88.7221 55.6825 88.3969 55.4869 88.134C55.2881 87.8668 54.9919 87.6968 54.6528 87.6551L44.7936 86.4452C44.7405 86.4388 44.687 86.4355 44.6335 86.4355Z" fill="black"/>
<path d="M50.9615 109.161L41.1023 107.951C40.3604 107.86 39.6523 108.38 39.5274 109.109L37.8671 118.792C37.7423 119.52 38.2463 120.19 38.9882 120.281L48.8474 121.491C49.5892 121.582 50.2972 121.061 50.4222 120.332L52.0824 110.65C52.2073 109.921 51.7034 109.252 50.9615 109.161Z" fill="#DBBEFF"/>
<path d="M49.0172 121.583C48.9578 121.583 48.8978 121.579 48.8376 121.572L38.9784 120.362C38.5946 120.315 38.2589 120.122 38.0332 119.819C37.8106 119.52 37.7232 119.15 37.7869 118.778L39.4471 109.095C39.5795 108.323 40.3264 107.773 41.1124 107.87L50.9716 109.08C51.3554 109.127 51.6911 109.32 51.9166 109.623C52.1391 109.922 52.2265 110.292 52.1627 110.664L50.5026 120.346C50.3803 121.059 49.7341 121.583 49.0172 121.583ZM40.9323 108.022C40.2929 108.022 39.7167 108.488 39.6079 109.123L37.9477 118.806C37.8915 119.133 37.9683 119.458 38.164 119.721C38.3629 119.989 38.6591 120.159 38.9983 120.2L48.8575 121.41C49.5581 121.496 50.224 121.007 50.3419 120.319L52.0021 110.636C52.0582 110.308 51.9815 109.983 51.7859 109.72C51.5871 109.453 51.2909 109.283 50.9517 109.241L41.0925 108.031C41.0393 108.025 40.9859 108.022 40.9323 108.022ZM89.9366 51.5384C89.9333 51.5384 89.9299 51.5382 89.9265 51.5378L69.8121 49.0694C69.8015 49.0681 69.7912 49.0647 69.7819 49.0594C69.7726 49.0542 69.7644 49.0471 69.7578 49.0387C69.7445 49.0216 69.7385 49 69.7411 48.9786C69.7438 48.9571 69.7548 48.9376 69.7719 48.9243C69.7889 48.911 69.8106 48.905 69.832 48.9076L89.9465 51.3759C89.9673 51.3782 89.9865 51.3884 90 51.4044C90.0135 51.4204 90.0203 51.441 90.019 51.4618C90.0177 51.4827 90.0085 51.5023 89.9931 51.5166C89.9778 51.5308 89.9576 51.5386 89.9366 51.5384ZM109.041 53.8827C109.038 53.8827 109.034 53.8825 109.031 53.8821L95.0814 52.1703C95.0707 52.169 95.0605 52.1656 95.0512 52.1604C95.0418 52.1551 95.0336 52.148 95.027 52.1396C95.0204 52.1312 95.0156 52.1215 95.0127 52.1112C95.0099 52.1009 95.0091 52.0901 95.0104 52.0795C95.0132 52.0581 95.0243 52.0387 95.0413 52.0254C95.0583 52.0121 95.0798 52.006 95.1013 52.0085L109.051 53.7203C109.071 53.7228 109.09 53.733 109.104 53.749C109.117 53.7649 109.124 53.7854 109.123 53.8061C109.121 53.8269 109.112 53.8463 109.097 53.8606C109.082 53.8748 109.062 53.8827 109.041 53.8827ZM98.2568 57.8842C98.2534 57.8842 98.2501 57.8841 98.2467 57.8837L68.9178 54.2846C68.9072 54.2833 68.8969 54.2799 68.8876 54.2747C68.8783 54.2694 68.8701 54.2623 68.8635 54.2539C68.8569 54.2455 68.852 54.2358 68.8492 54.2255C68.8463 54.2152 68.8455 54.2044 68.8468 54.1938C68.8496 54.1724 68.8607 54.1529 68.8777 54.1396C68.8947 54.1264 68.9163 54.1203 68.9377 54.1228L98.2666 57.7218C98.2872 57.7243 98.3061 57.7346 98.3195 57.7505C98.3328 57.7665 98.3396 57.7869 98.3383 57.8076C98.3371 57.8284 98.3279 57.8479 98.3128 57.8621C98.2976 57.8764 98.2776 57.8843 98.2568 57.8842ZM97.7069 74.532C97.7036 74.532 97.7002 74.5318 97.6968 74.5314L66.111 70.6555C66.1004 70.6542 66.0901 70.6508 66.0808 70.6455C66.0714 70.6402 66.0633 70.6332 66.0567 70.6247C66.0433 70.6077 66.0373 70.5861 66.04 70.5646C66.0426 70.5432 66.0537 70.5236 66.0707 70.5103C66.0878 70.497 66.1094 70.491 66.1309 70.4936L97.7167 74.3696C97.7373 74.3721 97.7563 74.3823 97.7696 74.3983C97.783 74.4142 97.7897 74.4347 97.7884 74.4554C97.7872 74.4762 97.778 74.4957 97.7629 74.5099C97.7477 74.5241 97.7277 74.532 97.7069 74.532ZM117.122 76.9146C117.119 76.9146 117.115 76.9145 117.112 76.914L102.852 75.1641C102.841 75.1628 102.831 75.1594 102.821 75.1541C102.812 75.1489 102.804 75.1418 102.797 75.1334C102.791 75.125 102.786 75.1153 102.783 75.105C102.78 75.0947 102.779 75.0839 102.781 75.0733C102.783 75.0519 102.794 75.0324 102.811 75.0191C102.828 75.0058 102.85 74.9998 102.871 75.0023L117.132 76.7522C117.153 76.7547 117.171 76.7649 117.185 76.7809C117.198 76.7968 117.205 76.8173 117.204 76.838C117.202 76.8588 117.193 76.8783 117.178 76.8925C117.163 76.9067 117.143 76.9147 117.122 76.9146ZM80.1087 77.6976C80.1054 77.6976 80.102 77.6974 80.0986 77.697L65.2167 75.8708C65.206 75.8695 65.1958 75.8661 65.1865 75.8609C65.1771 75.8556 65.1689 75.8485 65.1623 75.8401C65.1557 75.8317 65.1509 75.822 65.148 75.8117C65.1452 75.8014 65.1444 75.7906 65.1457 75.78C65.1484 75.7586 65.1595 75.7391 65.1766 75.7259C65.1936 75.7126 65.2151 75.7065 65.2366 75.709L80.1185 77.5352C80.1392 77.5377 80.1581 77.5479 80.1714 77.5639C80.1848 77.5798 80.1915 77.6003 80.1902 77.621C80.189 77.6418 80.1799 77.6613 80.1647 77.6755C80.1495 77.6897 80.1295 77.6976 80.1087 77.6976ZM104.086 97.3551C104.083 97.3551 104.08 97.3549 104.076 97.3545L62.4098 92.2414C62.3884 92.2388 62.3689 92.2278 62.3555 92.2107C62.3422 92.1937 62.3362 92.1721 62.3388 92.1507C62.3401 92.14 62.3435 92.1298 62.3488 92.1204C62.354 92.1111 62.3611 92.1029 62.3695 92.0963C62.378 92.0897 62.3877 92.0849 62.398 92.082C62.4083 92.0792 62.4191 92.0784 62.4297 92.0798L104.096 97.1928C104.117 97.1954 104.135 97.2057 104.149 97.2216C104.162 97.2376 104.168 97.2579 104.167 97.2785C104.166 97.2992 104.157 97.3186 104.142 97.3328C104.127 97.347 104.107 97.355 104.086 97.3551ZM85.288 100.373C85.2846 100.373 85.2812 100.373 85.2778 100.373L61.5156 97.4568C61.5047 97.4558 61.4942 97.4527 61.4845 97.4475C61.4749 97.4424 61.4664 97.4353 61.4595 97.4268C61.4527 97.4183 61.4476 97.4085 61.4446 97.398C61.4416 97.3875 61.4407 97.3765 61.442 97.3657C61.4434 97.3549 61.4469 97.3444 61.4523 97.3349C61.4578 97.3255 61.4651 97.3172 61.4738 97.3106C61.4825 97.304 61.4925 97.2993 61.5031 97.2966C61.5137 97.294 61.5247 97.2935 61.5355 97.2951L85.2977 100.211C85.3183 100.214 85.337 100.224 85.3502 100.24C85.3634 100.256 85.3701 100.276 85.3688 100.297C85.3676 100.317 85.3585 100.337 85.3435 100.351C85.3285 100.365 85.3086 100.373 85.288 100.373ZM72.4438 115.508C72.4404 115.509 72.437 115.508 72.4337 115.508L58.7094 113.824C58.6879 113.821 58.6684 113.81 58.655 113.793C58.6417 113.776 58.6357 113.754 58.6384 113.733C58.6396 113.722 58.643 113.712 58.6482 113.703C58.6535 113.693 58.6606 113.685 58.669 113.678C58.6775 113.672 58.6871 113.667 58.6975 113.664C58.7078 113.661 58.7186 113.661 58.7292 113.662L72.4536 115.346C72.4741 115.349 72.4928 115.359 72.506 115.375C72.5192 115.391 72.5259 115.411 72.5246 115.432C72.5234 115.453 72.5144 115.472 72.4993 115.486C72.4843 115.5 72.4645 115.508 72.4438 115.508ZM104.931 119.495C104.927 119.495 104.924 119.495 104.921 119.494L77.5887 116.141C77.5672 116.138 77.5477 116.127 77.5344 116.11C77.5211 116.093 77.515 116.071 77.5177 116.05C77.5189 116.039 77.5223 116.029 77.5275 116.019C77.5328 116.01 77.5399 116.002 77.5483 115.995C77.5568 115.989 77.5664 115.984 77.5768 115.981C77.5871 115.978 77.5979 115.977 77.6086 115.979L104.941 119.333C104.961 119.335 104.98 119.346 104.993 119.362C105.006 119.378 105.013 119.398 105.012 119.419C105.01 119.439 105.001 119.459 104.986 119.473C104.971 119.487 104.951 119.495 104.931 119.495ZM92.8489 123.338C92.8455 123.338 92.8422 123.337 92.8388 123.337L57.8152 119.039C57.7938 119.036 57.7742 119.025 57.7609 119.008C57.7476 118.991 57.7416 118.97 57.7442 118.948C57.7454 118.938 57.7488 118.927 57.754 118.918C57.7593 118.909 57.7663 118.9 57.7748 118.894C57.7832 118.887 57.7929 118.882 57.8033 118.88C57.8137 118.877 57.8245 118.876 57.8351 118.877L92.8587 123.175C92.8793 123.178 92.898 123.188 92.9112 123.204C92.9244 123.22 92.9311 123.24 92.9298 123.261C92.9286 123.282 92.9195 123.301 92.9045 123.315C92.8894 123.33 92.8696 123.338 92.8489 123.338Z" fill="black"/>
</g>
<g clip-path="url(#clip2_1687_1717)">
<path d="M7.22139 82.4858C6.38821 80.808 4.25511 80.4166 2.65894 81.1419C1.03592 81.7798 -0.240701 83.4596 0.155162 85.205C0.216114 85.7697 1.68815 88.3606 1.92824 88.9123C1.12314 86.7318 7.67871 83.5868 8.72738 85.4381L7.22139 82.4858Z" fill="#DBBEFF"/>
<path d="M1.92851 88.9943C1.91243 88.9943 1.89669 88.9896 1.88324 88.9807C1.86978 88.9719 1.85919 88.9594 1.85278 88.9446C1.77828 88.7732 1.57651 88.3899 1.34302 87.946C0.798904 86.9118 0.122228 85.6258 0.073912 85.2181C-0.113902 84.3843 0.0663135 83.4944 0.581274 82.7119C1.06402 81.9788 1.79125 81.3935 2.62906 81.0643C4.18831 80.3555 6.41829 80.6818 7.29542 82.448L8.80123 85.3999C8.81102 85.4191 8.81289 85.4414 8.80644 85.462C8.79999 85.4826 8.78574 85.4999 8.76674 85.5101C8.74773 85.5203 8.72548 85.5227 8.70475 85.5167C8.68401 85.5108 8.66644 85.4969 8.65579 85.4781C8.16395 84.6099 6.35494 84.9506 4.88233 85.6345C3.15343 86.4374 1.61029 87.8111 2.00598 88.883C2.0106 88.8955 2.01214 88.9089 2.01045 88.9221C2.00877 88.9353 2.00391 88.9479 1.9963 88.9588C1.98869 88.9698 1.97855 88.9787 1.96675 88.9849C1.95495 88.991 1.94183 88.9943 1.92851 88.9943ZM4.27891 80.8801C3.72753 80.8801 3.1773 80.9966 2.69348 81.2164C0.689635 82.004 -0.067155 83.8492 0.23604 85.1861C0.236763 85.1892 0.237287 85.1923 0.237609 85.1955C0.277584 85.5663 1.0067 86.952 1.48912 87.8689C1.58713 88.0547 1.68456 88.2408 1.78142 88.4271C1.81454 87.9989 2.06083 87.5344 2.51145 87.0587C3.06233 86.477 3.87966 85.918 4.81279 85.4846C6.13484 84.8707 7.6357 84.5503 8.41858 85.0131L7.14816 82.5227L7.14774 82.5219C6.58447 81.3875 5.4295 80.8801 4.27891 80.8801ZM8.90745 86.6095C7.25643 86.4303 4.78908 87.4662 3.39642 88.9234C2.0557 90.3262 2.19974 91.6079 3.68524 91.8616L4.14974 91.9409C2.82042 91.7139 2.6915 90.567 3.89123 89.3116C5.13754 88.0076 7.34555 87.0805 8.82304 87.2409C9.24929 87.2871 9.56818 87.4188 9.77615 87.6141C9.88021 87.7118 9.95653 87.8253 10.0047 87.9521C10.0689 88.121 10.0831 88.3135 10.0464 88.5228C10.0188 88.6798 9.96247 88.8464 9.87699 89.0197L10.0853 88.5973C10.5946 87.5642 10.1775 86.7474 8.90745 86.6095Z" fill="black"/>
<path d="M4.14995 92.0238C4.14527 92.0237 4.1406 92.0233 4.136 92.0225L3.67142 91.9432C3.02373 91.8326 2.60152 91.5328 2.45063 91.0762C2.25042 90.4708 2.57344 89.6654 3.33684 88.8666C4.74272 87.3955 7.24608 86.3456 8.9165 86.5276C9.56699 86.5981 10.0259 86.8449 10.2433 87.2409C10.4511 87.6195 10.4221 88.1012 10.1594 88.634L9.95113 89.0564C9.94143 89.076 9.92433 89.091 9.90358 89.0981C9.88284 89.1051 9.86014 89.1036 9.84049 89.0939C9.82085 89.0842 9.80585 89.0671 9.79881 89.0464C9.79177 89.0256 9.79326 89.0029 9.80296 88.9833C9.88406 88.8189 9.93865 88.6591 9.96508 88.5087C9.99928 88.3143 9.98664 88.137 9.9275 87.9816C9.88264 87.8647 9.81151 87.7597 9.71962 87.6746C9.52016 87.4872 9.20697 87.3658 8.81408 87.3232C7.36146 87.1653 5.17971 88.0832 3.95091 89.369C3.30909 90.0405 3.03298 90.7038 3.19329 91.1889C3.30909 91.539 3.64457 91.7709 4.16358 91.8596C4.18515 91.8633 4.20437 91.8754 4.21702 91.8932C4.22967 91.9111 4.23472 91.9333 4.23106 91.9548C4.22791 91.9741 4.21802 91.9916 4.20316 92.0042C4.1883 92.0168 4.16945 92.0238 4.14995 92.0238ZM8.5189 86.6721C6.9115 86.6721 4.72785 87.6503 3.45626 88.9808C2.73648 89.7339 2.42709 90.4787 2.60747 91.0243C2.7093 91.3324 2.96146 91.5593 3.3446 91.6914C3.19899 91.5689 3.09526 91.4179 3.0367 91.2407C2.85648 90.6957 3.1463 89.9719 3.83173 89.2547C5.0915 87.9365 7.33478 86.9962 8.83209 87.1589C9.2671 87.2061 9.60383 87.3391 9.83285 87.5541C9.94526 87.6596 10.0291 87.7837 10.082 87.9229C10.1184 88.0195 10.1401 88.1209 10.1465 88.2239C10.2515 87.8787 10.236 87.5708 10.0986 87.3204C9.90818 86.9737 9.49332 86.7564 8.89874 86.6918C8.77257 86.6784 8.64578 86.6719 8.5189 86.6721Z" fill="black"/>
<path d="M9.30594 85.5843C7.7376 83.3571 1.35308 86.7098 1.6049 89.1244C1.58979 89.3723 2.48831 90.943 2.58684 91.1892C1.58525 88.7042 8.6191 84.9973 10.1846 87.3068L9.30594 85.5843Z" fill="white"/>
<path d="M2.58688 91.2717C2.57041 91.2717 2.55431 91.2668 2.54065 91.2576C2.52699 91.2484 2.5164 91.2353 2.51024 91.22L2.50949 91.2183C2.47885 91.1427 2.36479 90.927 2.23289 90.6774C1.82968 89.9149 1.5207 89.3153 1.52219 89.1274C1.37741 87.6825 3.48689 85.9633 5.5279 85.1975C7.31444 84.5274 8.75204 84.654 9.37354 85.5366C9.3758 85.5398 9.37782 85.5432 9.37957 85.5467L10.2583 87.2693C10.2677 87.288 10.2696 87.3096 10.2637 87.3297C10.2578 87.3498 10.2445 87.3669 10.2265 87.3775C10.2085 87.3882 10.1871 87.3916 10.1666 87.3871C10.1462 87.3825 10.1282 87.3704 10.1164 87.3531C9.56193 86.5353 7.83964 86.2548 5.36866 87.572C3.72376 88.4488 2.1759 89.9442 2.66278 91.1566C2.66815 91.1692 2.67032 91.1829 2.6691 91.1965C2.66788 91.2101 2.6633 91.2232 2.65578 91.2346C2.64826 91.246 2.63803 91.2554 2.626 91.2618C2.61398 91.2683 2.60054 91.2717 2.58688 91.2717ZM7.58369 84.9353C7.00728 84.9353 6.32929 85.0734 5.58588 85.3523C4.55827 85.7378 3.5466 86.3497 2.81038 87.031C2.02187 87.7607 1.62295 88.5011 1.68704 89.1157C1.68754 89.1202 1.68762 89.1247 1.68729 89.1293C1.67837 89.2754 2.13411 90.1372 2.37892 90.6002L2.40733 90.654C2.41608 90.1973 2.62909 89.7011 3.0394 89.1914C3.55337 88.553 4.35294 87.9262 5.29094 87.4262C6.86068 86.5893 8.83058 86.1326 9.86785 86.8675L9.23503 85.627C8.90888 85.168 8.33189 84.9353 7.58369 84.9353Z" fill="black"/>
<path d="M9.96601 87.8648C8.45161 85.9703 2.64986 88.856 3.10659 91.1879C3.10659 91.1879 37.7146 158.403 37.7739 159.18C36.924 156.924 43.1071 153.654 44.5731 155.705L9.96601 87.8648Z" fill="#B246FF"/>
<path d="M37.7737 159.263C37.7569 159.263 37.7406 159.258 37.7268 159.248C37.713 159.239 37.7024 159.225 37.6965 159.21C37.6825 159.172 37.6702 159.135 37.6596 159.096C36.4738 156.182 3.37246 91.8855 3.033 91.2264C3.02945 91.2194 3.02689 91.212 3.02541 91.2044C2.77003 89.9004 4.34638 88.5215 5.91901 87.7924C7.29706 87.1535 9.20055 86.7756 10.0304 87.8138C10.0338 87.8182 10.0369 87.8229 10.0394 87.8279L44.6465 155.669C44.656 155.687 44.6582 155.709 44.6525 155.729C44.6469 155.749 44.6338 155.766 44.616 155.777C44.5981 155.788 44.5769 155.791 44.5564 155.787C44.536 155.783 44.5179 155.771 44.5058 155.754C43.7675 154.721 41.7873 155.129 40.2598 155.945C38.8296 156.709 37.4749 158.017 37.8352 159.106C37.841 159.121 37.8463 159.136 37.8511 159.151H37.851C37.8542 159.162 37.8558 159.169 37.8562 159.174C37.8571 159.186 37.8555 159.197 37.8518 159.208C37.848 159.218 37.8421 159.228 37.8343 159.237C37.8266 159.245 37.8172 159.252 37.8068 159.256C37.7963 159.261 37.7851 159.263 37.7737 159.263ZM3.18539 91.1614C4.60506 93.9187 34.6257 152.232 37.6166 158.615C37.6497 158.224 37.8399 157.805 38.1821 157.376C38.64 156.804 39.3503 156.244 40.182 155.799C41.567 155.059 43.3196 154.656 44.274 155.302L9.89623 87.9107C9.17223 87.0168 7.41343 87.2819 5.98856 87.9424C3.83522 88.9407 3.02755 90.3076 3.18539 91.1614Z" fill="black"/>
<path d="M46.1289 166.656C46.1277 166.646 46.1266 166.632 46.1254 166.625L46.1256 166.625L44.5728 155.706C43.8287 154.247 41.7219 155.159 40.6331 155.677C39.3815 156.298 36.9043 157.84 37.9559 159.424C40.5374 161.897 43.1185 164.37 45.6997 166.842L45.6996 166.842C45.7802 166.928 45.9203 166.942 46.0171 166.876C46.053 166.852 46.0822 166.819 46.1018 166.781C46.1214 166.742 46.1307 166.7 46.1289 166.656Z" fill="black"/>
<path d="M45.8799 167C45.791 167 45.702 166.966 45.6394 166.899L37.8988 159.484C37.8944 159.48 37.8905 159.475 37.8871 159.47C37.6304 159.083 37.558 158.672 37.6719 158.247C38.0048 157.005 39.828 155.985 40.5964 155.604C41.4812 155.182 43.8284 154.065 44.6464 155.669C44.6505 155.677 44.6533 155.686 44.6546 155.695L46.2074 166.614L46.2099 166.637L46.211 166.648L46.2114 166.652C46.2178 166.767 46.1592 166.882 46.0621 166.945C46.0083 166.982 45.9448 167.001 45.8799 167ZM38.0197 159.371L45.7568 166.783C45.8121 166.842 45.9065 166.852 45.9702 166.808C46.0191 166.776 46.0489 166.719 46.0465 166.663L46.0455 166.653C46.0449 166.648 46.0444 166.642 46.0437 166.638L44.4929 155.732C43.82 154.439 41.9891 155.124 40.6685 155.752C40.0859 156.041 38.1558 157.08 37.8314 158.29C37.731 158.664 37.7944 159.028 38.0197 159.371Z" fill="black"/>
<path d="M44.5728 155.705C43.5717 153.573 39.4996 155.915 38.4981 157.152C37.6156 158.076 37.4519 158.94 37.9562 159.424L43.8972 165.115C43.4233 164.479 45.4819 163.362 45.7727 164.143C45.3291 161.022 44.8735 156.388 44.5728 155.705Z" fill="white"/>
<path d="M43.8973 165.198C43.876 165.198 43.8555 165.19 43.8401 165.175L37.8991 159.483C37.3379 158.946 37.5446 158.031 38.4385 157.095C38.8376 156.602 39.6753 155.978 40.5679 155.51C41.189 155.185 42.3788 154.658 43.3693 154.778C43.9739 154.852 44.404 155.152 44.6476 155.671L44.6484 155.672C44.8504 156.131 45.1044 158.198 45.3986 160.59C45.5476 161.803 45.7017 163.057 45.8546 164.131C45.8574 164.152 45.8528 164.172 45.8414 164.189C45.8301 164.206 45.8129 164.218 45.7931 164.223C45.7734 164.228 45.7524 164.226 45.7343 164.216C45.7162 164.207 45.7023 164.191 45.6953 164.172C45.6477 164.044 45.5366 163.973 45.3651 163.96C44.9127 163.928 44.1812 164.32 43.9669 164.711C43.8916 164.849 43.8904 164.968 43.9635 165.066C43.9726 165.078 43.9782 165.093 43.9796 165.108C43.9809 165.123 43.978 165.139 43.9712 165.152C43.9643 165.166 43.9538 165.178 43.9407 165.186C43.9277 165.194 43.9126 165.198 43.8973 165.198ZM43.0682 154.926C41.4896 154.926 39.2563 156.347 38.5624 157.204C37.7344 158.071 37.5257 158.897 38.0135 159.364L43.7467 164.857C43.7547 164.784 43.7799 164.709 43.8223 164.632C44.0702 164.18 44.8554 163.759 45.3773 163.796C45.4844 163.803 45.5765 163.83 45.6517 163.874C45.5117 162.864 45.3712 161.72 45.2348 160.611C44.9546 158.331 44.6899 156.178 44.4978 155.74C44.2799 155.277 43.8937 155.008 43.3495 154.942C43.2562 154.931 43.1622 154.926 43.0682 154.926Z" fill="black"/>
</g>
<defs>
<linearGradient id="paint0_linear_1687_1717" x1="143.095" y1="39.7242" x2="-112.308" y2="223.552" gradientUnits="userSpaceOnUse">
<stop stop-color="#701AFF"/>
<stop offset="1" stop-color="#FE557A"/>
</linearGradient>
<linearGradient id="paint1_linear_1687_1717" x1="114.756" y1="3.34513" x2="47.2645" y2="82.3601" gradientUnits="userSpaceOnUse">
<stop stop-color="#B246FF"/>
<stop offset="1" stop-color="#FF6A8A"/>
</linearGradient>
<clipPath id="clip0_1687_1717">
<rect width="126.684" height="160.387" fill="white" transform="translate(16.4932)"/>
</clipPath>
<clipPath id="clip1_1687_1717">
<rect width="79.4367" height="80.2334" fill="white" transform="translate(37.7666 43.1042)"/>
</clipPath>
<clipPath id="clip2_1687_1717">
<rect width="46.2119" height="86.2888" fill="white" transform="translate(0 80.7112)"/>
</clipPath>
</defs>
</svg>
