<svg width="220" height="178" viewBox="0 0 220 178" fill="none" xmlns="http://www.w3.org/2000/svg">
<g clip-path="url(#clip0_1687_1465)">
<path d="M178.065 60.8128C178.344 60.8962 178.602 61.037 178.824 61.2261C179.045 61.4152 179.225 61.6484 179.351 61.9108C179.477 62.1732 179.547 62.4591 179.556 62.75C179.565 63.041 179.513 63.3307 179.404 63.6005L145.87 149.942C145.642 150.508 145.21 150.969 144.659 151.233C144.109 151.497 143.479 151.546 142.894 151.37L15.1136 111.118C14.8341 111.035 14.5751 110.894 14.3531 110.705C14.1311 110.516 13.9511 110.283 13.8246 110.021C13.698 109.758 13.6278 109.472 13.6183 109.181C13.6089 108.889 13.6604 108.599 13.7696 108.329L47.3031 21.9873C47.5318 21.4203 47.9647 20.9594 48.5165 20.6954C49.0683 20.4314 49.699 20.3834 50.2843 20.5608L178.065 60.8128Z" fill="#DBBEFF"/>
<path d="M144.011 151.556C143.627 151.621 143.232 151.595 142.861 151.479L15.0796 111.227C14.7852 111.139 14.5124 110.991 14.2786 110.792C14.0448 110.593 13.8551 110.347 13.7219 110.07C13.5886 109.794 13.5145 109.492 13.5045 109.185C13.4944 108.878 13.5486 108.573 13.6635 108.288L47.1969 21.9465C47.4373 21.3533 47.8908 20.8712 48.4684 20.5948C49.046 20.3184 49.7061 20.2676 50.3191 20.4524L178.1 60.7044C178.394 60.7926 178.666 60.941 178.899 61.1403C179.133 61.3396 179.322 61.5854 179.454 61.8619C179.587 62.1384 179.661 62.4395 179.67 62.7461C179.68 63.0526 179.626 63.3578 179.511 63.6422L145.977 149.984C145.813 150.393 145.545 150.752 145.201 151.028C144.856 151.303 144.446 151.485 144.011 151.556ZM49.199 20.5996C48.8029 20.6639 48.4301 20.8292 48.1166 21.0797C47.8032 21.3301 47.5597 21.6571 47.4098 22.0291L13.8766 108.371C13.773 108.626 13.7241 108.901 13.7329 109.176C13.7418 109.452 13.8082 109.723 13.928 109.971C14.0478 110.22 14.2182 110.44 14.4284 110.619C14.6386 110.798 14.8838 110.931 15.1484 111.009L142.929 151.261C143.486 151.428 144.086 151.382 144.61 151.13C145.135 150.878 145.546 150.44 145.764 149.901L179.298 63.5594C179.401 63.3041 179.451 63.03 179.442 62.7546C179.434 62.4793 179.368 62.2087 179.248 61.9603C179.129 61.712 178.959 61.4913 178.75 61.3125C178.54 61.1336 178.295 61.0005 178.031 60.9218L50.2503 20.6703C49.9104 20.564 49.5501 20.5398 49.199 20.5996Z" fill="black"/>
<path d="M62.3164 42.6826L48.1611 38.2236L42.8029 52.0196L56.9582 56.4787L62.3164 42.6826Z" fill="white"/>
<path d="M56.9778 56.5917C56.96 56.5947 56.9417 56.5934 56.9245 56.588L42.7692 52.1289C42.7543 52.1242 42.7406 52.1165 42.7288 52.1063C42.717 52.0961 42.7074 52.0835 42.7006 52.0695C42.6939 52.0554 42.6901 52.0401 42.6895 52.0245C42.6888 52.0089 42.6914 51.9934 42.697 51.9788L48.0552 38.1827C48.0657 38.1556 48.0861 38.1336 48.1123 38.121C48.1384 38.1084 48.1684 38.1063 48.1961 38.115L62.3515 42.5741C62.3664 42.5788 62.3802 42.5865 62.392 42.5967C62.4038 42.6069 62.4133 42.6194 62.4201 42.6335C62.4269 42.6476 62.4307 42.6629 62.4313 42.6785C62.4319 42.6941 62.4293 42.7096 62.4237 42.7242L57.0652 56.5205C57.058 56.5389 57.0462 56.5551 57.0309 56.5676C57.0155 56.5801 56.9972 56.5884 56.9778 56.5917ZM42.9544 51.9477L56.8915 56.3379L62.1667 42.7552L48.2296 38.365L42.9544 51.9477Z" fill="black"/>
<path d="M79.834 48.2014L65.6786 43.7424L60.3205 57.5384L74.4758 61.9975L79.834 48.2014Z" fill="#B246FF"/>
<path d="M74.4953 62.1101C74.4775 62.1131 74.4593 62.1118 74.4421 62.1064L60.2868 57.6474C60.2719 57.6427 60.2581 57.635 60.2463 57.6248C60.2345 57.6145 60.225 57.602 60.2182 57.5879C60.2114 57.5739 60.2076 57.5586 60.207 57.543C60.2064 57.5274 60.209 57.5118 60.2146 57.4973L65.5727 43.7012C65.5832 43.6741 65.6037 43.6521 65.6299 43.6395C65.656 43.627 65.686 43.6248 65.7137 43.6336L79.8691 48.0925C79.884 48.0973 79.8977 48.105 79.9095 48.1152C79.9213 48.1254 79.9309 48.1379 79.9376 48.152C79.9444 48.1661 79.9482 48.1814 79.9488 48.197C79.9494 48.2126 79.9468 48.2281 79.9412 48.2427L74.5831 62.0388C74.5759 62.0572 74.564 62.0735 74.5486 62.086C74.5332 62.0985 74.5149 62.1068 74.4953 62.1101ZM60.4718 57.4661L74.4089 61.8561L79.6842 48.2736L65.7471 43.8834L60.4718 57.4661Z" fill="black"/>
<path d="M97.3526 53.7191L83.1972 49.26L77.8391 63.0561L91.9943 67.5151L97.3526 53.7191Z" fill="white"/>
<path d="M92.0129 67.6287C91.9951 67.6317 91.9769 67.6304 91.9597 67.625L77.8044 63.1659C77.7895 63.1612 77.7757 63.1535 77.7639 63.1433C77.7521 63.1331 77.7426 63.1206 77.7358 63.1065C77.729 63.0924 77.7252 63.0771 77.7246 63.0615C77.724 63.046 77.7266 63.0304 77.7322 63.0158L83.0903 49.2197C83.1008 49.1927 83.1212 49.1706 83.1474 49.1581C83.1736 49.1455 83.2036 49.1434 83.2313 49.1521L97.3866 53.6106C97.4014 53.6154 97.4151 53.6232 97.4269 53.6334C97.4386 53.6437 97.4481 53.6562 97.4548 53.6703C97.4615 53.6844 97.4653 53.6997 97.4658 53.7152C97.4664 53.7308 97.4638 53.7463 97.4581 53.7609L92.1006 67.5573C92.0935 67.5758 92.0816 67.5921 92.0662 67.6046C92.0508 67.6172 92.0325 67.6255 92.0129 67.6287ZM77.9898 62.9843L91.9269 67.3745L97.2015 53.7922L83.2644 49.4019L77.9898 62.9843Z" fill="black"/>
<path d="M114.865 59.2367L100.71 54.7776L95.3518 68.5737L109.507 73.0328L114.865 59.2367Z" fill="white"/>
<path d="M109.527 73.1445C109.51 73.1475 109.491 73.1463 109.474 73.1409L95.3185 68.6819C95.3037 68.6771 95.29 68.6693 95.2783 68.6591C95.2665 68.6488 95.257 68.6363 95.2503 68.6222C95.2436 68.6081 95.2399 68.5928 95.2393 68.5773C95.2387 68.5617 95.2414 68.5462 95.247 68.5317L100.605 54.7354C100.615 54.7084 100.636 54.6863 100.662 54.6738C100.688 54.6612 100.718 54.6591 100.746 54.6678L114.901 59.1267C114.916 59.1314 114.93 59.1391 114.942 59.1494C114.953 59.1596 114.963 59.1721 114.97 59.1862C114.977 59.2002 114.98 59.2155 114.981 59.2311C114.982 59.2467 114.979 59.2623 114.973 59.2768L109.615 73.0732C109.608 73.0917 109.596 73.108 109.581 73.1205C109.565 73.133 109.547 73.1413 109.527 73.1445ZM95.5037 68.5005L109.441 72.8907L114.716 59.3081L100.779 54.918L95.5037 68.5005Z" fill="black"/>
<path d="M132.385 64.7543L118.229 60.2952L112.871 74.0913L127.027 78.5504L132.385 64.7543Z" fill="#B246FF"/>
<path d="M127.044 78.663C127.026 78.666 127.008 78.6647 126.991 78.6593L112.836 74.2002C112.821 74.1955 112.807 74.1878 112.795 74.1776C112.783 74.1674 112.774 74.1548 112.767 74.1408C112.76 74.1267 112.756 74.1114 112.756 74.0958C112.755 74.0802 112.758 74.0647 112.763 74.0501L118.122 60.254C118.132 60.2269 118.152 60.2049 118.179 60.1923C118.205 60.1797 118.235 60.1776 118.263 60.1863L132.418 64.6454C132.433 64.6501 132.446 64.6578 132.458 64.668C132.47 64.6782 132.48 64.6908 132.486 64.7048C132.493 64.7189 132.497 64.7342 132.498 64.7498C132.498 64.7654 132.496 64.7809 132.49 64.7955L127.132 78.5915C127.125 78.61 127.113 78.6263 127.097 78.6389C127.082 78.6514 127.064 78.6598 127.044 78.663ZM113.021 74.019L126.958 78.4091L132.233 64.8265L118.296 60.4363L113.021 74.019Z" fill="black"/>
<path d="M149.897 70.2711L135.747 65.8137L130.389 79.6097L144.539 84.0672L149.897 70.2711Z" fill="white"/>
<path d="M144.558 84.1798C144.54 84.1828 144.522 84.1815 144.505 84.1761L130.355 79.7187C130.34 79.714 130.326 79.7063 130.315 79.696C130.303 79.6858 130.293 79.6733 130.287 79.6592C130.28 79.6452 130.276 79.6299 130.275 79.6143C130.275 79.5987 130.277 79.5831 130.283 79.5686L135.641 65.7725C135.652 65.7454 135.672 65.7234 135.698 65.7108C135.724 65.6983 135.754 65.6961 135.782 65.7049L149.932 70.1622C149.947 70.1669 149.961 70.1746 149.973 70.1848C149.984 70.195 149.994 70.2076 150.001 70.2216C150.007 70.2357 150.011 70.251 150.012 70.2666C150.012 70.2822 150.01 70.2977 150.004 70.3123L144.646 84.1084C144.639 84.1269 144.627 84.1433 144.611 84.1558C144.596 84.1683 144.577 84.1766 144.558 84.1798ZM130.54 79.5374L144.471 83.926L149.746 70.3436L135.815 65.955L130.54 79.5374Z" fill="black"/>
<path d="M167.415 75.7893L153.26 71.3303L147.902 85.1264L162.057 89.5854L167.415 75.7893Z" fill="white"/>
<path d="M162.076 89.6987C162.059 89.7017 162.04 89.7004 162.023 89.695L147.868 85.236C147.853 85.2313 147.839 85.2236 147.827 85.2134C147.816 85.2031 147.806 85.1906 147.799 85.1765C147.792 85.1625 147.789 85.1472 147.788 85.1316C147.787 85.116 147.79 85.1005 147.796 85.0859L153.154 71.2898C153.164 71.2627 153.185 71.2407 153.211 71.2281C153.237 71.2156 153.267 71.2135 153.295 71.2222L167.45 75.6812C167.465 75.6859 167.479 75.6936 167.491 75.7038C167.502 75.714 167.512 75.7266 167.519 75.7406C167.525 75.7547 167.529 75.77 167.53 75.7856C167.53 75.8012 167.528 75.8167 167.522 75.8313L162.164 89.6274C162.157 89.6459 162.145 89.6622 162.13 89.6747C162.114 89.6872 162.096 89.6955 162.076 89.6987ZM148.053 85.0547L161.99 89.4449L167.265 75.8619L153.328 71.4717L148.053 85.0547Z" fill="black"/>
<path d="M55.8868 59.2369L41.7314 54.7778L36.3733 68.5739L50.5287 73.033L55.8868 59.2369Z" fill="white"/>
<path d="M50.548 73.1453C50.5303 73.1483 50.5121 73.147 50.4949 73.1415L36.3395 68.6825C36.3246 68.6778 36.3109 68.6701 36.2991 68.6598C36.2873 68.6496 36.2777 68.6371 36.2709 68.623C36.2642 68.609 36.2604 68.5937 36.2597 68.5781C36.2591 68.5625 36.2617 68.5469 36.2673 68.5324L41.6256 54.7364C41.6361 54.7093 41.6565 54.6873 41.6826 54.6747C41.7088 54.6621 41.7388 54.66 41.7664 54.6687L55.9218 59.1277C55.9367 59.1324 55.9505 59.1401 55.9623 59.1504C55.9741 59.1606 55.9837 59.1731 55.9904 59.1872C55.9972 59.2012 56.001 59.2165 56.0016 59.2321C56.0022 59.2477 55.9996 59.2633 55.994 59.2778L50.6358 73.0738C50.6286 73.0923 50.6167 73.1086 50.6014 73.1212C50.586 73.1337 50.5676 73.142 50.548 73.1453ZM36.5249 68.5011L50.462 72.8913L55.7372 59.3088L41.8 54.9192L36.5249 68.5011Z" fill="black"/>
<path d="M73.4053 64.7552L59.2499 60.2962L53.8918 74.0923L68.0471 78.5514L73.4053 64.7552Z" fill="white"/>
<path d="M68.0661 78.664C68.0483 78.667 68.03 78.6657 68.0128 78.6603L53.8571 74.2013C53.8422 74.1966 53.8284 74.1889 53.8166 74.1787C53.8049 74.1684 53.7953 74.1559 53.7885 74.1419C53.7818 74.1278 53.7779 74.1125 53.7773 74.0969C53.7767 74.0813 53.7793 74.0658 53.7849 74.0512L59.1431 60.2551C59.1537 60.228 59.1741 60.206 59.2002 60.1935C59.2264 60.1809 59.2564 60.1788 59.284 60.1875L73.4394 64.6466C73.4543 64.6513 73.4681 64.659 73.4799 64.6692C73.4917 64.6794 73.5012 64.6919 73.508 64.706C73.5148 64.7201 73.5186 64.7354 73.5192 64.751C73.5198 64.7665 73.5172 64.7821 73.5116 64.7967L68.1537 78.5927C68.1465 78.6112 68.1347 78.6274 68.1193 78.6399C68.104 78.6525 68.0856 78.6607 68.0661 78.664ZM54.0427 74.0199L67.9798 78.4102L73.255 64.8275L59.318 60.4373L54.0427 74.0199Z" fill="black"/>
<path d="M90.9239 70.2737L76.7685 65.8147L71.4104 79.6107L85.5658 84.0698L90.9239 70.2737Z" fill="white"/>
<path d="M85.5842 84.1824C85.5664 84.1854 85.5482 84.1841 85.531 84.1787L71.3757 79.7197C71.3608 79.715 71.347 79.7073 71.3352 79.6971C71.3234 79.6868 71.3138 79.6743 71.3071 79.6603C71.3003 79.6462 71.2965 79.6309 71.2959 79.6153C71.2953 79.5997 71.2979 79.5841 71.3035 79.5696L76.6617 65.7735C76.6722 65.7464 76.6926 65.7244 76.7188 65.7118C76.7449 65.6992 76.7749 65.6971 76.8026 65.7058L90.958 70.1648C90.9729 70.1695 90.9866 70.1772 90.9984 70.1875C91.0102 70.1977 91.0198 70.2102 91.0265 70.2243C91.0333 70.2383 91.0371 70.2536 91.0377 70.2692C91.0384 70.2848 91.0358 70.3004 91.0301 70.3149L85.6719 84.1111C85.6647 84.1295 85.6529 84.1458 85.6375 84.1583C85.6221 84.1708 85.6037 84.1791 85.5842 84.1824ZM71.5608 79.5384L85.4979 83.9286L90.7731 70.3459L76.8361 65.9557L71.5608 79.5384Z" fill="black"/>
<path d="M108.436 75.7903L94.2812 71.3313L88.9231 85.1274L103.078 89.5864L108.436 75.7903Z" fill="white"/>
<path d="M103.097 89.6992C103.079 89.7022 103.061 89.7009 103.044 89.6954L88.8893 85.2362C88.8744 85.2315 88.8607 85.2238 88.8489 85.2136C88.8371 85.2034 88.8275 85.1909 88.8208 85.1768C88.814 85.1627 88.8102 85.1474 88.8096 85.1319C88.8089 85.1163 88.8115 85.1007 88.8172 85.0862L94.1753 71.2901C94.1858 71.263 94.2062 71.2409 94.2324 71.2284C94.2586 71.2158 94.2886 71.2137 94.3163 71.2224L108.471 75.6814C108.486 75.6861 108.5 75.6938 108.511 75.704C108.523 75.7143 108.533 75.7268 108.54 75.7408C108.546 75.7549 108.55 75.7702 108.551 75.7858C108.551 75.8014 108.549 75.8169 108.543 75.8315L103.185 89.6277C103.178 89.6462 103.166 89.6625 103.151 89.6751C103.135 89.6876 103.117 89.6959 103.097 89.6992ZM89.0738 85.0551L103.011 89.4453L108.286 75.8627L94.3491 71.4725L89.0738 85.0551Z" fill="black"/>
<path d="M125.955 81.3089L111.8 76.8499L106.442 90.646L120.597 95.105L125.955 81.3089Z" fill="white"/>
<path d="M120.616 95.2175C120.598 95.2204 120.58 95.2192 120.562 95.2138L106.407 90.7548C106.392 90.7501 106.378 90.7424 106.366 90.7322C106.355 90.7219 106.345 90.7094 106.338 90.6953C106.332 90.6813 106.328 90.666 106.327 90.6504C106.327 90.6348 106.329 90.6192 106.335 90.6047L111.693 76.8083C111.703 76.7813 111.724 76.7592 111.75 76.7467C111.776 76.7341 111.806 76.732 111.834 76.7407L125.99 81.2001C126.005 81.2048 126.018 81.2125 126.03 81.2228C126.042 81.233 126.051 81.2455 126.058 81.2596C126.065 81.2736 126.069 81.2889 126.069 81.3045C126.07 81.3201 126.067 81.3357 126.062 81.3502L120.703 95.1462C120.696 95.1646 120.684 95.1809 120.669 95.1934C120.653 95.2059 120.635 95.2142 120.616 95.2175ZM106.592 90.5739L120.529 94.9641L125.804 81.3816L111.867 76.9908L106.592 90.5739Z" fill="black"/>
<path d="M143.468 86.8259L129.318 82.3684L123.96 96.1645L138.11 100.622L143.468 86.8259Z" fill="#B246FF"/>
<path d="M138.129 100.734C138.111 100.737 138.093 100.736 138.075 100.731L123.925 96.2733C123.911 96.2686 123.897 96.2609 123.885 96.2507C123.873 96.2404 123.864 96.2279 123.857 96.2139C123.85 96.1998 123.846 96.1845 123.846 96.1689C123.845 96.1533 123.848 96.1377 123.853 96.1232L129.212 82.3272C129.222 82.3001 129.242 82.2781 129.269 82.2655C129.295 82.253 129.325 82.2508 129.352 82.2595L143.502 86.7169C143.517 86.7216 143.531 86.7293 143.543 86.7395C143.555 86.7498 143.564 86.7623 143.571 86.7763C143.578 86.7904 143.582 86.8057 143.582 86.8213C143.583 86.8369 143.58 86.8524 143.575 86.867L138.216 100.663C138.209 100.682 138.197 100.698 138.182 100.71C138.167 100.723 138.148 100.731 138.129 100.734ZM124.111 96.0919L138.042 100.481L143.317 86.8979L129.386 82.5094L124.111 96.0919Z" fill="black"/>
<path d="M160.985 92.3441L146.83 87.885L141.472 101.681L155.627 106.14L160.985 92.3441Z" fill="white"/>
<path d="M155.647 106.253C155.629 106.256 155.611 106.254 155.593 106.249L141.438 101.79C141.423 101.785 141.409 101.777 141.398 101.767C141.386 101.757 141.376 101.744 141.37 101.73C141.363 101.716 141.359 101.701 141.358 101.685C141.358 101.67 141.36 101.654 141.366 101.64L146.724 87.8438C146.735 87.8167 146.755 87.7947 146.781 87.7821C146.807 87.7695 146.837 87.7674 146.865 87.7762L161.02 92.2351C161.035 92.2398 161.049 92.2475 161.061 92.2578C161.073 92.268 161.082 92.2805 161.089 92.2946C161.096 92.3086 161.1 92.3239 161.1 92.3395C161.101 92.3551 161.098 92.3707 161.093 92.3852L155.734 106.181C155.727 106.2 155.715 106.216 155.7 106.229C155.685 106.241 155.666 106.249 155.647 106.253ZM141.623 101.609L155.56 105.999L160.836 92.4162L146.898 88.026L141.623 101.609Z" fill="black"/>
<path d="M49.4581 75.7914L35.3028 71.3323L29.9446 85.1284L44.0999 89.5874L49.4581 75.7914Z" fill="white"/>
<path d="M44.1183 89.6999C44.1005 89.7029 44.0823 89.7016 44.0651 89.6962L29.9098 85.2375C29.8949 85.2328 29.8812 85.225 29.8694 85.2148C29.8576 85.2046 29.848 85.1921 29.8413 85.178C29.8345 85.1639 29.8307 85.1486 29.8301 85.133C29.8295 85.1175 29.8321 85.1019 29.8377 85.0874L35.1958 71.291C35.2063 71.264 35.2267 71.2419 35.2529 71.2294C35.2791 71.2168 35.3091 71.2147 35.3368 71.2234L49.4921 75.6824C49.5069 75.6871 49.5207 75.6948 49.5325 75.705C49.5443 75.7152 49.5539 75.7278 49.5606 75.7418C49.5674 75.7559 49.5712 75.7712 49.5718 75.7868C49.5724 75.8024 49.5699 75.8179 49.5642 75.8325L44.2062 89.6288C44.1989 89.6473 44.187 89.6635 44.1716 89.676C44.1562 89.6885 44.1378 89.6967 44.1183 89.6999ZM30.0949 85.0559L44.032 89.4461L49.3072 75.8635L35.3701 71.4733L30.0949 85.0559Z" fill="black"/>
<path d="M66.9756 81.3099L52.8204 76.8508L47.4621 90.6469L61.6175 95.1059L66.9756 81.3099Z" fill="#B246FF"/>
<path d="M61.6368 95.2184C61.6191 95.2213 61.6009 95.22 61.5837 95.2146L47.4284 90.756C47.4135 90.7513 47.3997 90.7436 47.3879 90.7334C47.3761 90.7232 47.3666 90.7106 47.3598 90.6966C47.353 90.6825 47.3492 90.6672 47.3486 90.6516C47.348 90.636 47.3506 90.6205 47.3562 90.6059L52.7144 76.8098C52.725 76.7828 52.7454 76.7607 52.7716 76.7481C52.7978 76.7356 52.8277 76.7335 52.8554 76.7422L67.0106 81.2007C67.0255 81.2054 67.0393 81.2131 67.0511 81.2234C67.0629 81.2336 67.0724 81.2461 67.0792 81.2602C67.086 81.2742 67.0898 81.2895 67.0904 81.3051C67.091 81.3207 67.0884 81.3363 67.0828 81.3508L61.7246 95.1469C61.7174 95.1654 61.7056 95.1817 61.6902 95.1943C61.6748 95.2068 61.6564 95.2151 61.6368 95.2184ZM47.6139 90.5744L61.551 94.9646L66.8255 81.3823L52.8884 76.9921L47.6139 90.5744Z" fill="black"/>
<path d="M84.4942 86.8275L70.3389 82.3684L64.9807 96.1645L79.1361 100.624L84.4942 86.8275Z" fill="#B246FF"/>
<path d="M79.1545 100.738C79.1367 100.741 79.1185 100.739 79.1014 100.734L64.9454 96.2744C64.9306 96.2696 64.9169 96.2619 64.9052 96.2516C64.8934 96.2413 64.8839 96.2288 64.8772 96.2147C64.8705 96.2007 64.8668 96.1854 64.8662 96.1698C64.8657 96.1542 64.8683 96.1387 64.8739 96.1242L70.2321 82.3282C70.2426 82.3011 70.263 82.2791 70.2892 82.2665C70.3154 82.2539 70.3453 82.2517 70.3731 82.2605L84.5283 86.7196C84.5432 86.7243 84.557 86.732 84.5688 86.7422C84.5806 86.7524 84.5902 86.7649 84.5969 86.779C84.6037 86.7931 84.6075 86.8084 84.6081 86.824C84.6087 86.8396 84.6061 86.8551 84.6005 86.8697L79.2421 100.666C79.235 100.684 79.2231 100.701 79.2078 100.713C79.1924 100.726 79.1741 100.734 79.1545 100.738ZM65.131 96.093L79.0681 100.483L84.3434 86.9006L70.4063 82.5104L65.131 96.093Z" fill="black"/>
<path d="M102.007 92.3441L87.8515 87.885L82.4934 101.681L96.6487 106.14L102.007 92.3441Z" fill="white"/>
<path d="M96.6672 106.254C96.6494 106.257 96.6312 106.255 96.614 106.25L82.4587 101.791C82.4438 101.786 82.43 101.779 82.4182 101.768C82.4064 101.758 82.3969 101.746 82.3901 101.732C82.3833 101.718 82.3795 101.702 82.3789 101.687C82.3783 101.671 82.3809 101.655 82.3865 101.641L87.7446 87.8448C87.7551 87.8178 87.7755 87.7957 87.8017 87.7831C87.8279 87.7705 87.8579 87.7684 87.8856 87.7771L102.041 92.2362C102.056 92.2409 102.07 92.2486 102.081 92.2588C102.093 92.2691 102.103 92.2816 102.11 92.2957C102.116 92.3097 102.12 92.325 102.121 92.3406C102.121 92.3562 102.119 92.3717 102.113 92.3863L96.7549 106.182C96.7478 106.201 96.7359 106.217 96.7205 106.23C96.7051 106.242 96.6868 106.251 96.6672 106.254ZM82.6438 101.61L96.5809 106L101.855 92.4175L87.9183 88.0273L82.6438 101.61Z" fill="black"/>
<path d="M119.525 97.8625L105.37 93.4036L100.012 107.2L114.167 111.659L119.525 97.8625Z" fill="white"/>
<path d="M114.186 111.772C114.168 111.775 114.15 111.774 114.133 111.769L99.9782 107.309C99.9633 107.305 99.9495 107.297 99.9377 107.287C99.9259 107.277 99.9164 107.264 99.9096 107.25C99.9028 107.236 99.899 107.221 99.8984 107.205C99.8978 107.189 99.9004 107.174 99.906 107.159L105.264 93.3632C105.275 93.3362 105.295 93.3142 105.321 93.3016C105.347 93.2891 105.377 93.2869 105.405 93.2956L119.56 97.7545C119.575 97.7592 119.589 97.7669 119.6 97.7771C119.612 97.7873 119.622 97.7999 119.628 97.8139C119.635 97.828 119.639 97.8433 119.64 97.8589C119.64 97.8745 119.638 97.89 119.632 97.9046L114.274 111.701C114.267 111.719 114.255 111.736 114.239 111.748C114.224 111.761 114.206 111.769 114.186 111.772ZM100.163 107.128L114.1 111.518L119.375 97.9358L105.438 93.5456L100.163 107.128Z" fill="black"/>
<path d="M137.038 103.379L122.888 98.9221L117.53 112.718L131.68 117.176L137.038 103.379Z" fill="white"/>
<path d="M131.699 117.289C131.681 117.292 131.663 117.29 131.646 117.285L117.496 112.827C117.481 112.823 117.467 112.815 117.455 112.805C117.444 112.795 117.434 112.782 117.427 112.768C117.42 112.754 117.417 112.739 117.416 112.723C117.415 112.707 117.418 112.692 117.424 112.677L122.782 98.8808C122.792 98.8538 122.813 98.8318 122.839 98.8192C122.865 98.8067 122.895 98.8045 122.923 98.8132L137.073 103.271C137.088 103.275 137.101 103.283 137.113 103.293C137.125 103.303 137.135 103.316 137.141 103.33C137.148 103.344 137.152 103.359 137.152 103.375C137.153 103.391 137.151 103.406 137.145 103.421L131.787 117.217C131.78 117.235 131.768 117.252 131.752 117.264C131.737 117.277 131.719 117.285 131.699 117.289ZM117.681 112.646L131.612 117.035L136.888 103.452L122.956 99.0635L117.681 112.646Z" fill="black"/>
<path d="M154.557 108.898L140.401 104.439L135.043 118.235L149.198 122.694L154.557 108.898Z" fill="white"/>
<path d="M149.218 122.807C149.2 122.81 149.182 122.809 149.165 122.804L135.009 118.345C134.995 118.34 134.981 118.332 134.969 118.322C134.957 118.312 134.948 118.299 134.941 118.285C134.934 118.271 134.93 118.256 134.93 118.24C134.929 118.225 134.932 118.209 134.937 118.195L140.295 104.398C140.306 104.371 140.326 104.349 140.353 104.337C140.379 104.324 140.409 104.322 140.436 104.331L154.592 108.79C154.606 108.794 154.62 108.802 154.632 108.812C154.644 108.822 154.653 108.835 154.66 108.849C154.667 108.863 154.671 108.878 154.671 108.894C154.672 108.91 154.669 108.925 154.664 108.94L149.306 122.736C149.299 122.754 149.287 122.771 149.271 122.783C149.256 122.796 149.237 122.804 149.218 122.807ZM135.194 118.163L149.132 122.554L154.407 108.971L140.47 104.581L135.194 118.163Z" fill="black"/>
<path d="M43.0282 92.345L28.873 87.886L23.5148 101.682L37.6701 106.141L43.0282 92.345Z" fill="white"/>
<path d="M37.6895 106.254C37.6718 106.257 37.6536 106.255 37.6364 106.25L23.4811 101.791C23.4663 101.786 23.4525 101.779 23.4407 101.768C23.4289 101.758 23.4193 101.746 23.4126 101.732C23.4058 101.718 23.402 101.702 23.4014 101.687C23.4008 101.671 23.4033 101.655 23.409 101.641L28.7671 87.8448C28.7776 87.8178 28.798 87.7957 28.8242 87.7831C28.8504 87.7705 28.8803 87.7684 28.9081 87.7771L43.0633 92.236C43.0782 92.2407 43.0919 92.2484 43.1037 92.2586C43.1155 92.2688 43.1251 92.2813 43.1319 92.2954C43.1386 92.3095 43.1424 92.3248 43.1431 92.3404C43.1437 92.356 43.1411 92.3715 43.1355 92.3861L37.7771 106.182C37.7699 106.201 37.7581 106.217 37.7427 106.23C37.7274 106.242 37.7091 106.25 37.6895 106.254ZM23.6662 101.61L37.6032 106L42.8785 92.4173L28.9414 88.0271L23.6662 101.61Z" fill="black"/>
<path d="M60.5469 97.8635L46.3916 93.4045L41.0334 107.201L55.1888 111.66L60.5469 97.8635Z" fill="white"/>
<path d="M55.2071 111.772C55.1894 111.775 55.1712 111.774 55.154 111.769L40.9986 107.31C40.9837 107.305 40.97 107.297 40.9582 107.287C40.9464 107.277 40.9369 107.264 40.9301 107.25C40.9233 107.236 40.9196 107.221 40.9189 107.205C40.9183 107.189 40.9209 107.174 40.9266 107.159L46.2847 93.3633C46.2952 93.3362 46.3156 93.3142 46.3418 93.3016C46.368 93.2891 46.398 93.2869 46.4257 93.2957L60.5809 97.7546C60.5958 97.7593 60.6096 97.767 60.6214 97.7772C60.6332 97.7874 60.6427 97.7999 60.6495 97.814C60.6562 97.8281 60.6601 97.8434 60.6607 97.8589C60.6613 97.8745 60.6587 97.8901 60.6531 97.9046L55.295 111.701C55.2878 111.719 55.2759 111.736 55.2605 111.748C55.2451 111.761 55.2267 111.769 55.2071 111.772ZM41.1838 107.128L55.1209 111.518L60.3961 97.9358L46.459 93.5456L41.1838 107.128Z" fill="black"/>
<path d="M78.0644 103.382L63.9091 98.9231L58.551 112.719L72.7063 117.178L78.0644 103.382Z" fill="white"/>
<path d="M72.7248 117.29C72.707 117.293 72.6889 117.292 72.6717 117.287L58.5164 112.828C58.5015 112.823 58.4877 112.815 58.4759 112.805C58.4642 112.795 58.4546 112.782 58.4478 112.768C58.4411 112.754 58.4372 112.739 58.4366 112.723C58.436 112.708 58.4386 112.692 58.4442 112.678L63.8022 98.8809C63.8127 98.8538 63.8332 98.8318 63.8593 98.8192C63.8855 98.8067 63.9155 98.8045 63.9432 98.8133L78.0985 103.272C78.1134 103.277 78.1271 103.285 78.1389 103.295C78.1507 103.305 78.1603 103.318 78.1671 103.332C78.1738 103.346 78.1776 103.361 78.1782 103.377C78.1789 103.392 78.1763 103.408 78.1706 103.422L72.8127 117.219C72.8055 117.238 72.7936 117.254 72.7782 117.266C72.7628 117.279 72.7444 117.287 72.7248 117.29ZM58.7019 112.646L72.6389 117.037L77.9142 103.454L63.9771 99.0638L58.7019 112.646Z" fill="black"/>
<path d="M95.5782 108.899L81.4229 104.44L76.0647 118.236L90.2201 122.695L95.5782 108.899Z" fill="white"/>
<path d="M90.2387 122.808C90.221 122.811 90.2028 122.809 90.1856 122.804L76.03 118.345C76.0151 118.34 76.0013 118.332 75.9895 118.322C75.9777 118.312 75.9682 118.299 75.9614 118.285C75.9546 118.271 75.9508 118.256 75.9502 118.24C75.9496 118.225 75.9522 118.209 75.9578 118.195L81.3161 104.398C81.3266 104.371 81.3471 104.349 81.3732 104.337C81.3994 104.324 81.4294 104.322 81.4571 104.331L95.6127 108.79C95.6276 108.795 95.6414 108.802 95.6532 108.812C95.665 108.823 95.6745 108.835 95.6813 108.849C95.6881 108.863 95.6919 108.879 95.6925 108.894C95.6931 108.91 95.6905 108.925 95.6849 108.94L90.3262 122.736C90.3191 122.755 90.3073 122.771 90.2919 122.783C90.2766 122.796 90.2583 122.804 90.2387 122.808ZM76.2151 118.164L90.1522 122.554L95.4274 108.971L81.4903 104.581L76.2151 118.164Z" fill="black"/>
<path d="M113.096 114.417L98.9405 109.958L93.5822 123.754L107.738 128.213L113.096 114.417Z" fill="white"/>
<path d="M107.757 128.326C107.739 128.329 107.721 128.328 107.703 128.322L93.548 123.863C93.5332 123.859 93.5194 123.851 93.5077 123.841C93.496 123.83 93.4865 123.818 93.4798 123.804C93.4731 123.79 93.4693 123.774 93.4688 123.759C93.4682 123.743 93.4708 123.728 93.4765 123.713L98.8346 109.917C98.8451 109.89 98.8655 109.868 98.8917 109.855C98.9179 109.843 98.9479 109.841 98.9756 109.849L113.13 114.308C113.145 114.313 113.159 114.321 113.171 114.331C113.183 114.341 113.192 114.354 113.199 114.368C113.206 114.382 113.209 114.397 113.21 114.413C113.211 114.428 113.208 114.444 113.202 114.458L107.844 128.255C107.837 128.273 107.825 128.289 107.81 128.302C107.795 128.315 107.776 128.323 107.757 128.326ZM93.7331 123.682L107.67 128.072L112.945 114.49L99.0083 110.099L93.7331 123.682Z" fill="black"/>
<path d="M130.609 119.934L116.459 115.477L111.101 129.273L125.251 133.73L130.609 119.934Z" fill="white"/>
<path d="M125.27 133.843C125.252 133.846 125.234 133.845 125.216 133.839L111.067 129.382C111.052 129.377 111.038 129.369 111.027 129.359C111.015 129.349 111.005 129.336 110.998 129.322C110.992 129.308 110.988 129.293 110.987 129.277C110.987 129.262 110.989 129.246 110.995 129.232L116.353 115.436C116.364 115.409 116.384 115.387 116.41 115.374C116.436 115.361 116.466 115.359 116.494 115.368L130.644 119.825C130.659 119.83 130.673 119.838 130.684 119.848C130.696 119.858 130.706 119.871 130.713 119.885C130.719 119.899 130.723 119.914 130.724 119.93C130.724 119.945 130.722 119.961 130.716 119.975L125.358 133.772C125.351 133.79 125.339 133.807 125.323 133.819C125.308 133.832 125.289 133.84 125.27 133.843ZM111.252 129.201L125.183 133.589L130.458 120.007L116.527 115.618L111.252 129.201Z" fill="black"/>
<path d="M148.127 125.452L133.972 120.993L128.613 134.79L142.769 139.249L148.127 125.452Z" fill="#B246FF"/>
<path d="M142.788 139.362C142.77 139.365 142.752 139.363 142.735 139.358L128.579 134.899C128.564 134.894 128.551 134.886 128.539 134.876C128.527 134.866 128.517 134.853 128.511 134.839C128.504 134.825 128.5 134.81 128.499 134.794C128.499 134.779 128.501 134.763 128.507 134.749L133.865 120.953C133.876 120.926 133.896 120.904 133.922 120.891C133.949 120.879 133.978 120.876 134.006 120.885L148.162 125.344C148.176 125.349 148.19 125.357 148.202 125.367C148.214 125.377 148.223 125.39 148.23 125.404C148.237 125.418 148.241 125.433 148.241 125.449C148.242 125.464 148.239 125.48 148.234 125.494L142.876 139.29C142.868 139.309 142.856 139.325 142.841 139.338C142.826 139.35 142.807 139.358 142.788 139.362ZM128.764 134.718L142.701 139.108L147.977 125.525L134.04 121.135L128.764 134.718ZM67.5855 33.9749C67.2765 33.8817 66.9438 33.9076 66.6529 34.0476C66.3621 34.1875 66.1343 34.4314 66.0145 34.7309C65.9564 34.8733 65.9287 35.0263 65.9333 35.18C65.9378 35.3337 65.9745 35.4848 66.0409 35.6235C66.1074 35.7622 66.2021 35.8854 66.319 35.9854C66.436 36.0853 66.5725 36.1597 66.7199 36.2037C67.0294 36.2973 67.3627 36.2718 67.6543 36.1322C67.9459 35.9926 68.1748 35.7492 68.2959 35.4496C68.3536 35.3067 68.3807 35.1533 68.3757 34.9993C68.3707 34.8454 68.3335 34.6941 68.2667 34.5553C68.1998 34.4165 68.1047 34.2932 67.9874 34.1933C67.8701 34.0933 67.7332 34.0189 67.5855 33.9749Z" fill="black"/>
<path d="M67.3212 36.355C67.1091 36.3911 66.8914 36.3765 66.6861 36.3123C66.5238 36.2635 66.3734 36.1815 66.2447 36.0713C66.1159 35.9611 66.0116 35.8253 65.9384 35.6725C65.8652 35.5197 65.8247 35.3533 65.8195 35.184C65.8144 35.0147 65.8447 34.8461 65.9084 34.6891C66.0397 34.3632 66.2881 34.0981 66.6048 33.9457C66.9215 33.7934 67.2838 33.7647 67.6204 33.8655C67.7831 33.9143 67.9337 33.9963 68.0628 34.1065C68.1919 34.2167 68.2966 34.3526 68.3703 34.5055C68.4439 34.6584 68.4848 34.8249 68.4905 34.9945C68.4962 35.1641 68.4664 35.333 68.4031 35.4905C68.3124 35.7154 68.1652 35.9132 67.9757 36.0647C67.7861 36.2161 67.5607 36.3161 67.3212 36.355ZM67.0253 34.0481C66.8251 34.0809 66.6368 34.1647 66.4784 34.2914C66.3201 34.4182 66.1972 34.5837 66.1216 34.7718C66.0692 34.8996 66.0441 35.037 66.048 35.1751C66.0519 35.3132 66.0848 35.449 66.1445 35.5736C66.2041 35.6982 66.2893 35.8089 66.3944 35.8986C66.4996 35.9883 66.6224 36.0549 66.7549 36.0942C67.0366 36.1793 67.34 36.156 67.6055 36.029C67.871 35.902 68.0794 35.6805 68.1899 35.4078C68.2419 35.2795 68.2665 35.1417 68.262 35.0033C68.2576 34.865 68.2243 34.7291 68.1642 34.6044C68.1041 34.4796 68.0185 34.3689 67.913 34.2792C67.8076 34.1894 67.6845 34.1228 67.5517 34.0834C67.3813 34.0303 67.2007 34.0184 67.0248 34.0486L67.0253 34.0481ZM85.1039 39.4934C84.7943 39.3998 84.461 39.4253 84.1693 39.5648C83.8776 39.7044 83.6486 39.948 83.5274 40.2476C83.4698 40.3905 83.4427 40.5439 83.4478 40.6978C83.4528 40.8518 83.49 41.003 83.5568 41.1417C83.6237 41.2805 83.7188 41.4038 83.8361 41.5038C83.9533 41.6037 84.0902 41.6781 84.2378 41.7222C84.5468 41.8145 84.8791 41.7881 85.1697 41.6483C85.4602 41.5086 85.6882 41.2654 85.8088 40.9665C85.8664 40.8241 85.8937 40.6712 85.8889 40.5176C85.8842 40.364 85.8474 40.2131 85.781 40.0745C85.7147 39.936 85.6202 39.8127 85.5035 39.7127C85.3868 39.6126 85.2505 39.538 85.1034 39.4935" fill="black"/>
<path d="M84.8345 41.873C84.624 41.9089 84.4079 41.8944 84.2041 41.8307C84.0414 41.782 83.8907 41.6999 83.7616 41.5898C83.6325 41.4796 83.5278 41.3438 83.4541 41.1909C83.3804 41.0381 83.3395 40.8715 83.3338 40.7019C83.3281 40.5323 83.3578 40.3634 83.4211 40.206C83.5533 39.8797 83.8027 39.6146 84.1203 39.4625C84.438 39.3104 84.801 39.2825 85.1382 39.384C85.3002 39.4332 85.4503 39.5156 85.5787 39.6259C85.7072 39.7361 85.8113 39.8719 85.8845 40.0246C85.9576 40.1773 85.9981 40.3435 86.0035 40.5126C86.0089 40.6818 85.979 40.8503 85.9158 41.0073C85.8253 41.2324 85.6782 41.4303 85.4888 41.5819C85.2994 41.7336 85.074 41.8338 84.8345 41.873ZM84.5386 39.5664C84.3384 39.5988 84.15 39.6823 83.9915 39.8089C83.8331 39.9355 83.7101 40.1008 83.6344 40.2888C83.5824 40.4171 83.558 40.5549 83.5625 40.6933C83.567 40.8316 83.6004 40.9675 83.6605 41.0922C83.7207 41.2169 83.8063 41.3276 83.9118 41.4173C84.0173 41.507 84.1404 41.5736 84.2732 41.6129C84.5545 41.697 84.857 41.6731 85.1215 41.5458C85.3861 41.4185 85.5935 41.197 85.7032 40.9249C85.7552 40.797 85.7798 40.6597 85.7757 40.5217C85.7715 40.3837 85.7385 40.2482 85.679 40.1237C85.6194 39.9992 85.5344 39.8885 85.4296 39.7987C85.3247 39.7088 85.2022 39.6419 85.07 39.6021C84.8982 39.5484 84.7161 39.5361 84.5386 39.5664ZM102.617 45.0097C102.308 44.9174 101.976 44.9438 101.685 45.0836C101.394 45.2234 101.166 45.4666 101.046 45.7656C100.988 45.9081 100.961 46.0609 100.966 46.2145C100.971 46.3681 101.007 46.5189 101.074 46.6575C101.14 46.796 101.235 46.9193 101.351 47.0193C101.468 47.1193 101.604 47.194 101.751 47.2385C102.061 47.332 102.394 47.3065 102.686 47.167C102.977 47.0275 103.206 46.784 103.327 46.4844C103.385 46.3415 103.412 46.1881 103.407 46.0341C103.402 45.8802 103.365 45.7289 103.298 45.5901C103.231 45.4513 103.136 45.328 103.019 45.2281C102.902 45.1281 102.765 45.0537 102.617 45.0097Z" fill="black"/>
<path d="M102.352 47.3902C102.14 47.4264 101.922 47.4118 101.717 47.3475C101.555 47.2984 101.405 47.216 101.276 47.1058C101.148 46.9955 101.044 46.8597 100.971 46.7071C100.897 46.5544 100.857 46.3883 100.852 46.2191C100.846 46.0499 100.876 45.8815 100.939 45.7245C101.071 45.3986 101.319 45.1335 101.636 44.9811C101.952 44.8288 102.315 44.8001 102.651 44.9008C102.814 44.9496 102.964 45.0318 103.094 45.142C103.223 45.2522 103.327 45.3881 103.401 45.541C103.474 45.6939 103.515 45.8604 103.521 46.03C103.526 46.1995 103.497 46.3684 103.433 46.5258C103.343 46.7507 103.195 46.9484 103.006 47.0998C102.817 47.2513 102.591 47.3513 102.352 47.3902ZM102.056 45.0835C101.856 45.1162 101.668 45.2 101.509 45.3268C101.351 45.4535 101.228 45.619 101.152 45.8071C101.1 45.935 101.076 46.0723 101.08 46.2102C101.084 46.3482 101.117 46.4837 101.177 46.6082C101.236 46.7326 101.321 46.8433 101.426 46.9331C101.531 47.0229 101.653 47.0898 101.786 47.1296C102.067 47.2146 102.371 47.1913 102.636 47.0643C102.902 46.9373 103.11 46.7158 103.221 46.4431C103.273 46.3148 103.297 46.1771 103.293 46.0387C103.288 45.9003 103.255 45.7644 103.195 45.6397C103.135 45.515 103.049 45.4042 102.944 45.3145C102.838 45.2248 102.715 45.1581 102.582 45.1188C102.412 45.0656 102.232 45.0535 102.056 45.0835ZM120.135 50.5282C119.826 50.435 119.493 50.461 119.203 50.6009C118.912 50.7409 118.684 50.9847 118.564 51.2842C118.506 51.4266 118.478 51.5796 118.483 51.7333C118.487 51.887 118.524 52.038 118.591 52.1767C118.657 52.3154 118.752 52.4387 118.869 52.5386C118.986 52.6385 119.122 52.7129 119.269 52.757C119.579 52.8505 119.912 52.825 120.204 52.6854C120.495 52.5459 120.724 52.3024 120.846 52.0029C120.903 51.86 120.93 51.7066 120.925 51.5527C120.92 51.3987 120.883 51.2475 120.816 51.1087C120.749 50.9699 120.654 50.8466 120.537 50.7466C120.42 50.6467 120.283 50.5723 120.135 50.5282Z" fill="black"/>
<path d="M119.87 52.9088C119.658 52.9449 119.44 52.9302 119.235 52.866C119.073 52.8173 118.922 52.7352 118.793 52.625C118.665 52.5148 118.56 52.379 118.487 52.2262C118.414 52.0734 118.374 51.907 118.368 51.7377C118.363 51.5684 118.394 51.3998 118.457 51.2428C118.589 50.9169 118.837 50.6518 119.154 50.4994C119.47 50.3471 119.833 50.3185 120.169 50.4192C120.332 50.468 120.482 50.5502 120.612 50.6604C120.741 50.7706 120.845 50.9065 120.919 51.0594C120.992 51.2123 121.033 51.3789 121.039 51.5484C121.044 51.718 121.015 51.8869 120.951 52.0443C120.861 52.2692 120.714 52.4669 120.524 52.6183C120.335 52.7698 120.109 52.8698 119.87 52.9088ZM119.574 50.602C119.374 50.6347 119.186 50.7185 119.027 50.8453C118.869 50.9721 118.746 51.1375 118.67 51.3257C118.618 51.4535 118.593 51.5909 118.597 51.729C118.601 51.867 118.634 52.0028 118.693 52.1274C118.753 52.252 118.838 52.3627 118.943 52.4524C119.048 52.542 119.171 52.6087 119.304 52.6481C119.585 52.7331 119.889 52.7098 120.154 52.5828C120.42 52.4558 120.628 52.2342 120.739 51.9616C120.791 51.8333 120.815 51.6955 120.811 51.5572C120.806 51.4188 120.773 51.2829 120.713 51.1582C120.653 51.0335 120.567 50.9227 120.462 50.833C120.356 50.7433 120.233 50.6766 120.101 50.6372C119.93 50.5841 119.75 50.572 119.574 50.602ZM137.653 56.0465C137.343 55.953 137.01 55.9786 136.718 56.1181C136.427 56.2577 136.198 56.5013 136.077 56.8009C136.019 56.9438 135.992 57.0971 135.997 57.251C136.002 57.405 136.039 57.5562 136.106 57.6949C136.173 57.8337 136.268 57.957 136.385 58.0569C136.503 58.1568 136.64 58.2312 136.787 58.2753C137.096 58.3685 137.429 58.3426 137.72 58.2028C138.011 58.0629 138.239 57.8192 138.358 57.5197C138.417 57.3772 138.444 57.2242 138.44 57.0705C138.435 56.9167 138.398 56.7656 138.332 56.6269C138.266 56.4882 138.171 56.3649 138.054 56.2649C137.937 56.165 137.8 56.0905 137.653 56.0465Z" fill="black"/>
<path d="M137.384 58.4269C137.174 58.4628 136.958 58.4482 136.754 58.3845C136.591 58.3358 136.44 58.2537 136.311 58.1435C136.182 58.0333 136.077 57.8975 136.004 57.7446C135.93 57.5918 135.889 57.4253 135.884 57.2557C135.878 57.0861 135.908 56.9172 135.971 56.7598C136.103 56.4335 136.352 56.1683 136.67 56.0162C136.988 55.8642 137.351 55.8362 137.688 55.9377C137.85 55.9865 138.001 56.0686 138.129 56.1788C138.258 56.289 138.362 56.4249 138.436 56.5777C138.509 56.7305 138.549 56.8969 138.555 57.0663C138.56 57.2356 138.529 57.4042 138.466 57.5612C138.375 57.7863 138.228 57.9842 138.039 58.1358C137.849 58.2875 137.624 58.3877 137.384 58.4269ZM137.088 56.12C136.888 56.1524 136.7 56.236 136.541 56.3626C136.383 56.4891 136.26 56.6544 136.184 56.8424C136.132 56.9707 136.108 57.1085 136.112 57.2469C136.117 57.3852 136.15 57.5211 136.21 57.6458C136.27 57.7705 136.356 57.8812 136.461 57.9709C136.567 58.0606 136.69 58.1272 136.823 58.1665C137.104 58.2507 137.407 58.2268 137.672 58.0995C137.936 57.9722 138.144 57.7507 138.253 57.4784C138.306 57.3505 138.331 57.2131 138.327 57.075C138.323 56.9368 138.29 56.8011 138.23 56.6765C138.171 56.5518 138.085 56.4411 137.98 56.3514C137.875 56.2616 137.752 56.1949 137.62 56.1555C137.448 56.1019 137.266 56.0897 137.088 56.12ZM155.167 61.5636C154.858 61.4713 154.526 61.4977 154.235 61.6375C153.944 61.7773 153.716 62.0205 153.596 62.3195C153.538 62.462 153.511 62.6148 153.516 62.7684C153.521 62.922 153.557 63.0728 153.624 63.2114C153.69 63.3499 153.785 63.4732 153.901 63.5732C154.018 63.6732 154.154 63.7479 154.301 63.7923C154.611 63.8859 154.944 63.8604 155.236 63.7208C155.527 63.5813 155.756 63.3378 155.877 63.0382C155.935 62.8953 155.962 62.7419 155.957 62.588C155.952 62.434 155.915 62.2828 155.848 62.144C155.781 62.0052 155.686 61.8819 155.569 61.7819C155.451 61.682 155.315 61.6076 155.167 61.5636" fill="black"/>
<path d="M154.902 63.945C154.69 63.9811 154.472 63.9665 154.267 63.9023C154.105 63.8531 153.955 63.7707 153.826 63.6605C153.698 63.5502 153.594 63.4144 153.52 63.2618C153.447 63.1091 153.407 62.9429 153.401 62.7737C153.396 62.6046 153.426 62.4361 153.489 62.2791C153.62 61.9532 153.869 61.6881 154.185 61.5358C154.502 61.3834 154.864 61.3548 155.201 61.4556C155.364 61.5043 155.514 61.5865 155.643 61.6967C155.772 61.8069 155.877 61.9428 155.951 62.0957C156.024 62.2486 156.065 62.4151 156.071 62.5847C156.076 62.7543 156.046 62.9231 155.983 63.0806C155.892 63.3054 155.745 63.5031 155.556 63.6545C155.366 63.806 155.141 63.906 154.902 63.945ZM154.606 61.6381C154.406 61.6708 154.217 61.7546 154.059 61.8814C153.901 62.0082 153.778 62.1737 153.702 62.3618C153.65 62.4897 153.626 62.627 153.63 62.7649C153.634 62.9029 153.667 63.0384 153.727 63.1629C153.786 63.2874 153.871 63.398 153.976 63.4878C154.081 63.5776 154.203 63.6445 154.335 63.6843C154.617 63.7693 154.921 63.746 155.186 63.619C155.452 63.492 155.66 63.2705 155.771 62.9978C155.823 62.8695 155.847 62.7318 155.843 62.5934C155.838 62.455 155.805 62.3191 155.745 62.1944C155.685 62.0697 155.599 61.9589 155.494 61.8692C155.388 61.7795 155.265 61.7128 155.132 61.6735C154.962 61.6201 154.782 61.6078 154.606 61.6375L154.606 61.6381Z" fill="black"/>
<path d="M182.07 67.8522L179.367 61.9462C179.484 62.2052 179.548 62.4853 179.554 62.7696C179.561 63.0538 179.51 63.3364 179.404 63.6005L145.871 149.942C145.642 150.508 145.21 150.969 144.66 151.233C144.109 151.497 143.479 151.546 142.894 151.37L15.1139 111.118C14.8281 111.032 14.5639 110.886 14.3386 110.69C14.1133 110.494 13.932 110.253 13.8065 109.982L16.5088 115.888C16.6343 116.159 16.8156 116.4 17.0409 116.596C17.2662 116.792 17.5304 116.938 17.8162 117.024L145.597 157.276C146.182 157.453 146.811 157.404 147.362 157.14C147.913 156.875 148.345 156.415 148.573 155.848L182.106 69.5069C182.212 69.2428 182.263 68.9601 182.257 68.6758C182.25 68.3914 182.187 68.1113 182.07 67.8522Z" fill="url(#paint0_linear_1687_1465)"/>
<path d="M146.712 157.461C146.328 157.527 145.934 157.5 145.562 157.384L17.7811 117.132C17.4799 117.041 17.2013 116.888 16.964 116.681C16.7266 116.475 16.5358 116.22 16.4042 115.935L13.7019 110.028C13.6898 110.001 13.689 109.97 13.6997 109.942C13.7104 109.914 13.7317 109.891 13.759 109.879C13.7863 109.866 13.8175 109.865 13.8457 109.875C13.8739 109.885 13.897 109.906 13.9098 109.933C14.0282 110.19 14.1998 110.418 14.4132 110.604C14.6265 110.789 14.8769 110.927 15.1476 111.008L142.928 151.26C143.485 151.427 144.085 151.381 144.61 151.129C145.134 150.877 145.546 150.439 145.763 149.9L179.297 63.5583C179.397 63.309 179.445 63.0421 179.44 62.7737C179.434 62.5052 179.374 62.2406 179.264 61.9958L179.263 61.9929C179.25 61.9653 179.249 61.9339 179.259 61.9055C179.27 61.877 179.291 61.854 179.319 61.8414C179.347 61.8288 179.378 61.8277 179.407 61.8382C179.435 61.8488 179.458 61.8703 179.471 61.8978L182.173 67.8039C182.297 68.0768 182.364 68.3718 182.371 68.6714C182.377 68.9709 182.324 69.2688 182.212 69.547L148.679 155.888C148.514 156.297 148.247 156.657 147.902 156.933C147.558 157.208 147.148 157.39 146.712 157.461ZM14.3157 110.82L16.6121 115.839C16.7305 116.096 16.9021 116.324 17.1155 116.51C17.3288 116.695 17.5791 116.833 17.8498 116.914L145.631 157.166C146.188 157.333 146.787 157.287 147.312 157.035C147.836 156.783 148.248 156.345 148.466 155.806L181.999 69.4637C182.099 69.2139 182.148 68.9465 182.142 68.6775C182.136 68.4085 182.076 68.1435 181.965 67.8984L179.667 62.8774C179.659 63.1388 179.605 63.3969 179.51 63.6405L145.976 149.982C145.737 150.575 145.285 151.057 144.708 151.333C144.131 151.61 143.472 151.662 142.859 151.478L15.0788 111.226C14.8012 111.14 14.5423 111.002 14.3157 110.82Z" fill="black"/>
<path d="M161.136 55.4795C162.016 52.063 162.2 49.1655 161.6 48.0115C161.552 47.9006 161.482 47.8005 161.395 47.7169C161.308 47.6334 161.205 47.5682 161.092 47.5251L162.235 47.8859C162.348 47.929 162.451 47.9943 162.539 48.0778C162.626 48.1614 162.695 48.2615 162.743 48.3724C163.343 49.5248 163.159 52.4165 162.282 55.8276L161.136 55.4795Z" fill="white"/>
<path d="M162.302 55.9416C162.284 55.9446 162.267 55.9436 162.25 55.9387L161.103 55.5905C161.075 55.582 161.051 55.5629 161.037 55.5373C161.022 55.5116 161.018 55.4814 161.026 55.4529C161.894 52.0807 162.08 49.1813 161.499 48.0661C161.458 47.9689 161.397 47.8808 161.322 47.8069C161.246 47.7331 161.156 47.6749 161.058 47.6359C161.03 47.6263 161.006 47.606 160.993 47.5793C160.979 47.5527 160.977 47.5218 160.986 47.4933C160.995 47.4648 161.015 47.441 161.041 47.4269C161.068 47.4128 161.098 47.4097 161.127 47.4181L161.128 47.4179L162.27 47.7785C162.398 47.826 162.514 47.8984 162.613 47.9916C162.711 48.0849 162.79 48.1969 162.845 48.3211C163.459 49.4995 163.286 52.3873 162.394 55.8575C162.39 55.8724 162.383 55.8865 162.374 55.8987C162.364 55.911 162.352 55.9212 162.339 55.9287C162.327 55.9352 162.315 55.9395 162.302 55.9416ZM161.274 55.4032L162.202 55.6847C163.042 52.3681 163.216 49.527 162.643 48.4264C162.601 48.3291 162.541 48.241 162.465 48.1671C162.39 48.0933 162.3 48.0351 162.202 47.996L161.614 47.8106C161.646 47.8588 161.676 47.9086 161.702 47.96C162.31 49.1278 162.146 51.9738 161.274 55.4028L161.274 55.4032Z" fill="black"/>
<path d="M155.212 63.0795L154.069 62.7186C154.288 59.9701 155.177 56.4016 156.447 53.1743C158.216 48.6763 160.274 45.9659 161.466 46.3422L162.61 46.7031C161.417 46.3266 159.36 49.0372 157.59 53.535C156.321 56.7625 155.431 60.331 155.212 63.0795Z" fill="white"/>
<path d="M155.231 63.1918C155.213 63.1948 155.195 63.1935 155.178 63.1881L154.034 62.8272C154.01 62.8194 153.989 62.8035 153.974 62.7821C153.96 62.7607 153.953 62.735 153.955 62.7093C154.175 59.9503 155.067 56.37 156.34 53.132C158.125 48.5946 160.199 45.8218 161.501 46.2328L162.644 46.5937C162.673 46.6028 162.697 46.623 162.711 46.6499C162.725 46.6768 162.728 46.7081 162.718 46.737C162.709 46.7659 162.689 46.79 162.662 46.804C162.635 46.818 162.604 46.8207 162.575 46.8116C161.595 46.5022 159.604 48.7266 157.696 53.5765C156.43 56.7945 155.544 60.3502 155.326 63.0882C155.324 63.1136 155.314 63.1376 155.296 63.1563C155.279 63.1751 155.256 63.1876 155.231 63.1918ZM154.19 62.6367L155.11 62.927C155.349 60.1881 156.231 56.675 157.484 53.4928C158.993 49.6575 160.708 47.083 161.989 46.6263L161.432 46.4505C160.452 46.1415 158.461 48.3656 156.554 53.2155C155.301 56.3983 154.421 59.9114 154.19 62.6367Z" fill="black"/>
<path d="M163.184 47.253C163.878 48.5849 163.645 51.971 162.596 55.9393L162.283 55.8277C163.16 52.4166 163.344 49.5249 162.744 48.3724C161.876 46.7065 159.657 49.199 157.796 53.9291C156.673 56.7833 155.886 59.9383 155.692 62.3716L155.213 63.0793C155.432 60.3308 156.321 56.7622 157.591 53.5348C159.693 48.1895 162.203 45.3685 163.184 47.253Z" fill="black"/>
<path d="M155.231 63.1922C155.214 63.1951 155.197 63.194 155.18 63.1891C155.163 63.1841 155.148 63.1754 155.135 63.1637C155.122 63.152 155.112 63.1375 155.106 63.1213C155.1 63.1051 155.097 63.0877 155.099 63.0704C155.319 60.3115 156.21 56.7312 157.484 53.4933C159.115 49.3481 161.016 46.6248 162.328 46.5549C162.603 46.5404 162.994 46.6404 163.285 47.1999C163.997 48.5656 163.775 51.9252 162.706 55.9681C162.702 55.9835 162.695 55.9978 162.685 56.0102C162.675 56.0226 162.663 56.0328 162.649 56.0402C162.635 56.0475 162.619 56.0519 162.603 56.053C162.588 56.0541 162.572 56.052 162.557 56.0466L162.244 55.9351C162.217 55.9256 162.195 55.9063 162.182 55.8811C162.168 55.8559 162.165 55.8267 162.172 55.7991C163.037 52.4328 163.222 49.5384 162.642 48.425C162.475 48.1054 162.264 47.9562 161.998 47.9702C161.115 48.0155 159.507 49.8903 157.902 53.9707C156.782 56.8159 155.999 59.9597 155.806 62.3805C155.804 62.4002 155.798 62.4192 155.787 62.4355L155.307 63.1432C155.298 63.156 155.287 63.167 155.274 63.1754C155.261 63.1838 155.247 63.1895 155.231 63.1922ZM162.24 46.7946C161.035 46.9963 159.228 49.6856 157.697 53.5769C156.498 56.6251 155.639 59.9765 155.367 62.6487L155.58 62.3328C155.779 59.8949 156.566 56.7408 157.689 53.8876C159.133 50.2162 160.819 47.8048 161.985 47.7426C162.233 47.7295 162.584 47.819 162.845 48.32C163.452 49.4869 163.289 52.3301 162.419 55.7554L162.516 55.79C163.528 51.9118 163.751 48.5902 163.082 47.3061C162.893 46.9438 162.643 46.7676 162.339 46.7837C162.306 46.7855 162.273 46.7891 162.24 46.7946Z" fill="black"/>
<path d="M143.59 49.9527C144.489 46.4993 144.682 43.5635 144.077 42.3998C144.029 42.2892 143.959 42.1892 143.872 42.1058C143.785 42.0224 143.682 41.9573 143.57 41.9143L144.713 42.2752C144.826 42.3182 144.928 42.3833 145.016 42.4667C145.103 42.5501 145.172 42.65 145.22 42.7607C145.826 43.924 145.633 46.8596 144.734 50.3126L143.59 49.9527Z" fill="white"/>
<path d="M144.752 50.4256C144.734 50.4286 144.716 50.4273 144.699 50.4219L143.556 50.0617C143.528 50.0529 143.504 50.0336 143.49 50.008C143.476 49.9823 143.472 49.9522 143.479 49.9238C144.367 46.5123 144.561 43.5802 143.974 42.4528C143.933 42.3558 143.873 42.2679 143.797 42.1942C143.722 42.1205 143.633 42.0624 143.535 42.0234C143.506 42.0138 143.483 41.9935 143.469 41.9669C143.456 41.9402 143.453 41.9093 143.462 41.8808C143.471 41.8523 143.491 41.8285 143.518 41.8144C143.544 41.8004 143.575 41.7972 143.604 41.8056L144.747 42.1665C144.874 42.2139 144.99 42.2862 145.089 42.3793C145.187 42.4723 145.266 42.5842 145.321 42.7082C145.942 43.9004 145.759 46.8254 144.844 50.3416C144.839 50.3629 144.827 50.3822 144.811 50.3971C144.795 50.4121 144.774 50.4219 144.753 50.4256L144.752 50.4256ZM143.728 49.8764L144.653 50.1678C145.515 46.8064 145.698 43.9278 145.118 42.8138C145.076 42.7167 145.016 42.6288 144.941 42.5551C144.865 42.4814 144.776 42.4233 144.678 42.3843L144.09 42.1988C144.122 42.2467 144.151 42.2963 144.177 42.3474C144.792 43.5278 144.619 46.4068 143.728 49.8764Z" fill="black"/>
<path d="M137.688 57.4677L136.545 57.1068C136.764 54.3583 137.653 50.7898 138.922 47.5624C140.692 43.0641 142.75 40.3547 143.942 40.731L145.086 41.0919C143.893 40.7156 141.835 43.425 140.066 47.9232C138.796 51.1506 137.907 54.7191 137.688 57.4677Z" fill="white"/>
<path d="M137.708 57.5809C137.69 57.5839 137.671 57.5826 137.654 57.5772L136.511 57.2163C136.486 57.2086 136.465 57.1926 136.451 57.1712C136.436 57.1498 136.429 57.1241 136.431 57.0983C136.651 54.3393 137.543 50.759 138.817 47.5211C140.602 42.984 142.676 40.2113 143.978 40.6224L145.121 40.9833C145.136 40.9876 145.149 40.9947 145.161 41.0043C145.173 41.0139 145.183 41.0257 145.19 41.0392C145.197 41.0526 145.201 41.0673 145.203 41.0824C145.204 41.0976 145.202 41.1128 145.198 41.1273C145.193 41.1418 145.186 41.1553 145.176 41.1669C145.166 41.1785 145.154 41.188 145.14 41.1948C145.127 41.2017 145.112 41.2058 145.097 41.2069C145.082 41.208 145.066 41.206 145.052 41.2011C144.072 40.8921 142.081 43.1158 140.173 47.9654C138.907 51.1834 138.021 54.7393 137.803 57.4771C137.801 57.5025 137.79 57.5265 137.773 57.5452C137.756 57.564 137.733 57.5765 137.708 57.5807L137.708 57.5809ZM136.667 57.0253L137.587 57.3156C137.825 54.5767 138.708 51.0637 139.96 47.8814C141.469 44.0466 143.184 41.4724 144.465 41.0155L143.909 40.84C142.928 40.5307 140.937 42.7545 139.03 47.6041C137.777 50.7874 136.897 54.3004 136.667 57.0259L136.667 57.0253Z" fill="black"/>
<path d="M145.66 41.6416C146.359 42.9825 146.117 46.4071 145.05 50.4127L144.734 50.3131C145.632 46.86 145.826 43.9244 145.22 42.7611C144.353 41.0969 142.134 43.5895 140.273 48.3195C139.15 51.1738 138.364 54.3287 138.17 56.7621L137.689 57.468C137.908 54.7195 138.797 51.151 140.067 47.9235C142.169 42.5782 144.68 39.759 145.66 41.6416Z" fill="black"/>
<path d="M137.708 57.581C137.689 57.5842 137.669 57.5825 137.651 57.5761C137.627 57.5677 137.607 57.5517 137.593 57.5306C137.579 57.5095 137.573 57.4844 137.575 57.4592C137.795 54.7003 138.687 51.1199 139.96 47.8821C141.591 43.7372 143.492 41.0134 144.805 40.9449C145.081 40.9304 145.471 41.0304 145.762 41.5892C146.479 42.9663 146.249 46.3586 145.161 50.4424C145.157 50.4573 145.15 50.4713 145.141 50.4834C145.131 50.4956 145.119 50.5057 145.106 50.5132C145.092 50.5206 145.077 50.5252 145.062 50.5267C145.046 50.5283 145.031 50.5266 145.016 50.522L144.7 50.4224C144.672 50.4136 144.648 50.3944 144.634 50.3687C144.62 50.3431 144.616 50.3129 144.623 50.2846C145.511 46.8733 145.705 43.941 145.118 42.8141C144.952 42.4945 144.742 42.3462 144.475 42.3603C143.593 42.4055 141.985 44.2806 140.379 48.3616C139.26 51.2067 138.476 54.3506 138.283 56.7713C138.282 56.7911 138.275 56.8102 138.264 56.8266L137.783 57.5325C137.775 57.5453 137.763 57.5562 137.75 57.5645C137.737 57.5728 137.723 57.5784 137.708 57.581ZM144.717 41.1842C143.511 41.386 141.704 44.0748 140.173 47.9658C138.974 51.0148 138.115 54.3671 137.843 57.0393L138.059 56.7232C138.257 54.2853 139.045 51.1312 140.167 48.2781C141.612 44.6062 143.298 42.1933 144.464 42.1322C144.711 42.1191 145.061 42.2085 145.322 42.7087C145.937 43.889 145.764 46.7678 144.873 50.237L144.971 50.2681C146.003 46.3477 146.234 42.9907 145.56 41.6948C145.371 41.3325 145.122 41.157 144.817 41.1732C144.784 41.1749 144.75 41.1786 144.717 41.1842Z" fill="black"/>
<path d="M126.058 44.4058C126.957 40.9525 127.15 38.0166 126.544 36.8529C126.497 36.7423 126.427 36.6423 126.34 36.5589C126.253 36.4755 126.15 36.4104 126.037 36.3674L127.181 36.7282C127.293 36.7712 127.396 36.8364 127.483 36.9198C127.57 37.0032 127.64 37.1032 127.688 37.2138C128.294 38.3771 128.1 41.3127 127.202 44.7657L126.058 44.4058Z" fill="white"/>
<path d="M127.22 44.8788C127.202 44.8818 127.184 44.8805 127.167 44.8752L126.023 44.5149C125.995 44.5061 125.972 44.4869 125.958 44.4612C125.943 44.4356 125.94 44.4054 125.947 44.3771C126.835 40.9655 127.029 38.0335 126.442 36.906C126.401 36.8089 126.341 36.721 126.265 36.6473C126.19 36.5736 126.1 36.5156 126.002 36.4766C125.974 36.467 125.95 36.4467 125.937 36.42C125.923 36.3934 125.921 36.3625 125.93 36.334C125.939 36.3055 125.959 36.2817 125.985 36.2676C126.012 36.2535 126.042 36.2504 126.071 36.2588L127.214 36.6196C127.341 36.6669 127.457 36.7393 127.556 36.8323C127.655 36.9254 127.733 37.0373 127.788 37.1613C128.409 38.3535 128.226 41.2785 127.312 44.7946C127.306 44.816 127.294 44.8353 127.278 44.8502C127.262 44.8651 127.242 44.8749 127.22 44.8786L127.22 44.8788ZM126.196 44.3296L127.121 44.621C127.982 41.2596 128.166 38.381 127.586 37.267C127.544 37.1699 127.484 37.082 127.409 37.0083C127.333 36.9346 127.244 36.8766 127.146 36.8376L126.557 36.6519C126.589 36.6999 126.619 36.7495 126.645 36.8006C127.26 37.981 127.087 40.8601 126.196 44.3297L126.196 44.3296Z" fill="black"/>
<path d="M120.156 51.921L119.012 51.5602C119.231 48.8117 120.121 45.2431 121.39 42.0157C123.16 37.5174 125.218 34.8081 126.41 35.1844L127.553 35.5453C126.361 35.169 124.303 37.8783 122.533 42.3765C121.264 45.604 120.375 49.1725 120.156 51.921Z" fill="white"/>
<path d="M120.175 52.034C120.157 52.037 120.139 52.0357 120.122 52.0302L118.979 51.6695C118.954 51.6617 118.933 51.6458 118.918 51.6244C118.904 51.603 118.897 51.5773 118.899 51.5515C119.119 48.7926 120.011 45.2121 121.285 41.9743C123.069 37.4371 125.143 34.6644 126.445 35.0755L127.589 35.4364C127.617 35.446 127.64 35.4663 127.654 35.493C127.667 35.5196 127.67 35.5505 127.661 35.579C127.652 35.6075 127.632 35.6314 127.606 35.6454C127.579 35.6595 127.549 35.6626 127.52 35.6542L127.518 35.6538C126.537 35.3472 124.547 37.5713 122.641 42.4185C121.375 45.6365 120.489 49.1923 120.27 51.9301C120.268 51.9555 120.258 51.9795 120.241 51.9983C120.223 52.0171 120.2 52.0296 120.175 52.0338L120.175 52.034ZM119.134 51.4785L120.054 51.7688C120.293 49.0298 121.176 45.5167 122.428 42.3345C123.937 38.4993 125.652 35.9252 126.933 35.4686L126.377 35.293C125.396 34.9835 123.405 37.2076 121.498 42.0572C120.245 45.2405 119.365 48.7536 119.135 51.479L119.134 51.4785Z" fill="black"/>
<path d="M128.127 36.095C128.825 37.4359 128.584 40.8605 127.517 44.8662L127.201 44.7665C128.099 41.3135 128.292 38.3779 127.687 37.2146C126.82 35.5504 124.6 38.0429 122.74 42.7729C121.617 45.6271 120.831 48.7821 120.637 51.2155L120.156 51.9215C120.375 49.173 121.264 45.6044 122.534 42.377C124.636 37.0315 127.146 34.2124 128.127 36.095Z" fill="black"/>
<path d="M120.174 52.0337C120.157 52.0365 120.14 52.0354 120.123 52.0305C120.106 52.0255 120.091 52.0169 120.078 52.0051C120.065 51.9934 120.056 51.9789 120.049 51.9627C120.043 51.9466 120.04 51.9292 120.042 51.9119C120.262 49.1529 121.153 45.5726 122.427 42.3347C124.058 38.1899 125.959 35.4686 127.272 35.3975C127.547 35.383 127.937 35.483 128.228 36.0418C128.946 37.4189 128.716 40.8113 127.628 44.895C127.624 44.91 127.617 44.9239 127.607 44.9361C127.598 44.9483 127.586 44.9584 127.572 44.9658C127.559 44.9733 127.544 44.9779 127.528 44.9794C127.513 44.9809 127.498 44.9793 127.483 44.9747L127.166 44.8751C127.138 44.8663 127.115 44.847 127.101 44.8214C127.087 44.7957 127.083 44.7656 127.09 44.7372C127.978 41.3259 128.172 38.3937 127.585 37.2668C127.419 36.9471 127.208 36.7987 126.942 36.8129C126.06 36.859 124.452 38.7333 122.846 42.8143C121.727 45.6593 120.943 48.8032 120.75 51.2241C120.748 51.2439 120.742 51.2629 120.731 51.2793L120.25 51.9852C120.241 51.998 120.23 52.0088 120.217 52.0172C120.204 52.0255 120.19 52.0311 120.174 52.0337ZM127.184 35.6368C125.978 35.8386 124.17 38.5273 122.64 42.4182C121.44 45.4672 120.581 48.8196 120.309 51.492L120.525 51.1759C120.724 48.7379 121.511 45.5838 122.633 42.7308C124.078 39.0589 125.765 36.6466 126.93 36.5848C127.178 36.5718 127.528 36.6611 127.788 37.1614C128.403 38.3416 128.23 41.2205 127.339 44.6896L127.437 44.7208C128.469 40.8003 128.7 37.4435 128.026 36.1474C127.837 35.7852 127.587 35.6097 127.284 35.6257C127.25 35.6275 127.217 35.6312 127.184 35.6368Z" fill="black"/>
<path d="M108.501 38.8855C109.4 35.4322 109.593 32.4963 108.988 31.3327C108.94 31.222 108.871 31.122 108.783 31.0386C108.696 30.9552 108.594 30.8901 108.481 30.8471L109.624 31.2079C109.737 31.251 109.84 31.3161 109.927 31.3995C110.014 31.4829 110.083 31.5829 110.131 31.6936C110.737 32.8569 110.544 35.7924 109.645 39.2454L108.501 38.8855Z" fill="white"/>
<path d="M109.664 39.3585C109.646 39.3615 109.628 39.3602 109.611 39.3547L108.467 38.9946C108.439 38.9858 108.416 38.9666 108.401 38.9409C108.387 38.9153 108.383 38.8851 108.391 38.8568C109.279 35.4452 109.473 32.5126 108.886 31.3857C108.845 31.2886 108.785 31.2007 108.709 31.127C108.633 31.0533 108.544 30.9952 108.446 30.9563C108.431 30.952 108.418 30.9448 108.406 30.9353C108.394 30.9257 108.384 30.9138 108.377 30.9004C108.37 30.887 108.366 30.8723 108.364 30.8571C108.363 30.842 108.365 30.8267 108.369 30.8122C108.374 30.7977 108.381 30.7843 108.391 30.7727C108.401 30.7611 108.413 30.7516 108.427 30.7447C108.44 30.7378 108.455 30.7337 108.47 30.7327C108.485 30.7316 108.5 30.7335 108.515 30.7384L108.516 30.7383L109.658 31.1002C109.785 31.1476 109.901 31.2199 110 31.3128C110.098 31.4058 110.177 31.5175 110.232 31.6414C110.853 32.8336 110.67 35.7585 109.755 39.2747C109.75 39.2961 109.738 39.3153 109.722 39.3302C109.705 39.3451 109.685 39.355 109.663 39.3586L109.664 39.3585ZM108.639 38.8093L109.564 39.1007C110.426 35.7393 110.609 32.8607 110.029 31.7467C109.988 31.6496 109.928 31.5617 109.852 31.488C109.777 31.4142 109.687 31.3562 109.589 31.3173L109.002 31.1316C109.034 31.1796 109.063 31.2292 109.089 31.2802C109.704 32.4609 109.531 35.34 108.639 38.8095L108.639 38.8093Z" fill="black"/>
<path d="M102.6 46.4003L101.457 46.0394C101.676 43.2909 102.565 39.7224 103.834 36.4949C105.604 31.9967 107.662 29.2874 108.854 29.6637L109.998 30.0245C108.806 29.6482 106.747 32.3576 104.978 36.8558C103.708 40.0833 102.819 43.6518 102.6 46.4003Z" fill="white"/>
<path d="M102.619 46.5134C102.601 46.5163 102.583 46.515 102.565 46.5095L101.422 46.1488C101.397 46.141 101.376 46.1251 101.362 46.1036C101.347 46.0822 101.34 46.0565 101.343 46.0307C101.562 43.2718 102.454 39.6915 103.728 36.4536C105.513 31.9165 107.587 29.1444 108.889 29.5549L110.031 29.9153L110.032 29.9152C110.06 29.9248 110.084 29.9451 110.097 29.9717C110.111 29.9984 110.113 30.0293 110.104 30.0578C110.095 30.0863 110.075 30.1101 110.049 30.1242C110.023 30.1382 109.992 30.1414 109.963 30.133L109.962 30.1331C108.981 29.8255 106.991 32.0496 105.084 36.8977C103.818 40.1157 102.932 43.6715 102.714 46.4093C102.712 46.4347 102.701 46.4587 102.684 46.4775C102.667 46.4963 102.644 46.5088 102.619 46.513L102.619 46.5134ZM101.578 45.9578L102.498 46.2481C102.736 43.5091 103.619 39.996 104.871 36.8138C106.38 32.9786 108.095 30.4045 109.376 29.9479L108.82 29.7723C107.839 29.4632 105.849 31.6869 103.941 36.5364C102.689 39.7199 101.808 43.2327 101.578 45.9587L101.578 45.9578Z" fill="black"/>
<path d="M110.571 30.5742C111.27 31.9152 111.029 35.3397 109.962 39.3454L109.645 39.2454C110.544 35.7924 110.737 32.8569 110.131 31.6936C109.264 30.0294 107.045 32.5219 105.184 37.2519C104.061 40.1061 103.275 43.2611 103.081 45.6945L102.6 46.4005C102.819 43.652 103.708 40.0834 104.978 36.856C107.081 31.5109 109.591 28.6916 110.571 30.5742Z" fill="black"/>
<path d="M102.619 46.5134C102.602 46.5162 102.584 46.5151 102.567 46.5102C102.551 46.5053 102.535 46.4966 102.523 46.4849C102.51 46.4731 102.5 46.4586 102.494 46.4425C102.487 46.4263 102.485 46.4089 102.486 46.3916C102.706 43.6326 103.598 40.0522 104.871 36.8144C106.502 32.6696 108.404 29.9485 109.716 29.8773C109.992 29.8627 110.382 29.9628 110.673 30.5215C111.39 31.8987 111.16 35.291 110.072 39.3748C110.068 39.3897 110.061 39.4036 110.052 39.4158C110.042 39.4279 110.03 39.438 110.017 39.4455C110.003 39.4529 109.988 39.4575 109.973 39.4591C109.958 39.4606 109.942 39.459 109.927 39.4544L109.611 39.3546C109.583 39.3458 109.559 39.3266 109.545 39.301C109.531 39.2753 109.527 39.2452 109.535 39.2168C110.422 35.8055 110.617 32.8733 110.03 31.7464C109.863 31.4267 109.653 31.2783 109.386 31.2925C108.505 31.3379 106.896 33.2129 105.29 37.2939C104.171 40.139 103.388 43.283 103.194 45.7036C103.193 45.7234 103.186 45.7425 103.175 45.7589L102.694 46.4648C102.686 46.4776 102.675 46.4885 102.662 46.4968C102.649 46.5052 102.634 46.5108 102.619 46.5134ZM109.628 30.1165C108.423 30.3183 106.615 33.007 105.084 36.8979C103.885 39.9471 103.026 43.2992 102.754 45.9716L102.97 45.6555C103.168 43.2177 103.956 40.0635 105.078 37.2104C106.523 33.5385 108.21 31.1273 109.375 31.0645C109.622 31.0513 109.972 31.1408 110.233 31.641C110.848 32.8213 110.675 35.7001 109.783 39.1693L109.882 39.2005C110.914 35.2799 111.145 31.9231 110.47 30.627C110.282 30.2646 110.033 30.0893 109.728 30.1053C109.695 30.1072 109.661 30.1109 109.628 30.1165Z" fill="black"/>
<path d="M90.9858 33.3819C91.8845 29.9286 92.0777 26.9927 91.4722 25.829C91.4244 25.7184 91.3549 25.6184 91.2679 25.535C91.1808 25.4516 91.078 25.3865 90.9653 25.3435L92.1086 25.7043C92.2212 25.7474 92.3241 25.8125 92.4112 25.8959C92.4983 25.9793 92.5677 26.0792 92.6156 26.1899C93.2214 27.3532 93.0282 30.2887 92.1297 33.7418L90.9858 33.3819Z" fill="white"/>
<path d="M92.1488 33.8547C92.131 33.8577 92.1127 33.8564 92.0955 33.851L90.9521 33.4907C90.9241 33.4819 90.9006 33.4627 90.8864 33.4371C90.8722 33.4114 90.8684 33.3813 90.8758 33.3529C91.7635 29.9412 91.9585 27.0085 91.371 25.8817C91.3297 25.7847 91.2695 25.6968 91.194 25.6231C91.1185 25.5494 91.0292 25.4914 90.9311 25.4524C90.9028 25.4428 90.8793 25.4225 90.8658 25.3958C90.8523 25.3692 90.8498 25.3383 90.8588 25.3098C90.8678 25.2813 90.8877 25.2574 90.9141 25.2434C90.9404 25.2293 90.9713 25.2262 91 25.2346L92.1432 25.5954C92.2703 25.6428 92.3866 25.7152 92.4851 25.8082C92.5837 25.9013 92.6627 26.0131 92.7172 26.1372C93.3381 27.3294 93.1555 30.2543 92.2407 33.7706C92.2351 33.792 92.2235 33.8113 92.2072 33.8262C92.1909 33.8411 92.1707 33.8509 92.1489 33.8546L92.1488 33.8547ZM91.1244 33.3054L92.0494 33.5968C92.9111 30.2355 93.0945 27.3568 92.5143 26.2428C92.473 26.1457 92.4129 26.0578 92.3373 25.9841C92.2618 25.9104 92.1724 25.8524 92.0743 25.8135L91.4868 25.6278C91.5186 25.6757 91.5478 25.7253 91.5742 25.7764C92.1885 26.9574 92.0153 29.836 91.124 33.3055L91.1244 33.3054Z" fill="black"/>
<path d="M85.0844 40.8973L83.941 40.5365C84.1601 37.788 85.0493 34.2194 86.3189 30.9921C88.0884 26.4938 90.1466 23.7844 91.3389 24.1607L92.4822 24.5216C91.29 24.1453 89.2318 26.8546 87.4622 31.353C86.1925 34.5803 85.3034 38.1488 85.0844 40.8973Z" fill="white"/>
<path d="M85.103 41.0093C85.0852 41.0123 85.0669 41.0111 85.0497 41.0056L83.9064 40.6449C83.8818 40.6371 83.8605 40.6212 83.8461 40.5998C83.8316 40.5784 83.8248 40.5527 83.8269 40.5269C84.0469 37.768 84.9386 34.1876 86.2123 30.9498C87.9972 26.4126 90.0713 23.6402 91.3731 24.0511L92.5163 24.412C92.5309 24.4162 92.5445 24.4234 92.5563 24.433C92.5681 24.4426 92.5779 24.4544 92.5851 24.4678C92.5922 24.4813 92.5966 24.496 92.598 24.5111C92.5994 24.5262 92.5978 24.5415 92.5932 24.556C92.5886 24.5705 92.5812 24.584 92.5713 24.5955C92.5615 24.6071 92.5494 24.6166 92.5358 24.6235C92.5222 24.6304 92.5074 24.6345 92.4923 24.6356C92.4771 24.6366 92.4618 24.6347 92.4474 24.6298C91.467 24.3204 89.4759 26.5445 87.5684 31.394C86.3024 34.6122 85.4163 38.1681 85.1981 40.9057C85.1967 40.9229 85.1915 40.9395 85.1828 40.9543C85.1742 40.9691 85.1623 40.9818 85.148 40.9914C85.1345 41.0006 85.1191 41.0067 85.103 41.0093ZM84.0622 40.4543L84.9821 40.7446C85.2208 38.0057 86.1034 34.4927 87.356 31.3104C88.8645 27.4756 90.5799 24.9014 91.8609 24.4445L91.3045 24.269C90.3241 23.9598 88.333 26.1836 86.4254 31.0331C85.1732 34.2158 84.2926 37.7289 84.0622 40.4543Z" fill="black"/>
<path d="M93.0557 25.0704C93.754 26.4113 93.5128 29.8359 92.4458 33.8414L92.1294 33.7418C93.0278 30.2887 93.221 27.3532 92.6152 26.1899C91.7485 24.5258 89.5291 27.0183 87.6686 31.7483C86.5458 34.6025 85.7593 37.7575 85.5651 40.1908L85.0846 40.8967C85.3036 38.1482 86.1927 34.5797 87.4624 31.3524C89.5648 26.0071 92.0752 23.1882 93.0557 25.0704Z" fill="black"/>
<path d="M85.1032 41.0096C85.0861 41.0125 85.0685 41.0114 85.0519 41.0065C85.0352 41.0016 85.0199 40.9929 85.0071 40.9812C84.9943 40.9695 84.9843 40.955 84.978 40.9388C84.9716 40.9227 84.969 40.9053 84.9704 40.888C85.1904 38.129 86.0821 34.5487 87.3559 31.3107C88.9863 27.1659 90.8879 24.4413 92.2003 24.3737C92.4761 24.359 92.8662 24.4592 93.1573 25.0179C93.8746 26.3949 93.6443 29.7873 92.5566 33.871C92.5526 33.886 92.5456 33.8999 92.5361 33.9121C92.5266 33.9243 92.5147 33.9344 92.5012 33.9418C92.4876 33.9492 92.4727 33.9539 92.4573 33.9554C92.4419 33.9569 92.4264 33.9553 92.4117 33.9507L92.0953 33.851C92.0673 33.8422 92.0438 33.823 92.0296 33.7974C92.0154 33.7717 92.0116 33.7416 92.019 33.7132C92.9065 30.3019 93.1009 27.3697 92.514 26.2428C92.3475 25.9231 92.1372 25.7748 91.8702 25.7891C90.9884 25.8352 89.3799 27.7093 87.7743 31.7903C86.6551 34.6355 85.8716 37.7793 85.6784 40.2002C85.6768 40.2199 85.6701 40.2389 85.659 40.2553L85.1783 40.9613C85.1697 40.974 85.1586 40.9848 85.1457 40.9931C85.1328 41.0014 85.1183 41.007 85.1032 41.0096ZM92.1128 24.6129C90.907 24.8147 89.0993 27.5034 87.5687 31.3943C86.3692 34.4433 85.5103 37.7957 85.2382 40.468L85.4535 40.1519C85.6525 37.714 86.4398 34.5599 87.5621 31.7068C89.0067 28.0349 90.6934 25.6213 91.8586 25.5608C92.1063 25.5478 92.4563 25.6371 92.7169 26.1374C93.3317 27.3176 93.1586 30.1965 92.2676 33.6657L92.3662 33.6968C93.3977 29.7763 93.6289 26.4195 92.9545 25.1234C92.7658 24.7611 92.5161 24.5857 92.2123 24.6018C92.179 24.6037 92.1457 24.6074 92.1128 24.6129Z" fill="black"/>
<path d="M73.5015 27.8709C74.4 24.4176 74.5932 21.4816 73.9878 20.318C73.94 20.2074 73.8705 20.1074 73.7835 20.024C73.6964 19.9406 73.5935 19.8755 73.4808 19.8325L74.6241 20.1933C74.7367 20.2363 74.8396 20.3014 74.9267 20.3848C75.0138 20.4682 75.0833 20.5682 75.1311 20.6789C75.737 21.8422 75.5438 24.7778 74.6453 28.2307L73.5015 27.8709Z" fill="white"/>
<path d="M74.6636 28.3437C74.6458 28.3467 74.6276 28.3455 74.6104 28.3401L73.4669 27.9798C73.4389 27.971 73.4154 27.9518 73.4012 27.9262C73.387 27.9005 73.3832 27.8704 73.3906 27.842C74.2784 24.4305 74.4727 21.4984 73.8858 20.371C73.8445 20.2739 73.7843 20.1859 73.7087 20.1122C73.6332 20.0385 73.5438 19.9805 73.4457 19.9415C73.4168 19.9324 73.3927 19.9122 73.3787 19.8853C73.3648 19.8584 73.3621 19.827 73.3712 19.7981C73.3804 19.7693 73.4006 19.7452 73.4275 19.7312C73.4544 19.7173 73.4858 19.7145 73.5147 19.7237L74.6578 20.0845C74.7849 20.1319 74.9011 20.2042 74.9997 20.2973C75.0982 20.3903 75.1771 20.5022 75.2317 20.6262C75.8527 21.8184 75.6701 24.7434 74.7552 28.2596C74.7497 28.2809 74.738 28.3002 74.7218 28.3151C74.7055 28.33 74.6852 28.3399 74.6634 28.3435L74.6636 28.3437ZM73.6391 27.7945L74.5641 28.0859C75.4259 24.7245 75.6092 21.8458 75.0291 20.732C74.9878 20.6349 74.9276 20.5469 74.8521 20.4732C74.7766 20.3995 74.6872 20.3415 74.5891 20.3025L74.0016 20.1168C74.0335 20.1647 74.0627 20.2144 74.0892 20.2655C74.7033 21.4459 74.5304 24.3249 73.6391 27.7945Z" fill="black"/>
<path d="M67.5998 35.3862L66.4566 35.0253C66.6756 32.2768 67.5647 28.7083 68.8344 25.4808C70.6039 20.9826 72.6621 18.2733 73.8544 18.6502L74.9976 19.0111C73.8054 18.6347 71.7472 21.3441 69.9777 25.8423C68.708 29.0698 67.8189 32.6383 67.5998 35.3868" fill="white"/>
<path d="M67.6186 35.499C67.6008 35.502 67.5825 35.5007 67.5653 35.4952L66.422 35.1344C66.3973 35.1267 66.3761 35.1107 66.3616 35.0893C66.3472 35.0678 66.3405 35.0421 66.3425 35.0164C66.5624 32.2574 67.4541 28.677 68.728 25.4392C70.5127 20.9021 72.5868 18.1298 73.8886 18.5405L75.032 18.9014C75.0603 18.911 75.0837 18.9313 75.0973 18.958C75.1108 18.9846 75.1133 19.0155 75.1043 19.044C75.0952 19.0725 75.0754 19.0963 75.049 19.1104C75.0226 19.1245 74.9918 19.1276 74.9631 19.1192L74.9616 19.1188C73.9806 18.8124 71.9908 21.0364 70.0839 25.8839C68.818 29.102 67.9319 32.6577 67.7136 35.3956C67.7116 35.421 67.7011 35.445 67.6839 35.4638C67.6667 35.4826 67.6437 35.4951 67.6185 35.4993L67.6186 35.499ZM66.5779 34.944L67.4977 35.2343C67.7365 32.4953 68.619 28.9823 69.8715 25.8001C71.3798 21.9649 73.0949 19.3913 74.376 18.9343L73.8197 18.7586C72.8392 18.4494 70.8482 20.6734 68.9406 25.5228C67.6886 28.7058 66.808 32.2185 66.5778 34.944L66.5779 34.944Z" fill="black"/>
<path d="M75.5707 19.56C76.2691 20.901 76.0278 24.3255 74.961 28.3312L74.6445 28.2314C75.543 24.7785 75.7362 21.8429 75.1299 20.6797C74.2632 19.0155 72.0439 21.5079 70.1833 26.238C69.0605 29.0922 68.2739 32.2472 68.0799 34.6806L67.5993 35.3865C67.8183 32.638 68.7075 29.0695 69.9772 25.842C72.0799 20.4967 74.5902 17.6774 75.5707 19.56Z" fill="black"/>
<path d="M67.6188 35.4989C67.6017 35.5018 67.5841 35.5007 67.5675 35.4957C67.5508 35.4908 67.5355 35.4821 67.5227 35.4704C67.5099 35.4587 67.4999 35.4442 67.4936 35.428C67.4872 35.4118 67.4846 35.3944 67.486 35.3771C67.706 32.6181 68.5977 29.0377 69.8714 25.8C71.502 21.6552 73.4034 18.932 74.716 18.8628C74.9917 18.8483 75.3818 18.9483 75.6728 19.507C76.3901 20.8842 76.1599 24.2765 75.0721 28.3603C75.0681 28.3752 75.0612 28.3892 75.0517 28.4013C75.0421 28.4135 75.0303 28.4236 75.0167 28.431C75.0032 28.4384 74.9883 28.4431 74.9729 28.4446C74.9576 28.4461 74.9421 28.4445 74.9273 28.4399L74.6109 28.3403C74.5829 28.3315 74.5594 28.3123 74.5452 28.2866C74.531 28.261 74.5272 28.2308 74.5346 28.2025C75.4222 24.7912 75.6164 21.8589 75.0296 20.732C74.8632 20.4124 74.6528 20.264 74.3857 20.2782C73.5039 20.325 71.8954 22.1986 70.2898 26.2795C69.1705 29.1247 68.387 32.2686 68.1939 34.6893C68.1923 34.7091 68.1856 34.7282 68.1744 34.7446L67.6939 35.4505C67.6852 35.4632 67.6741 35.474 67.6613 35.4823C67.6484 35.4906 67.6339 35.4963 67.6188 35.4989ZM74.6283 19.1021C73.4224 19.3039 71.6147 21.9926 70.0841 25.8835C68.8847 28.9325 68.0257 32.2849 67.7542 34.9572L67.9695 34.6409C68.1685 32.2031 68.9558 29.0489 70.0782 26.1958C71.5227 22.5241 73.209 20.1117 74.3747 20.05C74.6224 20.0368 74.9724 20.1263 75.2329 20.6265C75.8477 21.8068 75.6747 24.6855 74.7835 28.1548L74.8823 28.186C75.9137 24.2655 76.145 20.9086 75.4705 19.6125C75.2823 19.2501 75.0328 19.0748 74.7284 19.0909C74.6948 19.0927 74.6614 19.0965 74.6283 19.1021ZM150.904 84.177C150.796 84.1952 150.684 84.1735 150.59 84.116C150.496 84.0584 150.426 83.9689 150.393 83.8639C150.36 83.7589 150.366 83.6454 150.409 83.5444C150.453 83.4433 150.532 83.3615 150.632 83.314L164.291 76.778C164.401 76.7257 164.526 76.7189 164.641 76.7592C164.755 76.7994 164.849 76.8835 164.901 76.9928C164.953 77.1021 164.96 77.2278 164.92 77.3421C164.88 77.4564 164.795 77.55 164.686 77.6024L151.027 84.1382C150.988 84.1568 150.947 84.1699 150.904 84.177Z" fill="black"/>
<path d="M160.813 87.2986C160.716 87.3148 160.615 87.299 160.527 87.2535C160.44 87.208 160.369 87.1352 160.326 87.046L154.168 74.2674C154.141 74.2132 154.125 74.1542 154.121 74.0938C154.117 74.0334 154.125 73.9728 154.145 73.9156C154.164 73.8583 154.195 73.8055 154.235 73.7602C154.276 73.715 154.324 73.6781 154.379 73.6518C154.433 73.6256 154.493 73.6104 154.553 73.6072C154.614 73.604 154.674 73.6128 154.731 73.6332C154.788 73.6536 154.841 73.685 154.885 73.7258C154.93 73.7666 154.966 73.8159 154.992 73.8707L161.15 86.6493C161.181 86.7133 161.196 86.7835 161.195 86.8544C161.194 86.9253 161.177 86.9951 161.144 87.0581C161.111 87.1211 161.064 87.1756 161.007 87.2173C160.95 87.2591 160.883 87.2869 160.813 87.2986ZM120.533 111.769C120.424 111.787 120.312 111.765 120.218 111.708C120.124 111.65 120.054 111.561 120.021 111.456C119.988 111.351 119.994 111.237 120.038 111.136C120.082 111.035 120.161 110.953 120.26 110.906L133.92 104.37C134.029 104.32 134.153 104.314 134.266 104.355C134.379 104.396 134.471 104.479 134.523 104.588C134.575 104.696 134.582 104.82 134.543 104.934C134.504 105.047 134.422 105.141 134.314 105.194L120.655 111.73C120.616 111.749 120.575 111.762 120.533 111.769Z" fill="black"/>
<path d="M130.442 114.89C130.344 114.906 130.244 114.89 130.156 114.845C130.068 114.799 129.997 114.727 129.954 114.637L123.796 101.859C123.769 101.805 123.754 101.746 123.75 101.686C123.746 101.625 123.754 101.565 123.774 101.508C123.793 101.451 123.824 101.398 123.864 101.353C123.905 101.308 123.953 101.271 124.008 101.245C124.062 101.218 124.121 101.203 124.182 101.2C124.242 101.197 124.302 101.205 124.359 101.226C124.416 101.246 124.469 101.277 124.514 101.318C124.558 101.358 124.595 101.408 124.62 101.462L130.778 114.241C130.809 114.305 130.825 114.375 130.823 114.446C130.822 114.517 130.805 114.587 130.772 114.65C130.74 114.712 130.693 114.767 130.635 114.809C130.578 114.851 130.512 114.878 130.442 114.89ZM74.4129 78.6609C74.3042 78.679 74.1925 78.6574 74.0986 78.5999C74.0046 78.5423 73.9346 78.4528 73.9014 78.3478C73.8682 78.2428 73.8741 78.1293 73.918 78.0282C73.9619 77.9272 74.0408 77.8454 74.1402 77.7979L87.7994 71.2619C87.8535 71.236 87.9123 71.221 87.9722 71.2178C88.0322 71.2146 88.0922 71.2232 88.1488 71.2431C88.2055 71.2631 88.2576 71.294 88.3023 71.334C88.347 71.3741 88.3833 71.4226 88.4092 71.4768C88.4352 71.5309 88.4502 71.5896 88.4534 71.6495C88.4566 71.7094 88.448 71.7694 88.428 71.826C88.4081 71.8826 88.3771 71.9347 88.337 71.9794C88.2969 72.0241 88.2483 72.0604 88.1942 72.0863L74.5347 78.6222C74.4961 78.6407 74.4551 78.6537 74.4129 78.6609Z" fill="black"/>
<path d="M84.321 81.7824C84.2234 81.7987 84.1231 81.7828 84.0352 81.7373C83.9474 81.6918 83.8766 81.619 83.8337 81.5298L77.6757 68.7512C77.6487 68.697 77.6328 68.638 77.6288 68.5776C77.6248 68.5172 77.6328 68.4567 77.6524 68.3994C77.672 68.3421 77.7029 68.2893 77.7431 68.244C77.7833 68.1988 77.8321 68.1619 77.8867 68.1357C77.9412 68.1094 78.0005 68.0942 78.061 68.091C78.1214 68.0878 78.1819 68.0966 78.239 68.117C78.296 68.1374 78.3484 68.1689 78.3932 68.2096C78.4379 68.2504 78.4741 68.2997 78.4997 68.3546L84.6577 81.1332C84.6885 81.1971 84.704 81.2673 84.703 81.3382C84.7019 81.4091 84.6844 81.4789 84.6517 81.5419C84.619 81.6048 84.5721 81.6594 84.5147 81.7011C84.4573 81.7429 84.391 81.7707 84.321 81.7824Z" fill="black"/>
</g>
<g clip-path="url(#clip1_1687_1465)">
<path d="M166.514 63.7512L170.307 66.8222L158.937 70.6577L155.144 67.5867L166.514 63.7512Z" fill="url(#paint1_linear_1687_1465)"/>
<path d="M158.937 70.8018C158.905 70.8018 158.873 70.7908 158.847 70.7698L155.053 67.6988C155.033 67.6826 155.018 67.6613 155.009 67.6372C155 67.6131 154.998 67.5869 155.002 67.5616C155.007 67.5362 155.018 67.5126 155.035 67.4931C155.052 67.4736 155.074 67.459 155.098 67.4508L166.468 63.6152C166.515 63.5994 166.566 63.6088 166.605 63.6397L170.398 66.7107C170.418 66.7268 170.433 66.7481 170.442 66.7722C170.451 66.7964 170.454 66.8225 170.449 66.8478C170.444 66.8732 170.433 66.8968 170.416 66.9163C170.399 66.9358 170.378 66.9504 170.353 66.9586L158.983 70.7941C158.969 70.7991 158.953 70.8018 158.937 70.8018ZM155.438 67.64L158.966 70.4967L170.014 66.77L166.485 63.9133L155.438 67.64Z" fill="#111111"/>
<path d="M207.525 24.3127L211.318 27.3836C217.815 32.6435 220.813 40.8752 218.43 49.6246C214.678 63.3951 199.012 73.2334 183.44 71.5981C178.332 71.0617 173.868 69.3568 170.307 66.8226L166.514 63.7517C170.075 66.2858 174.539 67.9909 179.646 68.5272C195.219 70.1625 210.885 60.3244 214.636 46.5537C217.02 37.8043 214.022 29.5726 207.525 24.3127Z" fill="url(#paint2_linear_1687_1465)"/>
<path d="M186.831 71.9187C185.697 71.9187 184.562 71.8606 183.424 71.7412C178.471 71.2209 173.907 69.5607 170.223 66.9398L166.423 63.8634C166.394 63.8399 166.376 63.806 166.371 63.769C166.367 63.732 166.377 63.6947 166.399 63.6651C166.422 63.6354 166.455 63.6157 166.492 63.61C166.529 63.6044 166.567 63.6132 166.597 63.6348C170.24 66.2271 174.758 67.8694 179.661 68.3843C180.784 68.502 181.912 68.5608 183.041 68.5605C197.355 68.5608 211.041 59.2036 214.498 46.5161C216.786 38.1164 214.146 29.8578 207.434 24.4246C207.419 24.4128 207.407 24.3982 207.398 24.3815C207.388 24.3649 207.383 24.3466 207.38 24.3277C207.378 24.3088 207.38 24.2897 207.385 24.2714C207.391 24.2532 207.4 24.2362 207.412 24.2214C207.424 24.2066 207.439 24.1944 207.455 24.1854C207.472 24.1763 207.49 24.1708 207.509 24.1689C207.528 24.167 207.548 24.169 207.566 24.1745C207.584 24.1801 207.601 24.1893 207.615 24.2014L211.409 27.2723C218.211 32.7795 220.888 41.1498 218.568 49.6627C215.079 62.4709 201.269 71.9181 186.831 71.919L186.831 71.9187ZM168.557 65.2207L170.398 66.7111C174.033 69.2979 178.551 70.9402 183.455 71.4553C184.577 71.573 185.706 71.6318 186.835 71.6315C201.149 71.6318 214.834 62.2746 218.291 49.587C220.579 41.1873 217.939 32.9288 211.227 27.4955L210.263 26.7144C215.078 32.0899 216.765 39.2883 214.775 46.5917C211.286 59.3998 197.476 68.8471 183.038 68.8478C181.904 68.8478 180.768 68.7897 179.631 68.6703C175.592 68.2462 171.812 67.0638 168.556 65.2209L168.557 65.2207Z" fill="#111111"/>
<path d="M193.233 18.6566C208.806 20.2919 218.388 32.7814 214.636 46.5534C210.884 60.324 195.219 70.1622 179.646 68.5269C174.538 67.9906 170.075 66.2856 166.513 63.7514L155.144 67.5869L161.252 58.5232C157.717 53.5606 156.443 47.244 158.244 40.6314C161.996 26.8596 177.662 17.0214 193.233 18.6566Z" fill="white"/>
<path d="M183.039 68.8472C181.905 68.8472 180.769 68.7891 179.632 68.6697C174.706 68.1524 170.164 66.5073 166.491 63.9108L155.191 67.723C155.162 67.7326 155.131 67.733 155.103 67.7242C155.074 67.7155 155.049 67.6979 155.03 67.674C155.012 67.6501 155.002 67.6211 155.001 67.5911C155 67.561 155.009 67.5315 155.025 67.5066L161.079 58.5252C157.423 53.3425 156.367 46.9789 158.107 40.5937C161.87 26.779 177.636 16.8747 193.249 18.5135C201.2 19.3484 208.024 23.1335 211.973 28.8982C215.49 34.0331 216.485 40.3164 214.776 46.591C211.286 59.399 197.477 68.847 183.039 68.847L183.039 68.8472ZM166.514 63.6076C166.544 63.6076 166.573 63.6166 166.598 63.6343C170.241 66.2266 174.758 67.869 179.662 68.3838C195.142 70.0102 210.77 60.1994 214.498 46.5155C216.185 40.3238 215.204 34.1248 211.735 29.0606C207.834 23.3655 201.086 19.6255 193.219 18.7995C177.739 17.1738 162.112 26.9847 158.384 40.6693C156.659 47.003 157.719 53.3141 161.371 58.4398C161.388 58.4637 161.397 58.4921 161.397 58.5214C161.398 58.5506 161.389 58.5793 161.373 58.6035L155.501 67.3147L166.468 63.6151C166.483 63.61 166.499 63.6074 166.514 63.6074L166.514 63.6076Z" fill="#111111"/>
<path d="M201.504 33.4278C202.142 33.4948 202.714 33.8112 203.082 34.3686C203.858 35.5426 203.433 37.3429 202.134 38.3866L182.72 54.0124C182.041 54.5585 181.253 54.7925 180.544 54.718C179.962 54.657 179.433 54.3868 179.064 53.9126L172.079 44.9428C171.221 43.84 171.533 42.0383 172.778 40.9179C173.485 40.2809 174.341 40.0017 175.106 40.082C175.687 40.143 176.215 40.411 176.586 40.887L182.114 47.9879L199.327 34.1342C200.009 33.5852 200.797 33.3536 201.504 33.4278Z" fill="#B246FF"/>
<path d="M180.8 54.8761C180.709 54.8761 180.618 54.8715 180.529 54.862C179.89 54.7949 179.33 54.4895 178.95 54.002L171.965 45.0321C171.063 43.8729 171.384 41.9798 172.681 40.8122C173.394 40.1701 174.282 39.8522 175.121 39.9401C175.759 40.0071 176.319 40.3124 176.699 40.7997L182.137 47.7852L199.236 34.0232C199.919 33.474 200.751 33.2053 201.519 33.2857C202.225 33.3599 202.823 33.7168 203.202 34.2903C204.017 35.5235 203.578 37.4117 202.224 38.4995L182.81 54.1252C182.207 54.6099 181.488 54.876 180.8 54.876L180.8 54.8761ZM174.844 40.2133C174.161 40.2133 173.456 40.5018 172.874 41.0258C171.687 42.0948 171.381 43.813 172.193 44.8556L179.177 53.8254C179.509 54.2506 179.999 54.5172 180.559 54.5762C181.252 54.6493 182.006 54.403 182.63 53.9014L202.044 38.2756C203.285 37.2781 203.697 35.5616 202.962 34.4487C202.631 33.9483 202.108 33.6367 201.489 33.5716C200.797 33.4987 200.041 33.7451 199.417 34.2469L182.204 48.1008C182.189 48.1128 182.172 48.1217 182.154 48.127C182.136 48.1323 182.116 48.1339 182.097 48.1317C182.078 48.1295 182.06 48.1235 182.043 48.1141C182.027 48.1048 182.012 48.0922 182 48.0771L176.473 40.9762C176.136 40.545 175.659 40.2856 175.091 40.226C175.009 40.2174 174.926 40.2131 174.844 40.2132L174.844 40.2133Z" fill="#111111"/>
</g>
<defs>
<linearGradient id="paint0_linear_1687_1465" x1="182.515" y1="70.0878" x2="59.5687" y2="340.466" gradientUnits="userSpaceOnUse">
<stop stop-color="#701AFF"/>
<stop offset="1" stop-color="#FE557A"/>
</linearGradient>
<linearGradient id="paint1_linear_1687_1465" x1="170.307" y1="64.4169" x2="158.026" y2="84.9521" gradientUnits="userSpaceOnUse">
<stop stop-color="#701AFF"/>
<stop offset="1" stop-color="#FE557A"/>
</linearGradient>
<linearGradient id="paint2_linear_1687_1465" x1="219.243" y1="28.8875" x2="124.767" y2="108.826" gradientUnits="userSpaceOnUse">
<stop stop-color="#701AFF"/>
<stop offset="1" stop-color="#FE557A"/>
</linearGradient>
<clipPath id="clip0_1687_1465">
<rect width="173.28" height="151.31" fill="white" transform="translate(0 28.5999) rotate(-9.5)"/>
</clipPath>
<clipPath id="clip1_1687_1465">
<rect width="64.3871" height="53.5839" fill="white" transform="translate(155 18.3352)"/>
</clipPath>
</defs>
</svg>
