<svg viewBox="0 0 468 213" fill="none" xmlns="http://www.w3.org/2000/svg">
<path d="M398.09 73.0033C396.974 72.3286 395.798 71.7584 394.578 71.3C393.928 71.0873 393.251 70.968 392.567 70.9458C391.782 70.9078 390.998 71.0555 390.281 71.377C389.452 71.7705 388.744 72.38 388.231 73.1416C387.719 73.9032 387.421 74.7886 387.37 75.705C387.372 76.8094 387.652 77.8955 388.181 78.8644C388.646 79.8565 389.202 80.8061 389.585 81.8374C389.548 81.7336 389.512 81.6298 389.476 81.526C389.652 81.9657 389.771 82.4262 389.829 82.8962C389.793 82.7924 389.807 82.6815 389.789 82.5711C389.819 82.8256 389.816 83.0827 389.782 83.3366C389.796 83.2257 389.811 83.1147 389.834 83.0005C389.796 83.2126 389.734 83.4195 389.648 83.617L389.788 83.2922C389.707 83.4779 389.6 83.651 389.47 83.8064L389.684 83.5405C389.507 83.7539 389.303 83.9432 389.077 84.1035L389.349 83.9127C389.111 84.0739 388.856 84.2093 388.59 84.3168L388.901 84.2075C388.641 84.2986 388.371 84.3612 388.097 84.3941L388.426 84.3636C388.07 84.3995 387.71 84.3903 387.357 84.3361L387.693 84.3878C387.316 84.3269 386.95 84.2167 386.603 84.0602L386.918 84.2039C385.746 83.672 384.756 82.8431 383.512 82.3787C382.976 82.1937 382.413 82.1009 381.847 82.1044C381.106 82.0952 380.383 82.3266 379.785 82.7637C379.188 83.2008 378.748 83.8201 378.533 84.5285C378.332 85.1147 378.258 85.7367 378.315 86.3536C378.406 87.3366 378.627 88.3031 378.973 89.2276C379.34 90.1642 379.603 91.1378 379.759 92.1313C379.722 92.0275 379.737 91.9166 379.719 91.8062C379.77 92.246 379.762 92.6907 379.696 93.1285L379.747 92.7925C379.693 93.1438 379.597 93.4873 379.46 93.8154L379.603 93.5C379.491 93.7418 379.35 93.9691 379.184 94.1771L379.407 93.9079C379.272 94.0601 379.122 94.1981 378.958 94.3198L379.23 94.1289C379.052 94.2447 378.863 94.343 378.666 94.4224L378.977 94.3131C378.734 94.404 378.48 94.4612 378.221 94.4832L378.567 94.3512C378.23 94.3767 377.891 94.364 377.557 94.3133L377.884 94.3683C377.392 94.282 376.914 94.1288 376.463 93.913L376.778 94.0567C375.982 93.6897 375.231 93.2113 374.438 92.8221C373.629 92.4018 372.752 92.1317 371.847 92.0247C370.991 91.927 370.125 92.094 369.366 92.5033C368.571 92.9697 367.961 93.6965 367.64 94.5608C367.474 94.9893 367.386 95.4436 367.379 95.9027C367.38 96.45 367.487 96.992 367.695 97.4981C367.776 97.6504 367.887 97.7846 368.021 97.8924C368.156 98.0001 368.311 98.0792 368.477 98.1247C368.794 98.2235 369.137 98.1962 369.435 98.0484C369.732 97.9005 369.961 97.6436 370.074 97.331L370.129 97.0044C370.138 96.7826 370.087 96.5626 369.98 96.3679C370.016 96.4717 370.053 96.5755 370.089 96.6793C370.023 96.4891 369.975 96.2928 369.947 96.0933C369.984 96.1971 369.973 96.3174 369.987 96.4184C369.964 96.1878 369.968 95.9553 369.998 95.7256C369.987 95.8355 369.969 95.9446 369.943 96.0522C369.989 95.8075 370.061 95.5688 370.16 95.3404L370.016 95.6557C370.122 95.4295 370.253 95.2162 370.408 95.0202L370.185 95.2894C370.324 95.1248 370.482 94.9769 370.655 94.8487L370.383 95.0396C370.557 94.9158 370.747 94.817 370.948 94.7461L370.636 94.8553C370.869 94.7738 371.11 94.7211 371.355 94.6985L371.026 94.729C371.36 94.6981 371.697 94.712 372.027 94.7702L371.7 94.7153C372.194 94.8042 372.675 94.9561 373.13 95.1672L372.815 95.0235C374.041 95.7318 375.32 96.3461 376.639 96.861C377.239 97.0409 377.867 97.1114 378.492 97.0691C379.19 97.041 379.87 96.8355 380.466 96.472C380.866 96.2027 381.218 95.8679 381.507 95.4816C381.742 95.1434 381.93 94.7743 382.065 94.3848C382.286 93.7785 382.395 93.137 382.386 92.4917C382.353 91.4311 382.147 90.383 381.775 89.3892C381.374 88.3797 381.087 87.3288 380.919 86.2558C380.952 86.3502 380.989 86.4539 380.949 86.5842C380.912 86.2295 380.918 85.8714 380.968 85.5181L380.913 85.8447C380.954 85.5794 381.031 85.3207 381.141 85.0758L380.997 85.3912C381.081 85.2016 381.19 85.0243 381.321 84.8642L381.097 85.1334C381.213 84.9914 381.347 84.8658 381.496 84.7603L381.224 84.9511C381.367 84.8555 381.521 84.7767 381.682 84.7162L381.371 84.8255C381.561 84.7573 381.759 84.7127 381.96 84.6929L381.632 84.7234C381.901 84.7034 382.172 84.7151 382.439 84.7581C382.329 84.7465 382.22 84.7282 382.112 84.7032C382.498 84.7743 382.873 84.8916 383.231 85.0524L382.916 84.9088C383.648 85.2451 384.27 85.7477 385.016 86.1219C385.815 86.5783 386.705 86.8557 387.622 86.9348C388.47 86.999 389.32 86.8361 390.085 86.4629C390.701 86.1513 391.24 85.7051 391.661 85.1572C391.971 84.7217 392.186 84.2266 392.295 83.7034C392.403 83.1801 392.401 82.6401 392.29 82.1175C392.114 81.1783 391.796 80.2714 391.347 79.4282C390.912 78.5211 390.411 77.6371 390.061 76.7001C390.097 76.8039 390.134 76.9077 390.17 77.0115C390.027 76.6526 389.931 76.2768 389.884 75.8932C389.92 75.997 389.906 76.1079 389.914 76.2217C389.894 75.9417 389.905 75.6604 389.948 75.383C389.925 75.4972 389.911 75.6082 389.897 75.7191C389.947 75.3771 390.044 75.0435 390.185 74.7278L390.044 75.0526C390.184 74.737 390.366 74.4417 390.584 74.1744L390.361 74.4436C390.566 74.1939 390.8 73.9694 391.059 73.7748L390.786 73.9656C391.042 73.788 391.319 73.6443 391.611 73.5384L391.3 73.6476C391.59 73.5477 391.89 73.4814 392.195 73.4501L391.867 73.4806C392.246 73.4499 392.627 73.4619 393.003 73.5165C392.893 73.5049 392.784 73.4866 392.676 73.4615C393.41 73.6026 394.122 73.8369 394.797 74.1588L394.481 74.0151C395.249 74.3604 395.98 74.7822 396.717 75.1913C397.01 75.3698 397.361 75.4288 397.697 75.3562C397.871 75.318 398.035 75.2458 398.182 75.1436C398.328 75.0415 398.452 74.9114 398.547 74.7609C398.716 74.4661 398.762 74.1173 398.676 73.7889C398.591 73.4605 398.38 73.1786 398.09 73.0033Z" fill="#FFC850"/>
<path d="M225.287 47.5673C224.952 48.8275 224.735 50.1159 224.637 51.4161C224.615 52.0997 224.691 52.783 224.861 53.4454C225.045 54.2099 225.406 54.9203 225.916 55.5189C226.526 56.2045 227.31 56.7131 228.184 56.9913C229.059 57.2694 229.993 57.3069 230.887 57.0997C231.946 56.7873 232.91 56.2148 233.692 55.4345C234.514 54.7102 235.269 53.9105 236.152 53.2536C236.062 53.3177 235.973 53.3817 235.884 53.4458C236.256 53.1535 236.665 52.9103 237.1 52.7221C237.01 52.7862 236.9 52.8038 236.799 52.8516C237.035 52.7521 237.282 52.6822 237.535 52.6436C237.425 52.6612 237.315 52.6788 237.198 52.6883C237.413 52.6652 237.629 52.6673 237.842 52.6943L237.491 52.6506C237.692 52.6761 237.888 52.7303 238.074 52.8114L237.759 52.6805C238.013 52.7907 238.252 52.9338 238.47 53.1061L238.21 52.8984C238.432 53.0816 238.633 53.2879 238.811 53.5136L238.619 53.2454C238.779 53.4697 238.915 53.7108 239.023 53.9644L238.902 53.6576C239.036 53.9895 239.128 54.337 239.175 54.6918L239.131 54.3548C239.178 54.7329 239.175 55.1155 239.122 55.4929L239.171 55.1499C238.989 56.4242 238.471 57.6072 238.375 58.9314C238.347 59.4972 238.416 60.0635 238.578 60.6062C238.777 61.3195 239.202 61.949 239.789 62.4001C240.376 62.8512 241.094 63.0996 241.834 63.1078C242.453 63.1361 243.071 63.0329 243.647 62.8053C244.565 62.4423 245.431 61.9586 246.221 61.3671C247.018 60.7528 247.878 60.2269 248.788 59.7987C248.699 59.8627 248.588 59.8803 248.487 59.9282C248.895 59.7561 249.324 59.639 249.763 59.5799L249.426 59.6245C249.778 59.5779 250.135 59.5743 250.489 59.6137L250.146 59.5642C250.409 59.604 250.667 59.6754 250.913 59.777L250.592 59.638C250.776 59.7252 250.951 59.8308 251.113 59.9534L250.854 59.7457C251.015 59.8844 251.162 60.0384 251.294 60.2054L251.102 59.9372C251.257 60.1451 251.383 60.3733 251.477 60.6155L251.253 60.3206C251.372 60.6367 251.455 60.9654 251.5 61.3002L251.461 60.9712C251.516 61.4678 251.503 61.9697 251.423 62.4628L251.472 62.1198C251.343 62.9871 251.094 63.8419 250.943 64.7128C250.767 65.6063 250.753 66.5244 250.904 67.4226C251.051 68.2723 251.454 69.0567 252.06 69.6704C252.73 70.303 253.599 70.6844 254.519 70.7502C254.976 70.7888 255.437 70.746 255.88 70.6239C256.405 70.47 256.895 70.215 257.322 69.8732C257.446 69.7532 257.544 69.6091 257.61 69.4498C257.675 69.2906 257.708 69.1196 257.705 68.9473C257.711 68.6151 257.588 68.2934 257.363 68.0492C257.138 67.805 256.827 67.6572 256.495 67.6366L256.166 67.6754C255.951 67.7289 255.754 67.8401 255.597 67.9971C255.686 67.933 255.776 67.869 255.865 67.8049C255.701 67.9221 255.526 68.0229 255.343 68.1056C255.432 68.0415 255.55 68.0181 255.643 67.9761C255.429 68.0629 255.204 68.1244 254.975 68.1596C255.084 68.1399 255.194 68.1269 255.304 68.1207C255.057 68.146 254.807 68.1432 254.56 68.1125L254.903 68.162C254.656 68.1241 254.415 68.0578 254.183 67.9643L254.504 68.1033C254.307 68.0157 254.121 67.9056 253.949 67.7751L254.209 67.9828C254.041 67.8509 253.893 67.6962 253.769 67.5231L253.961 67.7914C253.818 67.5913 253.699 67.3744 253.609 67.1455L253.73 67.4523C253.607 67.1406 253.526 66.8139 253.49 66.4808L253.528 66.8097C253.475 66.3105 253.486 65.8065 253.561 65.3101L253.512 65.6531C253.848 64.2772 254.079 62.8779 254.203 61.4671C254.207 60.8404 254.099 60.2181 253.883 59.6297C253.66 58.9677 253.273 58.3733 252.756 57.9028C252.386 57.5942 251.966 57.3504 251.514 57.1815C251.123 57.0501 250.716 56.9732 250.305 56.9531C249.661 56.9109 249.014 56.9863 248.397 57.1755C247.388 57.5048 246.44 57.997 245.591 58.6327C244.734 59.3002 243.806 59.8704 242.823 60.3327C242.904 60.2745 242.994 60.2104 243.13 60.2114C242.8 60.347 242.454 60.4416 242.101 60.493L242.43 60.4542C242.164 60.4889 241.894 60.4878 241.628 60.4507L241.971 60.5002C241.766 60.4732 241.565 60.4183 241.375 60.3371L241.696 60.4762C241.527 60.4053 241.369 60.3117 241.226 60.1979L241.485 60.4056C241.353 60.295 241.234 60.1696 241.131 60.0318L241.323 60.3C241.205 60.1365 241.106 59.959 241.031 59.7715L241.152 60.0782C241.057 59.8252 240.993 59.5619 240.959 59.2938C240.979 59.4026 240.992 59.5124 240.998 59.6228C240.958 59.2327 240.966 58.8393 241.02 58.451L240.97 58.794C241.088 57.9963 241.396 57.2589 241.546 56.438C241.76 55.5424 241.776 54.6111 241.595 53.7084C241.419 52.8762 241.024 52.106 240.452 51.4769C239.98 50.9723 239.4 50.5802 238.756 50.3297C238.251 50.1547 237.716 50.0864 237.183 50.1292C236.65 50.172 236.132 50.3249 235.662 50.5783C234.81 51.0105 234.029 51.5702 233.345 52.2381C232.596 52.91 231.888 53.6387 231.087 54.2374C231.177 54.1733 231.266 54.1092 231.355 54.0452C231.051 54.2833 230.717 54.4812 230.362 54.6337C230.452 54.5696 230.562 54.552 230.669 54.5123C230.406 54.6102 230.133 54.678 229.854 54.7146C229.971 54.7051 230.081 54.6875 230.192 54.67C229.849 54.7175 229.502 54.718 229.159 54.6714L229.51 54.7151C229.168 54.6694 228.834 54.578 228.516 54.4434L228.837 54.5824C228.54 54.4552 228.259 54.2933 227.999 54.1L228.259 54.3077C228.017 54.1125 227.801 53.8865 227.617 53.6356L227.81 53.9038C227.632 53.6537 227.485 53.384 227.369 53.1L227.49 53.4067C227.355 53.0518 227.259 52.6826 227.206 52.3063C227.226 52.415 227.239 52.5249 227.245 52.6352C227.175 51.8914 227.2 51.1417 227.32 50.4043L227.27 50.7473C227.387 49.9137 227.586 49.0938 227.772 48.2717C227.862 47.94 227.82 47.5867 227.656 47.2849C227.571 47.1285 227.455 46.9905 227.316 46.879C227.177 46.7675 227.017 46.6846 226.846 46.6351C226.516 46.5563 226.168 46.6097 225.877 46.7839C225.586 46.9581 225.374 47.2392 225.287 47.5673Z" fill="#FFC850"/>
<path d="M398.389 -2.57411C397.114 -2.84631 395.817 -3.00012 394.513 -3.03359C393.829 -3.02175 393.151 -2.91279 392.497 -2.70998C391.743 -2.48875 391.051 -2.09269 390.479 -1.55397C389.824 -0.910692 389.354 -0.102958 389.12 0.784361C388.885 1.67168 388.894 2.60583 389.145 3.48866C389.509 4.53122 390.128 5.46608 390.946 6.2081C391.71 6.99337 392.546 7.70863 393.246 8.55769C393.177 8.47154 393.109 8.3854 393.041 8.29925C393.351 8.65707 393.614 9.05328 393.823 9.47814C393.755 9.39199 393.732 9.28258 393.679 9.18399C393.79 9.41483 393.872 9.65855 393.923 9.90956C393.9 9.80015 393.877 9.69074 393.862 9.57511C393.896 9.78789 393.904 10.0039 393.888 10.2187L393.914 9.86579C393.899 10.0677 393.854 10.2663 393.782 10.4556L393.898 10.1343C393.8 10.394 393.669 10.6397 393.508 10.8654L393.702 10.5959C393.53 10.8261 393.334 11.0374 393.117 11.2262L393.376 11.021C393.16 11.1923 392.926 11.3397 392.678 11.4604L392.978 11.3241C392.653 11.4747 392.311 11.5836 391.958 11.6483L392.293 11.5871C391.918 11.6527 391.535 11.6686 391.156 11.6344L391.501 11.6669C390.219 11.5481 389.012 11.0892 387.685 11.0577C387.118 11.0581 386.556 11.1548 386.022 11.3436C385.319 11.5773 384.711 12.0328 384.29 12.6415C383.868 13.2502 383.656 13.9793 383.684 14.7192C383.686 15.3388 383.82 15.9508 384.075 16.5151C384.483 17.4141 385.009 18.2548 385.639 19.015C386.292 19.78 386.859 20.6137 387.332 21.5014C387.264 21.4152 387.241 21.3058 387.188 21.2072C387.38 21.6063 387.518 22.029 387.599 22.4644L387.537 22.13C387.601 22.4797 387.623 22.8358 387.601 23.1906L387.633 22.8456C387.606 23.1107 387.548 23.3717 387.458 23.6227L387.581 23.2952C387.503 23.4833 387.406 23.6629 387.292 23.8314L387.487 23.5619C387.356 23.7297 387.21 23.8845 387.049 24.0241L387.308 23.8189C387.108 23.9844 386.886 24.1218 386.649 24.2272L386.932 23.9893C386.622 24.1237 386.298 24.2226 385.966 24.284L386.293 24.229C385.799 24.3087 385.298 24.3205 384.801 24.2641L385.146 24.2966C384.273 24.2106 383.407 24.0044 382.53 23.8965C381.629 23.7639 380.711 23.796 379.822 23.9911C378.98 24.1792 378.217 24.6206 377.634 25.2558C377.035 25.9569 376.697 26.8433 376.676 27.7651C376.66 28.224 376.726 28.6822 376.87 29.1183C377.049 29.6353 377.328 30.1122 377.691 30.5222C377.817 30.6398 377.965 30.7303 378.128 30.7881C378.29 30.8459 378.462 30.8698 378.634 30.8584C378.966 30.8479 379.282 30.7098 379.514 30.4726C379.747 30.2355 379.879 29.9177 379.884 29.5855L379.829 29.2589C379.765 29.0463 379.644 28.8553 379.479 28.7063C379.548 28.7924 379.616 28.8786 379.684 28.9647C379.559 28.8068 379.45 28.6369 379.358 28.4575C379.427 28.5437 379.456 28.6609 379.503 28.7517C379.405 28.5413 379.333 28.3204 379.286 28.0933C379.311 28.201 379.33 28.3101 379.341 28.42C379.304 28.174 379.294 27.9246 379.313 27.6765L379.28 28.0215C379.306 27.7731 379.36 27.5286 379.442 27.2928L379.319 27.6203C379.397 27.4191 379.498 27.2277 379.62 27.0498L379.425 27.3192C379.549 27.1455 379.696 26.9899 379.863 26.857L379.604 27.0622C379.797 26.9091 380.008 26.7804 380.232 26.6788L379.931 26.8151C380.237 26.6767 380.559 26.5796 380.89 26.5266L380.563 26.5816C381.059 26.5039 381.563 26.49 382.063 26.5403L381.718 26.5078C383.108 26.7756 384.517 26.9374 385.933 26.992C386.559 26.9654 387.175 26.8264 387.752 26.5818C388.402 26.3267 388.977 25.9101 389.421 25.3713C389.711 24.9859 389.934 24.5543 390.08 24.0947C390.192 23.698 390.249 23.2878 390.249 22.8756C390.259 22.2303 390.152 21.5885 389.933 20.9816C389.554 19.9903 389.016 19.0677 388.339 18.2504C387.63 17.4277 387.015 16.5287 386.504 15.5699C386.567 15.6482 386.635 15.7344 386.641 15.8703C386.489 15.5474 386.377 15.2071 386.309 14.857L386.364 15.1836C386.316 14.9194 386.304 14.6498 386.328 14.3823L386.295 14.7274C386.312 14.5209 386.357 14.3178 386.429 14.1235L386.305 14.451C386.368 14.279 386.454 14.1164 386.56 13.9678L386.366 14.2372C386.47 14.1 386.589 13.9752 386.722 13.8653L386.463 14.0705C386.621 13.9437 386.793 13.8368 386.977 13.7522L386.676 13.8886C386.924 13.7815 387.184 13.7038 387.45 13.6572C387.342 13.6822 387.233 13.7006 387.123 13.7122C387.511 13.6532 387.904 13.641 388.295 13.6759L387.95 13.6434C388.752 13.7213 389.504 13.9928 390.331 14.102C391.236 14.2715 392.167 14.2424 393.06 14.0169C393.883 13.7997 394.632 13.3675 395.232 12.7646C395.713 12.2683 396.076 11.6702 396.295 11.0147C396.445 10.5018 396.486 9.96341 396.417 9.43356C396.348 8.90371 396.17 8.39396 395.894 7.93657C395.42 7.10671 394.823 6.35403 394.122 5.7045C393.414 4.98972 392.651 4.31846 392.014 3.54772C392.082 3.63387 392.15 3.72002 392.219 3.80617C391.966 3.51402 391.752 3.1904 391.582 2.84333C391.65 2.92948 391.673 3.03888 391.718 3.14369C391.608 2.88577 391.526 2.61619 391.476 2.34005C391.491 2.45568 391.514 2.56508 391.537 2.67449C391.473 2.33484 391.455 1.98797 391.485 1.64354L391.459 1.9964C391.487 1.65247 391.562 1.31395 391.681 0.9899L391.558 1.31741C391.67 1.01423 391.818 0.725403 391.998 0.456958L391.804 0.72642C391.987 0.474963 392.202 0.248439 392.443 0.052559L392.185 0.257752C392.426 0.0684551 392.688 -0.0924962 392.966 -0.221932L392.666 -0.085619C393.014 -0.238677 393.378 -0.352054 393.751 -0.423612C393.643 -0.398583 393.534 -0.380209 393.424 -0.368598C394.164 -0.475539 394.914 -0.487453 395.656 -0.40405L395.311 -0.436563C396.149 -0.361612 396.978 -0.202365 397.808 -0.0571656C398.144 0.0154231 398.495 -0.0436477 398.788 -0.222194C398.94 -0.315241 399.072 -0.43747 399.177 -0.581829C399.282 -0.726188 399.356 -0.889822 399.397 -1.06328C399.46 -1.39685 399.389 -1.74161 399.201 -2.02391C399.013 -2.30621 398.721 -2.50367 398.389 -2.57411Z" fill="#45CB71"/>
<path d="M87.0897 181.003C85.974 180.329 84.7983 179.758 83.5777 179.3C82.9276 179.087 82.2506 178.968 81.567 178.946C80.7816 178.908 79.9984 179.056 79.2808 179.377C78.4516 179.77 77.7437 180.38 77.2314 181.142C76.7191 181.903 76.4214 182.789 76.3696 183.705C76.3724 184.809 76.6515 185.895 77.1814 186.864C77.6461 187.857 78.2018 188.806 78.5849 189.837C78.5485 189.734 78.5121 189.63 78.4756 189.526C78.6517 189.966 78.7706 190.426 78.8293 190.896C78.7928 190.792 78.8069 190.682 78.7894 190.571C78.8187 190.826 78.8163 191.083 78.7824 191.337C78.7965 191.226 78.8105 191.115 78.8341 191.001C78.7961 191.213 78.7335 191.419 78.6477 191.617L78.788 191.292C78.7072 191.478 78.6003 191.651 78.4704 191.806L78.6844 191.541C78.5072 191.754 78.3028 191.943 78.0765 192.104L78.3487 191.913C78.1107 192.074 77.8563 192.209 77.5897 192.317L77.9011 192.207C77.6407 192.299 77.3713 192.361 77.0975 192.394L77.4259 192.364C77.0697 192.4 76.7104 192.39 76.3565 192.336L76.6926 192.388C76.3165 192.327 75.95 192.217 75.6026 192.06L75.918 192.204C74.7458 191.672 73.7555 190.843 72.5116 190.379C71.9762 190.194 71.4133 190.101 70.8469 190.104C70.1065 190.095 69.3831 190.327 68.7854 190.764C68.1878 191.201 67.7481 191.82 67.5325 192.529C67.3319 193.115 67.2576 193.737 67.3145 194.354C67.4056 195.337 67.6271 196.303 67.9732 197.228C68.3395 198.164 68.603 199.138 68.7589 200.131C68.7225 200.027 68.7366 199.917 68.719 199.806C68.7698 200.246 68.7619 200.691 68.6955 201.129L68.7472 200.792C68.6931 201.144 68.5965 201.487 68.4596 201.815L68.6033 201.5C68.4912 201.742 68.3504 201.969 68.1838 202.177L68.4073 201.908C68.272 202.06 68.1216 202.198 67.9584 202.32L68.2305 202.129C68.0522 202.245 67.8631 202.343 67.6658 202.422L67.9772 202.313C67.734 202.404 67.4795 202.461 67.2209 202.483L67.5667 202.351C67.2298 202.377 66.8912 202.364 66.5572 202.313L66.8838 202.368C66.3916 202.282 65.9136 202.129 65.4629 201.913L65.7783 202.057C64.9819 201.69 64.2311 201.211 63.4375 200.822C62.6295 200.402 61.7519 200.132 60.8474 200.025C59.9908 199.927 59.1248 200.094 58.3659 200.503C57.5706 200.97 56.9608 201.697 56.6398 202.561C56.4745 202.989 56.3863 203.444 56.3794 203.903C56.3798 204.45 56.4871 204.992 56.6954 205.498C56.7759 205.65 56.8868 205.785 57.0212 205.892C57.1557 206 57.3108 206.079 57.4769 206.125C57.7942 206.224 58.1373 206.196 58.4349 206.048C58.7324 205.901 58.9615 205.644 59.0743 205.331L59.1292 205.004C59.1384 204.783 59.0868 204.563 58.9801 204.368C59.0165 204.472 59.0529 204.575 59.0893 204.679C59.0228 204.489 58.9752 204.293 58.9473 204.093C58.9837 204.197 58.973 204.317 58.9872 204.418C58.9642 204.188 58.968 203.955 58.9985 203.726C58.9869 203.835 58.9685 203.945 58.9435 204.052C58.9887 203.808 59.0613 203.569 59.16 203.34L59.0163 203.656C59.1219 203.429 59.2533 203.216 59.408 203.02L59.1845 203.289C59.3238 203.125 59.4818 202.977 59.6552 202.849L59.383 203.04C59.5566 202.916 59.7467 202.817 59.9477 202.746L59.6363 202.855C59.8685 202.774 60.1099 202.721 60.3549 202.699L60.0265 202.729C60.3602 202.698 60.6965 202.712 61.0265 202.77L60.6999 202.715C61.194 202.804 61.6747 202.956 62.1302 203.167L61.8149 203.024C63.0412 203.732 64.3196 204.346 65.6389 204.861C66.2393 205.041 66.8671 205.111 67.4923 205.069C68.1903 205.041 68.8695 204.836 69.466 204.472C69.8661 204.203 70.2179 203.868 70.5067 203.482C70.7424 203.143 70.9303 202.774 71.0651 202.385C71.2862 201.778 71.395 201.137 71.3864 200.492C71.3532 199.431 71.1466 198.383 70.7747 197.389C70.3742 196.38 70.0872 195.329 69.919 194.256C69.9521 194.35 69.9886 194.454 69.9495 194.584C69.9119 194.229 69.9179 193.871 69.9675 193.518L69.9126 193.845C69.9539 193.579 70.0307 193.321 70.1409 193.076L69.9972 193.391C70.0807 193.202 70.1896 193.024 70.321 192.864L70.0975 193.133C70.2128 192.991 70.347 192.866 70.4964 192.76L70.2243 192.951C70.3674 192.855 70.5211 192.777 70.6824 192.716L70.371 192.825C70.5612 192.757 70.7591 192.713 70.9603 192.693L70.6319 192.723C70.9013 192.703 71.1722 192.715 71.4389 192.758C71.329 192.747 71.2199 192.728 71.1123 192.703C71.4978 192.774 71.8734 192.892 72.231 193.052L71.9156 192.909C72.6483 193.245 73.2698 193.748 74.0157 194.122C74.8154 194.578 75.7046 194.856 76.6219 194.935C77.4701 194.999 78.3201 194.836 79.0845 194.463C79.7013 194.151 80.2401 193.705 80.6612 193.157C80.9707 192.722 81.1864 192.227 81.2947 191.703C81.403 191.18 81.4015 190.64 81.2902 190.118C81.1144 189.178 80.7962 188.271 80.3466 187.428C79.9117 186.521 79.4108 185.637 79.0608 184.7C79.0973 184.804 79.1337 184.908 79.1701 185.011C79.0268 184.653 78.9305 184.277 78.8837 183.893C78.9201 183.997 78.9061 184.108 78.9142 184.222C78.894 183.942 78.9055 183.66 78.9484 183.383C78.9249 183.497 78.9109 183.608 78.8968 183.719C78.9471 183.377 79.0441 183.044 79.1848 182.728L79.0444 183.053C79.1843 182.737 79.3658 182.442 79.5841 182.174L79.3606 182.444C79.5661 182.194 79.8004 181.969 80.0586 181.775L79.7864 181.966C80.0417 181.788 80.3191 181.644 80.6115 181.538L80.3001 181.648C80.5899 181.548 80.8902 181.481 81.1952 181.45L80.8668 181.481C81.2456 181.45 81.6266 181.462 82.0027 181.517C81.8928 181.505 81.7837 181.487 81.6761 181.462C82.4097 181.603 83.1224 181.837 83.7965 182.159L83.4812 182.015C84.2488 182.36 84.9797 182.782 85.7167 183.191C86.0101 183.37 86.3609 183.429 86.6965 183.356C86.8706 183.318 87.0355 183.246 87.1815 183.144C87.3276 183.041 87.4519 182.911 87.5474 182.761C87.7156 182.466 87.7619 182.117 87.6764 181.789C87.5909 181.461 87.3803 181.179 87.0897 181.003Z" fill="#FB9025"/>
<path d="M97.0706 45.8378L100.252 47.2648L88.8101 64.1877L84.4345 61.2614L97.0706 45.8378Z" fill="#56C6F6"/>
<path d="M254.046 121.486L257.283 120.189L261.507 140.176L256.362 141.29L254.046 121.486Z" fill="#56C6F6"/>
<path d="M356.702 30.1016L359.719 28.3535L366.765 47.5285L361.833 49.369L356.702 30.1016Z" fill="#56C6F6"/>
<path d="M324.58 46.238L323.611 49.2931L302.102 43.3926L304.079 38.5332L324.58 46.238Z" fill="#36C69A"/>
<path d="M332.628 -7.90961L335.528 -6.54615L326.838 13.9954L322.282 11.3938L332.628 -7.90961Z" fill="#F8C835"/>
<path d="M182.564 66.7351L181.596 69.7902L160.086 63.8897L162.063 59.0303L182.564 66.7351Z" fill="#B246FF"/>
<path d="M425.531 133.235L425.235 136.427L402.963 135.235L403.861 130.066L425.531 133.235Z" fill="#B246FF"/>
<path d="M207.625 18.2415L204.493 18.9202L198.918 -2.67601L204.117 -3.37667L207.625 18.2415Z" fill="#B246FF"/>
<path d="M59.4909 46.8397L56.667 48.3552L45.3578 29.1308L50.1626 27.0248L59.4909 46.8397Z" fill="#B246FF"/>
<path d="M206.762 61.1662L212.57 59.0135C212.71 58.9605 212.833 58.872 212.928 58.7567C213.023 58.6415 213.087 58.5034 213.112 58.3561C213.138 58.2089 213.125 58.0575 213.074 57.917C213.023 57.7764 212.936 57.6516 212.823 57.5547L208.055 53.5935C207.939 53.4985 207.799 53.4356 207.651 53.4112C207.503 53.3867 207.351 53.4015 207.21 53.454C207.07 53.5065 206.945 53.5949 206.849 53.7105C206.753 53.8261 206.689 53.9647 206.664 54.1127L205.645 60.2035C205.62 60.3498 205.633 60.5001 205.683 60.6399C205.733 60.7797 205.818 60.9041 205.931 61.001C206.043 61.0979 206.179 61.1641 206.325 61.1931C206.47 61.222 206.621 61.2128 206.762 61.1662Z" fill="#422A82"/>
<path d="M417.764 97.9337L426.593 94.6616C426.805 94.581 426.993 94.4465 427.138 94.2713C427.282 94.096 427.379 93.8862 427.417 93.6624C427.456 93.4385 427.436 93.2085 427.358 92.9948C427.281 92.7812 427.15 92.5914 426.977 92.4441L419.73 86.4231C419.553 86.2787 419.341 86.1832 419.116 86.146C418.891 86.1088 418.66 86.1312 418.446 86.211C418.232 86.2908 418.043 86.4253 417.897 86.6009C417.751 86.7766 417.654 86.9874 417.615 87.2123L416.066 96.4703C416.028 96.6927 416.048 96.9213 416.124 97.1337C416.2 97.3461 416.33 97.5352 416.501 97.6826C416.672 97.8299 416.878 97.9305 417.1 97.9745C417.321 98.0185 417.55 98.0045 417.764 97.9337Z" fill="#701AFF"/>
<path d="M109.718 108.933L118.546 105.661C118.758 105.58 118.946 105.446 119.091 105.27C119.235 105.095 119.332 104.885 119.37 104.661C119.409 104.438 119.389 104.207 119.312 103.994C119.234 103.78 119.103 103.59 118.93 103.443L111.683 97.4221C111.506 97.2777 111.295 97.1822 111.069 97.145C110.844 97.1078 110.613 97.1302 110.399 97.21C110.185 97.2899 109.996 97.4243 109.85 97.6C109.705 97.7756 109.607 97.9864 109.568 98.2113L108.02 107.469C107.981 107.692 108.001 107.92 108.077 108.133C108.153 108.345 108.283 108.534 108.454 108.682C108.625 108.829 108.831 108.93 109.053 108.974C109.274 109.018 109.503 109.003 109.718 108.933Z" fill="#FB9025"/>
<path d="M230.108 99.8232L226.538 91.111C226.45 90.9014 226.309 90.7184 226.129 90.5799C225.949 90.4413 225.736 90.3521 225.511 90.321C225.286 90.2899 225.057 90.3179 224.846 90.4024C224.635 90.4868 224.45 90.6248 224.309 90.8026L218.537 98.2498C218.399 98.4314 218.311 98.6461 218.281 98.8725C218.252 99.0988 218.282 99.329 218.369 99.54C218.456 99.751 218.597 99.9356 218.777 100.075C218.958 100.215 219.172 100.305 219.398 100.336L228.703 101.57C228.927 101.601 229.154 101.573 229.364 101.49C229.574 101.406 229.758 101.27 229.9 101.094C230.041 100.918 230.135 100.709 230.171 100.486C230.208 100.263 230.186 100.035 230.108 99.8232Z" fill="#E8593A"/>
<circle cx="352.414" cy="91.4124" r="6.15828" transform="rotate(30 352.414 91.4124)" fill="url(#paint0_linear_3750_55025)"/>
<circle cx="155.414" cy="19.4124" r="6.15828" transform="rotate(30 155.414 19.4124)" fill="url(#paint1_linear_3750_55025)"/>
<path fill-rule="evenodd" clip-rule="evenodd" d="M51.9797 130.445C51.9809 130.444 51.982 130.443 51.9832 130.442L51.9763 130.448C51.9774 130.447 51.9786 130.446 51.9797 130.445ZM51.1602 129.533C51.183 129.17 51.2312 128.776 51.3219 128.376C51.6105 127.103 52.3773 125.572 54.0818 124.61C55.1534 124.005 56.2232 123.875 57.0465 123.893C57.3652 122.867 58.0942 121.971 59.1401 121.47C61.1328 120.516 63.5213 121.359 64.475 123.351C64.8866 124.211 65.0937 125.155 65.08 126.108C65.0662 127.062 64.8321 127.999 64.3959 128.847C63.9597 129.695 63.3332 130.43 62.5655 130.995C61.7978 131.561 60.9097 131.941 59.9706 132.106C59.8846 132.121 59.798 132.133 59.7112 132.143C59.5315 132.162 59.3573 132.173 59.1902 132.178C59.1752 132.413 59.1503 132.658 59.1114 132.906C58.9482 133.945 58.4711 135.473 57.0483 136.635C55.773 137.682 54.3631 137.925 53.3187 137.924C52.8001 137.923 52.2966 137.861 51.8826 137.79C51.8188 138.001 51.7422 138.229 51.6498 138.461C51.6252 138.523 51.5992 138.584 51.5716 138.645C51.1548 139.558 50.5592 140.379 49.82 141.059C49.0808 141.739 48.2129 142.264 47.2675 142.603C46.3221 142.942 45.3184 143.088 44.3157 143.033C43.3129 142.977 42.3313 142.722 41.4289 142.281C39.444 141.311 38.6209 138.916 39.5905 136.931C40.4693 135.132 42.5192 134.288 44.3733 134.867C44.4229 134.655 44.4872 134.388 44.5526 134.155C44.7815 133.34 45.3378 131.655 47.0273 130.501L47.0537 130.483C48.3719 129.598 49.738 129.463 50.6966 129.501C50.8528 129.507 51.0082 129.518 51.1602 129.533ZM52.2778 136.242C52.2778 136.242 52.2774 136.244 52.2766 136.246C52.2774 136.244 52.2778 136.242 52.2778 136.242ZM59.1447 130.022C59.1447 130.022 59.1446 130.023 59.1444 130.025C59.1446 130.023 59.1447 130.022 59.1447 130.022ZM59.1026 124.183C59.1081 124.183 59.111 124.183 59.111 124.183C59.1111 124.183 59.1083 124.183 59.1026 124.183Z" fill="#B246FF"/>
<path fill-rule="evenodd" clip-rule="evenodd" d="M295.928 94.0017C295.927 94.0004 295.926 93.9991 295.926 93.9978L295.93 94.0055C295.929 94.0042 295.928 94.003 295.928 94.0017ZM294.89 94.6539C294.535 94.5695 294.155 94.4549 293.776 94.2973C292.572 93.7961 291.193 92.7797 290.536 90.9362C290.123 89.7773 290.177 88.701 290.335 87.8928C289.378 87.4039 288.619 86.5329 288.304 85.417C287.703 83.291 288.94 81.0809 291.066 80.4805C291.984 80.2215 292.949 80.1782 293.886 80.3541C294.823 80.53 295.707 80.9204 296.468 81.4947C297.229 82.069 297.847 82.8116 298.273 83.6644C298.7 84.5171 298.923 85.457 298.926 86.4105C298.926 86.4979 298.923 86.5852 298.918 86.6724C298.906 86.8528 298.887 87.0263 298.863 87.1917C299.093 87.2466 299.33 87.3129 299.567 87.3934C300.564 87.7313 301.988 88.4616 302.89 90.0615C303.705 91.4967 303.704 92.9273 303.525 93.9563C303.436 94.4672 303.289 94.9526 303.149 95.3486C303.346 95.4473 303.557 95.5617 303.771 95.6924C303.827 95.7271 303.883 95.7632 303.938 95.8007C304.767 96.367 305.475 97.0937 306.019 97.938C306.563 98.7822 306.932 99.7268 307.105 100.716C307.278 101.705 307.251 102.719 307.026 103.698C306.8 104.677 306.381 105.6 305.793 106.415C304.5 108.205 301.999 108.608 300.209 107.315C298.585 106.142 298.102 103.978 298.989 102.25C298.788 102.165 298.536 102.056 298.318 101.952C297.554 101.588 295.989 100.753 295.139 98.8912L295.126 98.8622C294.478 97.4124 294.578 96.0433 294.779 95.1051C294.811 94.9523 294.849 94.8011 294.89 94.6539ZM301.691 94.6956C301.691 94.6956 301.692 94.6961 301.694 94.6973C301.692 94.6961 301.691 94.6956 301.691 94.6956ZM296.731 86.8693C296.731 86.8693 296.732 86.8696 296.735 86.8702C296.732 86.8696 296.731 86.8693 296.731 86.8693ZM290.97 85.9161C290.971 85.9107 290.972 85.9079 290.972 85.9079C290.972 85.9078 290.972 85.9105 290.97 85.9161Z" fill="#FB9025"/>
<path d="M403.173 161.676C403.173 161.676 397.684 157.763 400.207 152.363C400.207 152.363 395.619 153.157 393.297 154.822C393.297 154.822 392.044 163.5 397.918 164.487L403.173 161.676Z" fill="#FE557A"/>
<path d="M21.1734 48.6756C21.1734 48.6756 15.6838 44.7626 18.2067 39.3628C18.2067 39.3628 13.6193 40.1573 11.2969 41.8218C11.2969 41.8218 10.0444 50.5 15.9184 51.4871L21.1734 48.6756Z" fill="url(#paint2_linear_3750_55025)"/>
<path d="M159.939 104.972C159.939 104.972 155.845 99.6161 159.846 95.1984C159.846 95.1984 155.228 94.6072 152.518 95.5142C152.518 95.5142 148.767 103.439 154.09 106.112L159.939 104.972Z" fill="#FE557A"/>
<path d="M131.689 44.8312C131.689 44.8312 127.595 39.4755 131.596 35.0578C131.596 35.0578 126.978 34.4665 124.268 35.3736C124.268 35.3736 120.517 43.2984 125.84 45.9711L131.689 44.8312Z" fill="#FE557A"/>
<path d="M31.6894 7.8312C31.6894 7.8312 27.5951 2.4755 31.5959 -1.94225C31.5959 -1.94225 26.9778 -2.53347 24.2684 -1.62643C24.2684 -1.62643 20.5165 6.29842 25.8396 8.9711L31.6894 7.8312Z" fill="#FE557A"/>
<path d="M243.829 17.7854C244.398 17.9567 244.014 21.7263 243.945 22.1322C243.774 23.2954 243.246 24.3769 242.434 25.2269C240.748 26.8252 237.574 26.0528 236.396 28.4054C235.535 30.7193 234.875 33.103 234.424 35.5302L227.11 31.4198C227.071 31.9422 226.607 24.1251 229.911 22.4571C232.838 20.9847 235.97 21.3909 235.565 15.344L243.829 17.7854Z" fill="#36C69A"/>
<path d="M206.492 119.587C206.892 119.707 206.622 122.36 206.573 122.646C206.453 123.464 206.082 124.225 205.51 124.824C204.323 125.949 202.089 125.405 201.26 127.061C200.655 128.689 200.19 130.367 199.872 132.075L194.725 129.182C194.698 129.55 194.371 124.048 196.696 122.874C198.757 121.838 200.96 122.124 200.675 117.868L206.492 119.587Z" fill="#36C69A"/>
<path d="M350.613 118.207C350.89 117.894 353.186 119.251 353.425 119.416C354.118 119.868 354.653 120.524 354.956 121.294C355.48 122.843 354.05 124.643 355.206 126.09C356.43 127.322 357.759 128.447 359.176 129.452L354.393 132.912C354.715 133.091 349.583 131.082 349.492 128.478C349.415 126.174 350.598 124.293 346.615 122.768L350.613 118.207Z" fill="#F8C835"/>
<path d="M457.886 70.3986C458.164 70.0857 460.459 71.4429 460.698 71.607C461.391 72.0592 461.926 72.7155 462.23 73.4852C462.754 75.0339 461.324 76.8346 462.479 78.281C463.704 79.5136 465.032 80.6384 466.45 81.643L461.666 85.1033C461.988 85.2825 456.856 83.2731 456.765 80.6699C456.688 78.3649 457.872 76.4842 453.888 74.959L457.886 70.3986Z" fill="#F8C835"/>
<path d="M58.6595 76.3678C59.0599 76.4884 58.7899 79.1413 58.741 79.427C58.621 80.2456 58.2495 81.0067 57.6779 81.6049C56.4914 82.7298 54.2571 82.1862 53.4284 83.8418C52.8226 85.4703 52.3583 87.1479 52.0404 88.8561L46.8934 85.9633C46.8658 86.331 46.539 80.8295 48.8643 79.6556C50.9247 78.6194 53.1283 78.9053 52.8433 74.6496L58.6595 76.3678Z" fill="#36C69A"/>
<path d="M14.6595 120.368C15.0599 120.488 14.7899 123.141 14.741 123.427C14.621 124.246 14.2495 125.007 13.6779 125.605C12.4914 126.73 10.2571 126.186 9.42841 127.842C8.82265 129.47 8.35826 131.148 8.04039 132.856L2.89345 129.963C2.86584 130.331 2.53903 124.83 4.86434 123.656C6.92471 122.619 9.12828 122.905 8.8433 118.65L14.6595 120.368Z" fill="#E8593A"/>
<path d="M98.6595 13.3678C99.0599 13.4884 98.7899 16.1413 98.741 16.427C98.621 17.2456 98.2495 18.0067 97.6779 18.6049C96.4914 19.7298 94.2571 19.1862 93.4284 20.8418C92.8226 22.4703 92.3583 24.1479 92.0404 25.8561L86.8934 22.9633C86.8658 23.331 86.539 17.8295 88.8643 16.6556C90.9247 15.6194 93.1283 15.9053 92.8433 11.6496L98.6595 13.3678Z" fill="#36C69A"/>
<path d="M260.799 87.9723C260.799 87.9723 259.646 93.2626 256.213 94.6259C256.213 94.6259 254.659 92.4902 253.576 92.2131C253.576 92.2131 256.472 89.3212 256.576 86.1158C256.567 86.1191 258.221 85.9413 260.799 87.9723Z" fill="#FFC850"/>
<path d="M277.799 20.9723C277.799 20.9723 276.646 26.2626 273.213 27.6259C273.213 27.6259 271.659 25.4902 270.576 25.2131C270.576 25.2131 273.472 22.3212 273.576 19.1158C273.567 19.1191 275.221 18.9413 277.799 20.9723Z" fill="#FFC850"/>
<path d="M21.799 176.972C21.799 176.972 20.6455 182.263 17.2133 183.626C17.2133 183.626 15.6585 181.49 14.5757 181.213C14.5757 181.213 17.4715 178.321 17.5761 175.116C17.5667 175.119 19.2212 174.941 21.799 176.972Z" fill="#FFC850"/>
<path d="M386.799 204.972C386.799 204.972 385.646 210.263 382.213 211.626C382.213 211.626 380.659 209.49 379.576 209.213C379.576 209.213 382.472 206.321 382.576 203.116C382.567 203.119 384.221 202.941 386.799 204.972Z" fill="#FFC850"/>
<path d="M429.699 185.821C429.699 185.821 436.692 191.075 436.384 197.033C436.384 197.033 432.201 197.879 431.066 199.283C431.066 199.283 428.767 193.084 424.13 190.773C424.129 190.79 424.981 188.24 429.699 185.821Z" fill="#B246FF"/>
<defs>
<linearGradient id="paint0_linear_3750_55025" x1="358.573" y1="86.4412" x2="334.607" y2="104.693" gradientUnits="userSpaceOnUse">
<stop stop-color="#B246FF"/>
<stop offset="1" stop-color="#FF6A8A"/>
</linearGradient>
<linearGradient id="paint1_linear_3750_55025" x1="161.573" y1="14.4412" x2="137.607" y2="32.6935" gradientUnits="userSpaceOnUse">
<stop stop-color="#B246FF"/>
<stop offset="1" stop-color="#FF6A8A"/>
</linearGradient>
<linearGradient id="paint2_linear_3750_55025" x1="12.5072" y1="49.5349" x2="19.9988" y2="40.9214" gradientUnits="userSpaceOnUse">
<stop stop-color="#FB9025"/>
<stop offset="1" stop-color="#F8C835"/>
</linearGradient>
</defs>
</svg>
