<svg xmlns="http://www.w3.org/2000/svg" width="24" height="24" viewBox="0 0 24 24" fill="none">
  <path d="M7.20774 19.856C6.41674 20.647 3.66272 21.3501 3.11872 21.4831C3.07872 21.4931 3.03974 21.4971 2.99974 21.4971C2.86674 21.4971 2.73774 21.444 2.64274 21.347C2.51874 21.221 2.47173 21.0391 2.51673 20.8681C2.66773 20.3011 3.45874 17.4301 4.24574 16.6431C4.68874 16.2001 5.26375 15.9721 5.84175 15.9781C6.40075 15.9911 6.93773 16.2281 7.35273 16.6431C8.19873 17.4901 8.13374 18.931 7.20774 19.856ZM17.2077 14.7291L16.9497 16.3C16.6497 18.19 15.3497 19.8001 13.5697 20.5101L11.1897 21.4601C11.1297 21.4901 11.0597 21.5001 10.9997 21.5001C10.8897 21.5001 10.7697 21.4601 10.6797 21.3801C10.5397 21.2701 10.4697 21.0801 10.5097 20.9001L11.1727 17.5641C11.0757 17.5831 10.9837 17.6091 10.8847 17.6261C10.7627 17.6471 10.6397 17.6571 10.5177 17.6571C9.93374 17.6571 9.35973 17.4201 8.92973 16.9911L7.00773 15.0681C6.48773 14.5481 6.25072 13.8181 6.37272 13.1131C6.38972 13.0161 6.41573 12.9251 6.43373 12.8291L3.11872 13.4881C3.08872 13.4981 3.04875 13.498 3.01875 13.498C2.86875 13.498 2.72874 13.4381 2.63874 13.3181C2.51874 13.1781 2.48873 12.9781 2.55873 12.8081L3.51875 10.4181C4.21875 8.64806 5.82873 7.34807 7.71873 7.04807L9.26972 6.78906C11.8307 3.85206 15.8527 2.24707 20.9977 2.24707C21.4117 2.24707 21.7477 2.58307 21.7477 2.99707C21.7497 8.14607 20.1457 12.1681 17.2077 14.7291ZM18.9687 9.69507C18.8147 7.18507 16.8137 5.18506 14.3037 5.03006C11.4047 6.27906 8.66075 8.70106 7.85075 13.3701C7.81275 13.5911 7.89574 13.835 8.06874 14.007L9.99073 15.9301C10.1627 16.1021 10.4077 16.1841 10.6287 16.1471C15.2987 15.3381 17.7207 12.5951 18.9687 9.69507ZM13.4997 8.25006C12.2567 8.25006 11.2497 9.25706 11.2497 10.5001C11.2497 11.7431 12.2567 12.7501 13.4997 12.7501C14.7427 12.7501 15.7497 11.7431 15.7497 10.5001C15.7497 9.25706 14.7427 8.25006 13.4997 8.25006Z" fill="#C677FF"/>
</svg>