<svg xmlns="http://www.w3.org/2000/svg" width="24" height="24" viewBox="0 0 24 24" fill="none">
  <path d="M22.29 21.355C22.29 21.7112 22.0013 22 21.645 22H1.64502C1.28879 22 1 21.7112 1 21.355C1 20.9987 1.28879 20.71 1.64502 20.71H21.645C22.0013 20.71 22.29 20.9987 22.29 21.355ZM5.5166 17.1289C5.5166 17.6812 5.06889 18.1289 4.5166 18.1289H2C1.44772 18.1289 1 17.6812 1 17.1289V8.80664C1 8.25436 1.44772 7.80664 2 7.80664H4.5166C5.06889 7.80664 5.5166 8.25436 5.5166 8.80664V17.1289ZM13.9033 17.1289C13.9033 17.6812 13.4556 18.1289 12.9033 18.1289H10.3867C9.83443 18.1289 9.38672 17.6812 9.38672 17.1289V6.22559C9.38672 5.6733 9.83443 5.22559 10.3867 5.22559H12.9033C13.4556 5.22559 13.9033 5.6733 13.9033 6.22559V17.1289ZM22.29 17.1289C22.29 17.6812 21.8423 18.1289 21.29 18.1289H18.7744C18.2221 18.1289 17.7744 17.6812 17.7744 17.1289V3C17.7744 2.44772 18.2221 2 18.7744 2H21.29C21.8423 2 22.29 2.44772 22.29 3V17.1289Z" fill="#74DEFF"/>
</svg>