<svg width="168" height="170" viewBox="0 0 168 170" fill="none" xmlns="http://www.w3.org/2000/svg">
<g clip-path="url(#clip0_1696_4312)">
<path d="M164.745 121.783L113.377 16.7162C113.154 16.2562 112.865 15.8309 112.52 15.4538L107.13 9.58644C107.475 9.96357 107.763 10.3888 107.986 10.8489L159.355 115.916C161.289 119.869 157.976 124.821 153.392 124.828L31.636 125.019C29.953 125.022 28.5621 124.356 27.6072 123.317L32.9973 129.184C33.9523 130.224 35.3432 130.889 37.0262 130.887L158.782 130.696C163.366 130.688 166.679 125.737 164.745 121.783Z" fill="#B246FF"/>
<path d="M160.819 130.643C160.169 130.854 159.484 130.966 158.783 130.967L37.0266 131.158C35.3621 131.161 33.8603 130.525 32.7972 129.368L27.407 123.5C27.3581 123.447 27.3324 123.377 27.3354 123.305C27.3384 123.233 27.3698 123.165 27.4229 123.116C27.4759 123.067 27.5462 123.041 27.6182 123.044C27.6902 123.047 27.758 123.079 27.8069 123.132C28.7653 124.175 30.1252 124.749 31.6353 124.747L153.392 124.556C155.54 124.553 157.529 123.416 158.711 121.516C159.79 119.779 159.94 117.73 159.111 116.035L107.742 10.9676C107.531 10.5334 107.26 10.1318 106.935 9.77527L106.929 9.76981C106.881 9.71664 106.855 9.64633 106.858 9.57429C106.861 9.50224 106.892 9.43434 106.945 9.38546C106.972 9.36126 107.002 9.34248 107.036 9.33019C107.069 9.31791 107.105 9.31236 107.14 9.31388C107.176 9.31539 107.211 9.32393 107.243 9.33902C107.276 9.3541 107.305 9.37542 107.329 9.40176L112.719 15.2695C113.082 15.666 113.385 16.113 113.62 16.5966L164.989 121.663C165.901 123.529 165.741 125.774 164.562 127.671C163.665 129.114 162.337 130.15 160.819 130.643ZM29.4093 124.877L33.1971 129C34.1556 130.043 35.5154 130.616 37.0255 130.614L158.782 130.423C160.93 130.42 162.919 129.284 164.101 127.384C165.181 125.647 165.33 123.598 164.501 121.902L113.132 16.8352C112.921 16.3988 112.647 15.9953 112.32 15.6373L108.707 11.7048L159.599 115.796C160.511 117.661 160.351 119.907 159.172 121.804C157.891 123.864 155.731 125.096 153.393 125.1L31.6367 125.291C30.8479 125.292 30.0957 125.15 29.4093 124.877Z" fill="#111111"/>
<path d="M159.354 115.915C161.288 119.869 157.975 124.821 153.391 124.828L31.6351 125.019C27.0544 125.026 24.6368 120.083 27.2869 116.123L97.6742 10.8644C98.9993 8.88367 101.094 7.89157 103.1 7.88828C105.105 7.88507 107.02 8.87119 107.985 10.848L159.354 115.915L159.354 115.915Z" fill="white"/>
<path d="M155.428 124.776C154.778 124.988 154.093 125.099 153.392 125.1L31.6357 125.291C29.4645 125.294 27.5815 124.199 26.5988 122.361C25.5382 120.378 25.7109 117.989 27.0608 115.971L97.4482 10.7134C98.7427 8.77859 100.854 7.62073 103.099 7.61685C105.358 7.61352 107.276 8.77698 108.229 10.7294L159.598 115.796C160.51 117.661 160.35 119.907 159.171 121.804C158.274 123.246 156.947 124.283 155.429 124.776L155.428 124.776ZM101.244 8.4572C99.9098 8.89065 98.7255 9.78191 97.8998 11.0161L27.5122 116.274C26.2759 118.122 26.1136 120.302 27.0776 122.105C27.964 123.763 29.6673 124.75 31.6341 124.747L153.39 124.556C155.539 124.553 157.528 123.417 158.71 121.516C159.789 119.78 159.939 117.731 159.11 116.035C158.28 114.34 107.741 10.9681 107.741 10.9681C106.881 9.2069 105.146 8.15755 103.1 8.16077C102.469 8.16205 101.843 8.26201 101.244 8.4572Z" fill="#111111"/>
<path d="M106.58 41.749L101.105 89.5028L90.231 89.5199L93.4905 41.7697L106.58 41.749Z" fill="#B246FF"/>
<path d="M101.189 89.7611C101.163 89.7697 101.135 89.7742 101.105 89.7746L90.2313 89.7917C90.194 89.7918 90.157 89.7842 90.1228 89.7694C90.0885 89.7546 90.0577 89.7328 90.0322 89.7056C90.0067 89.6783 89.9871 89.646 89.9747 89.6108C89.9622 89.5756 89.9571 89.5382 89.9598 89.501L93.219 41.7508C93.2236 41.6821 93.2541 41.6178 93.3043 41.5708C93.3545 41.5238 93.4207 41.4976 93.4895 41.4977L106.579 41.4771C106.617 41.4771 106.655 41.4852 106.69 41.5009C106.725 41.5166 106.756 41.5395 106.782 41.5681C106.807 41.5968 106.826 41.6305 106.838 41.667C106.85 41.7036 106.853 41.7422 106.849 41.7803L101.374 89.5339C101.368 89.5857 101.348 89.6346 101.315 89.6749C101.282 89.7152 101.238 89.7452 101.188 89.7613L101.189 89.7611ZM90.5216 89.2472L100.862 89.231L106.275 42.0214L93.7442 42.0409L90.5216 89.2472Z" fill="#111111"/>
<path d="M99.9416 100.867L98.9605 111.712L88.0867 111.729L89.0675 100.884L99.9416 100.867Z" fill="#B246FF"/>
<path d="M99.0449 111.971C99.0185 111.979 98.9906 111.984 98.9613 111.984L88.0872 112.001C88.0493 112.001 88.0119 111.994 87.9773 111.978C87.9427 111.963 87.9116 111.941 87.8861 111.913C87.8606 111.885 87.8411 111.852 87.8291 111.816C87.817 111.78 87.8125 111.742 87.8159 111.705L88.7964 100.86C88.8024 100.792 88.8334 100.729 88.8834 100.683C88.9334 100.638 88.9987 100.612 89.0665 100.612L99.9406 100.595C99.9784 100.595 100.016 100.603 100.05 100.618C100.085 100.633 100.116 100.656 100.142 100.684C100.167 100.712 100.187 100.745 100.199 100.78C100.211 100.816 100.215 100.854 100.212 100.892L99.2313 111.737C99.2265 111.79 99.2063 111.84 99.1732 111.882C99.14 111.923 99.0954 111.954 99.0449 111.971ZM88.3843 111.457L98.7126 111.44L99.644 101.14L89.3157 101.156L88.3843 111.457Z" fill="#111111"/>
</g>
<defs>
<clipPath id="clip0_1696_4312">
<rect width="131.978" height="135.155" fill="white" transform="translate(0 40.7832) rotate(-18)"/>
</clipPath>
</defs>
</svg>
